<svg width="69" height="75" viewBox="0 0 69 75" fill="none" xmlns="http://www.w3.org/2000/svg">
<g clip-path="url(#clip0_1730_7008)">
<path d="M34.4985 34.455C23.2785 34.455 14.1504 43.5496 14.1504 54.7285C14.1504 65.9074 23.2785 75.0021 34.4985 75.0021C45.7184 75.0021 54.8465 65.9074 54.8465 54.7285C54.8465 43.5496 45.7184 34.455 34.4985 34.455ZM34.4985 70.5417C25.7462 70.5417 18.625 63.4465 18.625 54.7263C18.625 46.0061 25.7462 38.9109 34.4985 38.9109C43.2507 38.9109 50.372 46.0061 50.372 54.7263C50.372 63.4465 43.2507 70.5417 34.4985 70.5417Z" fill="#C6EB38"/>
<path d="M24.165 33.3227C22.3886 30.9866 20.0954 29.5399 17.5068 28.8734C20.2699 27.5048 22.1514 24.6292 22.0642 21.3257C21.9501 16.9946 18.4017 13.4682 14.0547 13.3656C9.428 13.2564 5.64252 16.9612 5.64252 21.5464C5.64252 24.7585 7.49947 27.536 10.2021 28.8757C5.08991 30.1908 1.11874 34.5108 0.0358959 42.8186C-0.297459 45.3754 1.71833 47.6379 4.30687 47.6379H11.7749C13.7661 41.3274 18.263 36.1648 24.165 33.3227Z" fill="#C6EB38"/>
<path d="M58.7979 28.8734C61.5609 27.5048 63.4425 24.6292 63.3552 21.3257C63.2411 16.9946 59.6928 13.4682 55.3458 13.3656C50.7191 13.2564 46.9336 16.9612 46.9336 21.5464C46.9336 24.7585 48.7905 27.536 51.4932 28.8757C48.9024 29.5422 46.6114 30.9888 44.8328 33.3249C50.7347 36.167 55.2316 41.3296 57.2228 47.6401H64.6931C67.2816 47.6401 69.2974 45.3776 68.9641 42.8209C67.8812 34.513 63.9101 30.193 58.7979 28.8757V28.8734Z" fill="#C6EB38"/>
<path d="M27.5923 32.021C29.7938 31.3545 32.0826 30.8886 34.4988 30.8886C36.9151 30.8886 39.2061 31.3545 41.4076 32.0233C42.5799 30.2712 43.8999 28.9293 45.2445 27.9462C44.0296 26.0827 43.354 23.8759 43.354 21.5443C43.354 20.5769 43.5061 19.6496 43.7276 18.749C42.1347 17.1307 40.2486 16.054 38.1523 15.5124C40.9154 14.1437 42.7969 11.2682 42.7097 7.96467C42.5956 3.63132 39.0472 0.104893 34.7002 0.0023547C30.0735 -0.106871 26.288 3.59788 26.288 8.18312C26.288 11.3952 28.145 14.1749 30.8476 15.5124C28.758 16.0518 26.8764 17.1218 25.2879 18.7312C25.4871 19.5381 25.6191 20.3696 25.6437 21.2322C25.7063 23.6463 25.015 25.9757 23.7397 27.9351C25.0888 28.9204 26.4178 30.2645 27.5946 32.0233L27.5923 32.021Z" fill="#C6EB38"/>
<path d="M10.8505 51.6968H5.14542C3.64868 51.6968 2.43384 52.9049 2.43384 54.3984V57.3096C2.43384 58.8009 3.64644 60.0113 5.14542 60.0113H11.2107C10.8214 58.306 10.5731 56.5517 10.5731 54.7306C10.5731 53.694 10.7006 52.691 10.8527 51.699L10.8505 51.6968Z" fill="#C6EB38"/>
<path d="M63.8543 51.6971H58.147C58.2992 52.6912 58.4267 53.6921 58.4267 54.7286C58.4267 56.5498 58.1783 58.3063 57.7891 60.0093H63.8543C65.3511 60.0093 66.5659 58.8012 66.5659 57.3077V54.3965C66.5659 52.9052 65.3533 51.6948 63.8543 51.6948V51.6971Z" fill="#C6EB38"/>
<path d="M40.3313 46.2111L30.8295 57.118L27.1604 53.7276C25.9858 52.642 24.1445 52.7111 23.0505 53.8814C21.9587 55.0539 22.0281 56.8884 23.2049 57.9762L29.0777 63.4018C29.6169 63.9012 30.3239 64.1753 31.0555 64.1753C31.107 64.1753 31.1607 64.1753 31.2121 64.1709C31.9996 64.1285 32.7357 63.7696 33.2503 63.1789L44.7208 50.0139C45.7746 48.8035 45.6448 46.9757 44.4322 45.9258C43.2196 44.8714 41.3783 45.0051 40.329 46.2133L40.3313 46.2111Z" fill="#C6EB38"/>
</g>
<defs>
<clipPath id="clip0_1730_7008">
<rect width="69" height="75" fill="white"/>
</clipPath>
</defs>
</svg>
