<svg width="55" height="60" viewBox="0 0 55 60" fill="none" xmlns="http://www.w3.org/2000/svg">
<g clip-path="url(#clip0_1826_793)">
<path d="M26.5589 24.6502V35.5091C25.9501 35.8463 25.5381 36.4834 25.5381 37.2236C25.5381 38.3104 26.4184 39.1911 27.5047 39.1911C28.591 39.1911 29.4713 38.3104 29.4713 37.2236C29.4713 36.4834 29.0593 35.8463 28.4506 35.5091V24.6502H26.5682H26.5589Z" fill="#F6B74B"/>
<path d="M10.6385 39.1911C11.6874 39.1911 12.5302 38.3666 12.5864 37.336C20.5559 32.3798 20.6589 24.9781 20.6589 24.6502H18.7766C18.7766 24.7158 18.6923 31.1992 11.7717 35.6215C11.4532 35.3966 11.0599 35.2561 10.6385 35.2561C9.55217 35.2561 8.67188 36.1368 8.67188 37.2236C8.67188 38.3104 9.55217 39.1911 10.6385 39.1911Z" fill="#F6B74B"/>
<path d="M34.3408 24.6502C34.3408 24.9781 34.4438 32.3798 42.4134 37.336C42.4695 38.3666 43.3218 39.1911 44.3613 39.1911C45.4008 39.1911 46.3279 38.3104 46.3279 37.2236C46.3279 36.1368 45.4476 35.2561 44.3613 35.2561C43.9398 35.2561 43.5465 35.3966 43.2281 35.6215C36.3543 31.2367 36.2232 24.9313 36.2232 24.6408H34.3408V24.6502Z" fill="#F6B74B"/>
<path d="M8.38144 51.5397C10.9849 51.5397 13.092 49.4316 13.092 46.827C13.092 44.2224 10.9849 42.1143 8.38144 42.1143C5.778 42.1143 3.6709 44.2224 3.6709 46.827C3.6709 49.4316 5.778 51.5397 8.38144 51.5397Z" fill="#F6B74B"/>
<path d="M10.8441 52.767L8.36245 55.2498L5.88075 52.767C0.889264 52.9638 0.0745184 56.1399 -0.00976562 58.7633V59.9906H16.7253V58.7633C16.6035 56.0275 15.7513 52.945 10.8348 52.767H10.8441Z" fill="#F6B74B"/>
<path d="M27.5235 11.1024C30.5952 11.1024 33.0675 8.61961 33.0675 5.5559C33.0675 2.49219 30.5858 0.0093689 27.5235 0.0093689C24.4612 0.0093689 21.9795 2.49219 21.9795 5.5559C21.9795 8.61961 24.4612 11.1024 27.5235 11.1024Z" fill="#F6B74B"/>
<path d="M37.3566 19.619C37.2162 16.4428 36.2329 12.8545 30.6327 12.564L27.5235 15.6746L24.4144 12.564C18.6831 12.8638 17.7466 16.5553 17.6436 19.619V21.0618H37.366V19.619H37.3566Z" fill="#F6B74B"/>
<path d="M22.8125 46.8364C22.8125 49.441 24.9196 51.549 27.523 51.549C30.1265 51.549 32.2336 49.441 32.2336 46.8364C32.2336 44.2317 30.1265 42.1237 27.523 42.1237C24.9196 42.1237 22.8125 44.2317 22.8125 46.8364Z" fill="#F6B74B"/>
<path d="M29.9957 52.767L27.514 55.2498L25.0323 52.767C20.0314 52.9638 19.2073 56.1305 19.123 58.7633V59.9906H35.8581V58.7633C35.7364 56.0369 34.8842 52.9544 29.9863 52.767H29.9957Z" fill="#F6B74B"/>
<path d="M41.9453 46.8364C41.9453 49.441 44.0524 51.549 46.6559 51.549C49.2593 51.549 51.3664 49.441 51.3664 46.8364C51.3664 44.2317 49.2593 42.1237 46.6559 42.1237C44.0524 42.1237 41.9453 44.2317 41.9453 46.8364Z" fill="#F6B74B"/>
<path d="M49.1285 52.767L46.6468 55.2498L44.1651 52.767C39.1643 52.9638 38.3401 56.1305 38.2559 58.7633V59.9906H54.9909V58.7633C54.8692 56.0369 54.0263 52.9544 49.1191 52.767H49.1285Z" fill="#F6B74B"/>
</g>
<defs>
<clipPath id="clip0_1826_793">
<rect width="55" height="60" fill="white"/>
</clipPath>
</defs>
</svg>
