<svg width="53" height="43" viewBox="0 0 53 43" fill="none" xmlns="http://www.w3.org/2000/svg">
<g clip-path="url(#clip0_1818_269)">
<path d="M10.2291 29.1216H0V43H10.2291V29.1216Z" fill="#F6B74B"/>
<path d="M24.4859 20.6177H14.2568V43H24.4859V20.6177Z" fill="#F6B74B"/>
<path d="M38.7428 25.752H28.5137V43H38.7428V25.752Z" fill="#F6B74B"/>
<path d="M52.9996 15.7244H42.7705V43.001H52.9996V15.7244Z" fill="#F6B74B"/>
<path d="M47.8855 0C45.0832 0 42.8109 2.28105 42.8109 5.09415C42.8109 5.7526 42.9369 6.38068 43.1633 6.95878L36.9858 11.2808C36.0888 10.4774 34.9058 9.98842 33.6096 9.98842C31.8176 9.98842 30.2432 10.9222 29.3404 12.3302L24.421 10.6008C24.4386 10.4284 24.4474 10.254 24.4474 10.0766C24.4474 7.26351 22.1751 4.98245 19.3728 4.98245C16.5706 4.98245 14.2983 7.26351 14.2983 10.0766C14.2983 10.5969 14.3764 11.0986 14.5208 11.5709L8.77381 14.963C7.85046 13.9989 6.55328 13.3982 5.11652 13.3982C2.3123 13.3973 0.0400391 15.6783 0.0400391 18.4914C0.0400391 21.3045 2.3123 23.5856 5.11457 23.5856C7.91683 23.5856 10.1891 21.3045 10.1891 18.4914C10.1891 17.9711 10.111 17.4695 9.96656 16.9972L15.7136 13.605C16.6369 14.5691 17.9341 15.1698 19.3709 15.1698C21.1629 15.1698 22.7373 14.236 23.6402 12.828L28.5595 14.5574C28.5419 14.7298 28.5331 14.9042 28.5331 15.0816C28.5331 17.8947 30.8054 20.1758 33.6077 20.1758C36.4099 20.1758 38.6822 17.8947 38.6822 15.0816C38.6822 14.4232 38.5563 13.7951 38.3299 13.217L44.5073 8.89493C45.4043 9.69839 46.5873 10.1873 47.8835 10.1873C50.6858 10.1873 52.9581 7.90628 52.9581 5.09317C52.9581 2.28007 50.6877 0 47.8855 0Z" fill="#F6B74B"/>
</g>
<defs>
<clipPath id="clip0_1818_269">
<rect width="53" height="43" fill="white"/>
</clipPath>
</defs>
</svg>
