<svg width="827" height="335" viewBox="0 0 827 335" fill="none" xmlns="http://www.w3.org/2000/svg">
<path d="M0 0H439V335H0V0Z" fill="#C6EB38"/>
<path d="M0 101H827V281H0V101Z" fill="#005942"/>
<path fill-rule="evenodd" clip-rule="evenodd" d="M791 215.5H43V214.5H791V215.5Z" fill="#C6EB38"/>
<path d="M191.279 313H187.361V302.818H191.239C192.287 302.818 193.191 303.022 193.954 303.43C194.719 303.834 195.309 304.417 195.724 305.18C196.141 305.939 196.35 306.848 196.35 307.909C196.35 308.97 196.143 309.881 195.729 310.643C195.314 311.402 194.728 311.986 193.969 312.393C193.21 312.798 192.313 313 191.279 313ZM190.126 310.653H191.18C191.683 310.653 192.113 310.572 192.467 310.41C192.825 310.247 193.097 309.967 193.282 309.57C193.471 309.172 193.566 308.618 193.566 307.909C193.566 307.2 193.47 306.646 193.278 306.249C193.089 305.851 192.81 305.571 192.442 305.408C192.078 305.246 191.63 305.165 191.1 305.165H190.126V310.653Z" fill="#005942"/>
<path d="M186.054 302.818V313H183.747L180.068 307.651H180.008V313H177.244V302.818H179.591L183.21 308.148H183.29V302.818H186.054Z" fill="#005942"/>
<path d="M168.535 313V302.818H175.873V305.045H171.299V306.795H175.495V309.023H171.299V310.773H175.853V313H168.535Z" fill="#005942"/>
<path d="M158.646 305.045V302.818H167.495V305.045H164.432V313H161.708V305.045H158.646Z" fill="#005942"/>
<path d="M149.034 305.045V302.818H157.884V305.045H154.821V313H152.097V305.045H149.034Z" fill="#005942"/>
<path d="M142.1 313H139.117L142.478 302.818H146.256L149.617 313H146.634L144.407 305.622H144.327L142.1 313ZM141.543 308.983H147.151V311.051H141.543V308.983Z" fill="#005942"/>
<path d="M135.387 307.909C135.387 309.043 135.167 309.999 134.726 310.778C134.285 311.553 133.69 312.142 132.941 312.543C132.192 312.94 131.357 313.139 130.436 313.139C129.508 313.139 128.669 312.939 127.92 312.538C127.174 312.133 126.581 311.543 126.14 310.768C125.703 309.989 125.484 309.036 125.484 307.909C125.484 306.776 125.703 305.821 126.14 305.045C126.581 304.267 127.174 303.678 127.92 303.281C128.669 302.879 129.508 302.679 130.436 302.679C131.357 302.679 132.192 302.879 132.941 303.281C133.69 303.678 134.285 304.267 134.726 305.045C135.167 305.821 135.387 306.776 135.387 307.909ZM132.544 307.909C132.544 307.299 132.462 306.785 132.3 306.368C132.141 305.947 131.904 305.629 131.589 305.413C131.277 305.195 130.893 305.085 130.436 305.085C129.978 305.085 129.592 305.195 129.277 305.413C128.966 305.629 128.729 305.947 128.566 306.368C128.407 306.785 128.328 307.299 128.328 307.909C128.328 308.519 128.407 309.034 128.566 309.455C128.729 309.873 128.966 310.191 129.277 310.41C129.592 310.625 129.978 310.733 130.436 310.733C130.893 310.733 131.277 310.625 131.589 310.41C131.904 310.191 132.141 309.873 132.3 309.455C132.462 309.034 132.544 308.519 132.544 307.909Z" fill="#005942"/>
<path d="M116.112 305.045V302.818H124.962V305.045H121.899V313H119.175V305.045H116.112Z" fill="#005942"/>
<path d="M104.25 313V302.818H108.645C109.401 302.818 110.062 302.956 110.629 303.231C111.195 303.506 111.636 303.902 111.951 304.419C112.266 304.936 112.423 305.556 112.423 306.278C112.423 307.008 112.261 307.622 111.936 308.123C111.615 308.623 111.162 309.001 110.579 309.256C109.999 309.512 109.321 309.639 108.545 309.639H105.92V307.491H107.989C108.313 307.491 108.59 307.452 108.819 307.372C109.051 307.289 109.228 307.158 109.351 306.979C109.477 306.8 109.54 306.567 109.54 306.278C109.54 305.987 109.477 305.75 109.351 305.567C109.228 305.382 109.051 305.246 108.819 305.16C108.59 305.07 108.313 305.026 107.989 305.026H107.014V313H104.25ZM110.216 308.327L112.761 313H109.759L107.273 308.327H110.216Z" fill="#005942"/>
<path d="M95.541 313V302.818H102.879V305.045H98.3052V306.795H102.501V309.023H98.3052V310.773H102.859V313H95.541Z" fill="#005942"/>
<path d="M85.6514 305.045V302.818H94.5008V305.045H91.4383V313H88.7139V305.045H85.6514Z" fill="#005942"/>
<path d="M82.0943 306C82.0678 305.669 81.9435 305.41 81.7215 305.224C81.5027 305.039 81.1696 304.946 80.7222 304.946C80.4371 304.946 80.2035 304.981 80.0212 305.05C79.8422 305.117 79.7096 305.208 79.6234 305.324C79.5373 305.44 79.4925 305.572 79.4892 305.722C79.4826 305.844 79.5041 305.955 79.5538 306.055C79.6069 306.151 79.6897 306.239 79.8024 306.318C79.9151 306.394 80.0593 306.464 80.235 306.527C80.4106 306.59 80.6194 306.646 80.8614 306.696L81.6966 306.875C82.26 306.994 82.7423 307.152 83.1433 307.347C83.5444 307.543 83.8725 307.773 84.1277 308.038C84.3829 308.3 84.5702 308.595 84.6895 308.923C84.8121 309.251 84.8751 309.609 84.8784 309.997C84.8751 310.667 84.7077 311.233 84.3763 311.697C84.0448 312.161 83.5709 312.514 82.9544 312.756C82.3412 312.998 81.6038 313.119 80.7421 313.119C79.8571 313.119 79.0849 312.988 78.4253 312.727C77.769 312.465 77.2586 312.062 76.894 311.518C76.5328 310.972 76.3505 310.272 76.3472 309.42H78.9722C78.9887 309.732 79.0666 309.994 79.2058 310.206C79.345 310.418 79.5406 310.579 79.7925 310.688C80.0477 310.798 80.351 310.852 80.7023 310.852C80.9973 310.852 81.2442 310.816 81.443 310.743C81.6419 310.67 81.7927 310.569 81.8955 310.44C81.9982 310.31 82.0512 310.163 82.0546 309.997C82.0512 309.841 81.9999 309.705 81.9004 309.589C81.8043 309.47 81.6452 309.364 81.4232 309.271C81.2011 309.175 80.9011 309.086 80.5233 309.003L79.5091 308.784C78.6076 308.589 77.8966 308.262 77.3763 307.805C76.8592 307.344 76.6024 306.716 76.6057 305.92C76.6024 305.274 76.7747 304.709 77.1227 304.225C77.4741 303.738 77.9596 303.358 78.5794 303.087C79.2025 302.815 79.9168 302.679 80.7222 302.679C81.5441 302.679 82.2551 302.817 82.855 303.092C83.4549 303.367 83.9172 303.754 84.2421 304.255C84.5702 304.752 84.7359 305.334 84.7392 306H82.0943Z" fill="#005942"/>
<path d="M75.2955 302.818V313H72.5312V302.818H75.2955Z" fill="#005942"/>
<path d="M68.3292 306.179C68.2861 306.003 68.2182 305.849 68.1254 305.717C68.0326 305.581 67.9166 305.466 67.7774 305.374C67.6415 305.277 67.4824 305.206 67.3001 305.16C67.1211 305.11 66.9239 305.085 66.7085 305.085C66.2445 305.085 65.8484 305.196 65.5203 305.418C65.1955 305.64 64.9469 305.96 64.7745 306.378C64.6055 306.795 64.521 307.299 64.521 307.889C64.521 308.486 64.6022 308.996 64.7646 309.42C64.927 309.845 65.169 310.169 65.4905 310.395C65.812 310.62 66.2113 310.733 66.6886 310.733C67.1095 310.733 67.4592 310.672 67.7376 310.549C68.0193 310.426 68.2298 310.252 68.369 310.027C68.5082 309.802 68.5778 309.536 68.5778 309.232L69.0551 309.281H66.7284V307.312H71.2426V308.724C71.2426 309.652 71.0454 310.446 70.651 311.106C70.2599 311.762 69.7196 312.266 69.0302 312.617C68.3441 312.965 67.557 313.139 66.6687 313.139C65.6777 313.139 64.8077 312.929 64.0586 312.508C63.3096 312.087 62.7246 311.487 62.3037 310.708C61.8861 309.929 61.6772 309.003 61.6772 307.929C61.6772 307.087 61.8049 306.341 62.0601 305.692C62.3186 305.042 62.6765 304.494 63.1339 304.046C63.5913 303.595 64.12 303.256 64.7199 303.027C65.3198 302.795 65.9628 302.679 66.6488 302.679C67.2521 302.679 67.8122 302.765 68.3292 302.937C68.8496 303.107 69.3086 303.348 69.7064 303.663C70.1074 303.975 70.4306 304.344 70.6758 304.772C70.9211 305.2 71.0702 305.669 71.1233 306.179H68.3292Z" fill="#005942"/>
<path d="M53.0078 313V302.818H60.3459V305.045H55.772V306.795H59.968V309.023H55.772V310.773H60.326V313H53.0078Z" fill="#005942"/>
<path d="M43.6562 313V302.818H48.0511C48.8068 302.818 49.468 302.956 50.0348 303.231C50.6016 303.506 51.0424 303.902 51.3572 304.419C51.6721 304.936 51.8295 305.556 51.8295 306.278C51.8295 307.008 51.6671 307.622 51.3423 308.123C51.0208 308.623 50.5684 309.001 49.9851 309.256C49.4051 309.512 48.7273 309.639 47.9517 309.639H45.3267V307.491H47.3949C47.7197 307.491 47.9964 307.452 48.2251 307.372C48.4571 307.289 48.6345 307.158 48.7571 306.979C48.883 306.8 48.946 306.567 48.946 306.278C48.946 305.987 48.883 305.75 48.7571 305.567C48.6345 305.382 48.4571 305.246 48.2251 305.16C47.9964 305.07 47.7197 305.026 47.3949 305.026H46.4205V313H43.6562ZM49.6222 308.327L52.1676 313H49.1648L46.679 308.327H49.6222Z" fill="#005942"/>
<path d="M364.031 184.455H366.133L371.076 196.528H371.247L376.19 184.455H378.292V199H376.644V187.949H376.502L371.957 199H370.366L365.821 187.949H365.678V199H364.031V184.455Z" fill="white"/>
<path d="M351.335 199V184.455H356.25C357.391 184.455 358.324 184.66 359.049 185.072C359.778 185.48 360.317 186.031 360.668 186.727C361.018 187.423 361.193 188.2 361.193 189.057C361.193 189.914 361.018 190.693 360.668 191.393C360.322 192.094 359.787 192.653 359.063 193.07C358.338 193.482 357.41 193.687 356.279 193.687H352.756V192.125H356.222C357.003 192.125 357.63 191.99 358.104 191.72C358.577 191.45 358.921 191.086 359.134 190.626C359.352 190.162 359.46 189.639 359.46 189.057C359.46 188.474 359.352 187.954 359.134 187.494C358.921 187.035 358.575 186.675 358.097 186.415C357.619 186.15 356.984 186.017 356.193 186.017H353.097V199H351.335Z" fill="white"/>
<path d="M337.699 199.199C336.629 199.199 335.718 198.908 334.965 198.325C334.212 197.738 333.637 196.888 333.239 195.776C332.841 194.658 332.643 193.309 332.643 191.727C332.643 190.155 332.841 188.813 333.239 187.7C333.642 186.583 334.219 185.731 334.972 185.143C335.73 184.552 336.639 184.256 337.699 184.256C338.76 184.256 339.667 184.552 340.42 185.143C341.177 185.731 341.755 186.583 342.153 187.7C342.555 188.813 342.756 190.155 342.756 191.727C342.756 193.309 342.557 194.658 342.16 195.776C341.762 196.888 341.187 197.738 340.434 198.325C339.681 198.908 338.769 199.199 337.699 199.199ZM337.699 197.636C338.76 197.636 339.584 197.125 340.171 196.102C340.758 195.08 341.052 193.621 341.052 191.727C341.052 190.468 340.917 189.395 340.647 188.51C340.382 187.625 339.998 186.95 339.496 186.486C338.999 186.022 338.4 185.79 337.699 185.79C336.648 185.79 335.827 186.308 335.235 187.345C334.643 188.377 334.347 189.838 334.347 191.727C334.347 192.987 334.48 194.057 334.745 194.937C335.01 195.818 335.391 196.488 335.888 196.947C336.39 197.407 336.994 197.636 337.699 197.636Z" fill="white"/>
<path d="M325.199 199.199C324.129 199.199 323.218 198.908 322.465 198.325C321.712 197.738 321.137 196.888 320.739 195.776C320.341 194.658 320.143 193.309 320.143 191.727C320.143 190.155 320.341 188.813 320.739 187.7C321.142 186.583 321.719 185.731 322.472 185.143C323.23 184.552 324.139 184.256 325.199 184.256C326.26 184.256 327.167 184.552 327.92 185.143C328.677 185.731 329.255 186.583 329.653 187.7C330.055 188.813 330.256 190.155 330.256 191.727C330.256 193.309 330.057 194.658 329.66 195.776C329.262 196.888 328.687 197.738 327.934 198.325C327.181 198.908 326.269 199.199 325.199 199.199ZM325.199 197.636C326.26 197.636 327.084 197.125 327.671 196.102C328.258 195.08 328.552 193.621 328.552 191.727C328.552 190.468 328.417 189.395 328.147 188.51C327.882 187.625 327.498 186.95 326.996 186.486C326.499 186.022 325.9 185.79 325.199 185.79C324.148 185.79 323.327 186.308 322.735 187.345C322.143 188.377 321.847 189.838 321.847 191.727C321.847 192.987 321.98 194.057 322.245 194.937C322.51 195.818 322.891 196.488 323.388 196.947C323.89 197.407 324.494 197.636 325.199 197.636Z" fill="white"/>
<path d="M316.197 197.139C315.846 197.139 315.546 197.014 315.295 196.763C315.044 196.512 314.918 196.211 314.918 195.861C314.918 195.51 315.044 195.21 315.295 194.959C315.546 194.708 315.846 194.582 316.197 194.582C316.547 194.582 316.848 194.708 317.099 194.959C317.35 195.21 317.475 195.51 317.475 195.861C317.475 196.093 317.416 196.306 317.298 196.5C317.184 196.694 317.03 196.85 316.836 196.969C316.647 197.082 316.434 197.139 316.197 197.139ZM316.197 189.781C315.846 189.781 315.546 189.656 315.295 189.405C315.044 189.154 314.918 188.853 314.918 188.503C314.918 188.152 315.044 187.852 315.295 187.601C315.546 187.35 315.846 187.224 316.197 187.224C316.547 187.224 316.848 187.35 317.099 187.601C317.35 187.852 317.475 188.152 317.475 188.503C317.475 188.735 317.416 188.948 317.298 189.142C317.184 189.336 317.03 189.492 316.836 189.611C316.647 189.724 316.434 189.781 316.197 189.781Z" fill="white"/>
<path d="M307.192 199.199C306.122 199.199 305.21 198.908 304.457 198.325C303.704 197.738 303.129 196.888 302.731 195.776C302.334 194.658 302.135 193.309 302.135 191.727C302.135 190.155 302.334 188.813 302.731 187.7C303.134 186.583 303.711 185.731 304.464 185.143C305.222 184.552 306.131 184.256 307.192 184.256C308.252 184.256 309.159 184.552 309.912 185.143C310.669 185.731 311.247 186.583 311.645 187.7C312.047 188.813 312.248 190.155 312.248 191.727C312.248 193.309 312.05 194.658 311.652 195.776C311.254 196.888 310.679 197.738 309.926 198.325C309.173 198.908 308.262 199.199 307.192 199.199ZM307.192 197.636C308.252 197.636 309.076 197.125 309.663 196.102C310.25 195.08 310.544 193.621 310.544 191.727C310.544 190.468 310.409 189.395 310.139 188.51C309.874 187.625 309.49 186.95 308.988 186.486C308.491 186.022 307.892 185.79 307.192 185.79C306.14 185.79 305.319 186.308 304.727 187.345C304.135 188.377 303.839 189.838 303.839 191.727C303.839 192.987 303.972 194.057 304.237 194.937C304.502 195.818 304.883 196.488 305.381 196.947C305.882 197.407 306.486 197.636 307.192 197.636Z" fill="white"/>
<path d="M298.264 184.455V199H296.503V186.301H296.417L292.866 188.659V186.869L296.503 184.455H298.264Z" fill="white"/>
<path d="M284.604 190.946V192.509H278.241V190.946H284.604Z" fill="white"/>
<path d="M255.164 184.455H257.266L262.209 196.528H262.379L267.323 184.455H269.425V199H267.777V187.949H267.635L263.09 199H261.499L256.953 187.949H256.811V199H255.164V184.455Z" fill="white"/>
<path d="M242.245 199H240.398L245.739 184.455H247.557L252.898 199H251.051L246.705 186.756H246.591L242.245 199ZM242.926 193.318H250.37V194.881H242.926V193.318Z" fill="white"/>
<path d="M228.012 199.199C226.942 199.199 226.03 198.908 225.278 198.325C224.525 197.738 223.949 196.888 223.552 195.776C223.154 194.658 222.955 193.309 222.955 191.727C222.955 190.155 223.154 188.813 223.552 187.7C223.954 186.583 224.532 185.731 225.285 185.143C226.042 184.552 226.951 184.256 228.012 184.256C229.073 184.256 229.979 184.552 230.732 185.143C231.49 185.731 232.067 186.583 232.465 187.7C232.867 188.813 233.069 190.155 233.069 191.727C233.069 193.309 232.87 194.658 232.472 195.776C232.074 196.888 231.499 197.738 230.746 198.325C229.993 198.908 229.082 199.199 228.012 199.199ZM228.012 197.636C229.073 197.636 229.896 197.125 230.483 196.102C231.071 195.08 231.364 193.621 231.364 191.727C231.364 190.468 231.229 189.395 230.959 188.51C230.694 187.625 230.311 186.95 229.809 186.486C229.312 186.022 228.713 185.79 228.012 185.79C226.961 185.79 226.139 186.308 225.547 187.345C224.956 188.377 224.66 189.838 224.66 191.727C224.66 192.987 224.792 194.057 225.057 194.937C225.323 195.818 225.704 196.488 226.201 196.947C226.703 197.407 227.306 197.636 228.012 197.636Z" fill="white"/>
<path d="M215.512 199.199C214.442 199.199 213.53 198.908 212.778 198.325C212.025 197.738 211.449 196.888 211.052 195.776C210.654 194.658 210.455 193.309 210.455 191.727C210.455 190.155 210.654 188.813 211.052 187.7C211.454 186.583 212.032 185.731 212.785 185.143C213.542 184.552 214.451 184.256 215.512 184.256C216.573 184.256 217.479 184.552 218.232 185.143C218.99 185.731 219.567 186.583 219.965 187.7C220.367 188.813 220.569 190.155 220.569 191.727C220.569 193.309 220.37 194.658 219.972 195.776C219.574 196.888 218.999 197.738 218.246 198.325C217.493 198.908 216.582 199.199 215.512 199.199ZM215.512 197.636C216.573 197.636 217.396 197.125 217.983 196.102C218.571 195.08 218.864 193.621 218.864 191.727C218.864 190.468 218.729 189.395 218.459 188.51C218.194 187.625 217.811 186.95 217.309 186.486C216.812 186.022 216.213 185.79 215.512 185.79C214.461 185.79 213.639 186.308 213.047 187.345C212.456 188.377 212.16 189.838 212.16 191.727C212.16 192.987 212.292 194.057 212.557 194.937C212.823 195.818 213.204 196.488 213.701 196.947C214.203 197.407 214.806 197.636 215.512 197.636Z" fill="white"/>
<path d="M206.509 197.139C206.159 197.139 205.858 197.014 205.607 196.763C205.356 196.512 205.231 196.211 205.231 195.861C205.231 195.51 205.356 195.21 205.607 194.959C205.858 194.708 206.159 194.582 206.509 194.582C206.86 194.582 207.16 194.708 207.411 194.959C207.662 195.21 207.788 195.51 207.788 195.861C207.788 196.093 207.729 196.306 207.61 196.5C207.497 196.694 207.343 196.85 207.149 196.969C206.959 197.082 206.746 197.139 206.509 197.139ZM206.509 189.781C206.159 189.781 205.858 189.656 205.607 189.405C205.356 189.154 205.231 188.853 205.231 188.503C205.231 188.152 205.356 187.852 205.607 187.601C205.858 187.35 206.159 187.224 206.509 187.224C206.86 187.224 207.16 187.35 207.411 187.601C207.662 187.852 207.788 188.152 207.788 188.503C207.788 188.735 207.729 188.948 207.61 189.142C207.497 189.336 207.343 189.492 207.149 189.611C206.959 189.724 206.746 189.781 206.509 189.781Z" fill="white"/>
<path d="M197.595 199.199C196.619 199.199 195.758 199.026 195.009 198.68C194.266 198.33 193.686 197.849 193.269 197.239C192.853 196.623 192.647 195.922 192.652 195.136C192.647 194.521 192.768 193.953 193.014 193.432C193.26 192.906 193.596 192.468 194.022 192.118C194.453 191.763 194.934 191.538 195.464 191.443V191.358C194.768 191.178 194.214 190.787 193.802 190.186C193.39 189.58 193.187 188.891 193.191 188.119C193.187 187.381 193.374 186.72 193.752 186.138C194.131 185.555 194.652 185.096 195.315 184.76C195.982 184.424 196.742 184.256 197.595 184.256C198.437 184.256 199.19 184.424 199.853 184.76C200.516 185.096 201.037 185.555 201.416 186.138C201.799 186.72 201.993 187.381 201.998 188.119C201.993 188.891 201.783 189.58 201.366 190.186C200.954 190.787 200.407 191.178 199.725 191.358V191.443C200.251 191.538 200.724 191.763 201.146 192.118C201.567 192.468 201.903 192.906 202.154 193.432C202.405 193.953 202.533 194.521 202.538 195.136C202.533 195.922 202.32 196.623 201.899 197.239C201.482 197.849 200.902 198.33 200.159 198.68C199.42 199.026 198.565 199.199 197.595 199.199ZM197.595 197.636C198.253 197.636 198.821 197.53 199.299 197.317C199.777 197.104 200.147 196.803 200.407 196.415C200.668 196.027 200.8 195.572 200.805 195.051C200.8 194.502 200.658 194.017 200.379 193.595C200.099 193.174 199.718 192.842 199.235 192.601C198.757 192.359 198.21 192.239 197.595 192.239C196.974 192.239 196.42 192.359 195.933 192.601C195.45 192.842 195.069 193.174 194.789 193.595C194.515 194.017 194.38 194.502 194.384 195.051C194.38 195.572 194.505 196.027 194.761 196.415C195.021 196.803 195.393 197.104 195.876 197.317C196.359 197.53 196.932 197.636 197.595 197.636ZM197.595 190.733C198.116 190.733 198.577 190.629 198.98 190.42C199.387 190.212 199.706 189.921 199.938 189.547C200.17 189.173 200.289 188.735 200.294 188.233C200.289 187.741 200.173 187.312 199.946 186.947C199.718 186.578 199.403 186.294 199.001 186.095C198.598 185.892 198.13 185.79 197.595 185.79C197.05 185.79 196.574 185.892 196.167 186.095C195.76 186.294 195.445 186.578 195.223 186.947C195 187.312 194.891 187.741 194.896 188.233C194.891 188.735 195.002 189.173 195.23 189.547C195.462 189.921 195.781 190.212 196.188 190.42C196.596 190.629 197.064 190.733 197.595 190.733Z" fill="white"/>
<path d="M180.18 194.852C179.607 194.852 179.084 194.713 178.61 194.433C178.137 194.149 177.758 193.77 177.474 193.297C177.194 192.823 177.055 192.3 177.055 191.727C177.055 191.15 177.194 190.626 177.474 190.158C177.758 189.684 178.137 189.308 178.61 189.028C179.084 188.744 179.607 188.602 180.18 188.602C180.757 188.602 181.281 188.744 181.749 189.028C182.223 189.308 182.599 189.684 182.879 190.158C183.163 190.626 183.305 191.15 183.305 191.727C183.305 192.3 183.163 192.823 182.879 193.297C182.599 193.77 182.223 194.149 181.749 194.433C181.281 194.713 180.757 194.852 180.18 194.852Z" fill="white"/>
<path d="M157.262 196.017V194.568L163.654 184.455H164.705V186.699H163.995L159.166 194.341V194.455H167.774V196.017H157.262ZM164.109 199V195.577V194.902V184.455H165.785V199H164.109Z" fill="white"/>
<path d="M149.848 199.199C148.778 199.199 147.866 198.908 147.113 198.325C146.361 197.738 145.785 196.888 145.388 195.776C144.99 194.658 144.791 193.309 144.791 191.727C144.791 190.155 144.99 188.813 145.388 187.7C145.79 186.583 146.368 185.731 147.121 185.143C147.878 184.552 148.787 184.256 149.848 184.256C150.908 184.256 151.815 184.552 152.568 185.143C153.326 185.731 153.903 186.583 154.301 187.7C154.703 188.813 154.905 190.155 154.905 191.727C154.905 193.309 154.706 194.658 154.308 195.776C153.91 196.888 153.335 197.738 152.582 198.325C151.829 198.908 150.918 199.199 149.848 199.199ZM149.848 197.636C150.908 197.636 151.732 197.125 152.319 196.102C152.907 195.08 153.2 193.621 153.2 191.727C153.2 190.468 153.065 189.395 152.795 188.51C152.53 187.625 152.147 186.95 151.645 186.486C151.148 186.022 150.549 185.79 149.848 185.79C148.797 185.79 147.975 186.308 147.383 187.345C146.791 188.377 146.496 189.838 146.496 191.727C146.496 192.987 146.628 194.057 146.893 194.937C147.158 195.818 147.54 196.488 148.037 196.947C148.539 197.407 149.142 197.636 149.848 197.636Z" fill="white"/>
<path d="M137.348 199.199C136.278 199.199 135.366 198.908 134.613 198.325C133.861 197.738 133.285 196.888 132.888 195.776C132.49 194.658 132.291 193.309 132.291 191.727C132.291 190.155 132.49 188.813 132.888 187.7C133.29 186.583 133.868 185.731 134.621 185.143C135.378 184.552 136.287 184.256 137.348 184.256C138.408 184.256 139.315 184.552 140.068 185.143C140.826 185.731 141.403 186.583 141.801 187.7C142.203 188.813 142.405 190.155 142.405 191.727C142.405 193.309 142.206 194.658 141.808 195.776C141.41 196.888 140.835 197.738 140.082 198.325C139.329 198.908 138.418 199.199 137.348 199.199ZM137.348 197.636C138.408 197.636 139.232 197.125 139.819 196.102C140.407 195.08 140.7 193.621 140.7 191.727C140.7 190.468 140.565 189.395 140.295 188.51C140.03 187.625 139.647 186.95 139.145 186.486C138.648 186.022 138.049 185.79 137.348 185.79C136.297 185.79 135.475 186.308 134.883 187.345C134.291 188.377 133.996 189.838 133.996 191.727C133.996 192.987 134.128 194.057 134.393 194.937C134.658 195.818 135.04 196.488 135.537 196.947C136.039 197.407 136.642 197.636 137.348 197.636Z" fill="white"/>
<path d="M120.494 199V197.722L125.295 192.466C125.859 191.85 126.323 191.315 126.687 190.861C127.052 190.402 127.322 189.971 127.497 189.568C127.677 189.161 127.767 188.735 127.767 188.29C127.767 187.778 127.644 187.336 127.398 186.962C127.156 186.588 126.825 186.299 126.403 186.095C125.982 185.892 125.508 185.79 124.983 185.79C124.424 185.79 123.936 185.906 123.52 186.138C123.108 186.365 122.788 186.685 122.561 187.097C122.338 187.509 122.227 187.991 122.227 188.545H120.551C120.551 187.693 120.747 186.945 121.14 186.301C121.533 185.657 122.068 185.155 122.746 184.795C123.427 184.436 124.192 184.256 125.04 184.256C125.892 184.256 126.647 184.436 127.305 184.795C127.963 185.155 128.479 185.641 128.854 186.251C129.228 186.862 129.415 187.542 129.415 188.29C129.415 188.825 129.318 189.348 129.123 189.859C128.934 190.366 128.603 190.932 128.129 191.557C127.66 192.177 127.009 192.935 126.176 193.83L122.909 197.324V197.437H129.67V199H120.494Z" fill="white"/>
<path d="M111.792 197.011L111.678 197.778C111.598 198.318 111.475 198.896 111.309 199.511C111.148 200.127 110.98 200.707 110.805 201.251C110.63 201.796 110.485 202.229 110.372 202.551H109.093C109.155 202.248 109.235 201.848 109.335 201.351C109.434 200.854 109.534 200.297 109.633 199.682C109.737 199.071 109.822 198.446 109.889 197.807L109.974 197.011H111.792Z" fill="white"/>
<path d="M105.94 184.455V199H104.178V186.301H104.093L100.542 188.659V186.869L104.178 184.455H105.94Z" fill="white"/>
<path d="M83.5034 199V184.455H92.2818V186.017H85.2648V190.932H91.8273V192.494H85.2648V197.437H92.3955V199H83.5034Z" fill="white"/>
<path d="M79.9789 184.455V199H78.2744L70.3482 187.58H70.2062V199H68.4448V184.455H70.1494L78.1039 195.903H78.246V184.455H79.9789Z" fill="white"/>
<path d="M63.1661 184.455H64.9274V194.085C64.9274 195.08 64.693 195.967 64.2243 196.749C63.7603 197.525 63.1045 198.138 62.257 198.588C61.4094 199.033 60.4151 199.256 59.274 199.256C58.1329 199.256 57.1386 199.033 56.2911 198.588C55.4435 198.138 54.7854 197.525 54.3166 196.749C53.8526 195.967 53.6206 195.08 53.6206 194.085V184.455H55.382V193.943C55.382 194.653 55.5382 195.285 55.8507 195.839C56.1632 196.389 56.6083 196.822 57.1859 197.139C57.7683 197.452 58.4644 197.608 59.274 197.608C60.0837 197.608 60.7797 197.452 61.3621 197.139C61.9445 196.822 62.3895 196.389 62.6973 195.839C63.0098 195.285 63.1661 194.653 63.1661 193.943V184.455Z" fill="white"/>
<path d="M48.3294 184.455H50.0908V194.852C50.0908 195.78 49.9203 196.569 49.5794 197.217C49.2385 197.866 48.7579 198.358 48.1377 198.695C47.5174 199.031 46.7859 199.199 45.943 199.199C45.1476 199.199 44.4397 199.054 43.8195 198.766C43.1992 198.472 42.7115 198.055 42.3564 197.516C42.0013 196.976 41.8237 196.334 41.8237 195.591H43.5567C43.5567 196.003 43.6585 196.363 43.8621 196.67C44.0704 196.973 44.3545 197.21 44.7144 197.381C45.0742 197.551 45.4838 197.636 45.943 197.636C46.4497 197.636 46.8805 197.53 47.2357 197.317C47.5908 197.104 47.8607 196.791 48.0453 196.379C48.2347 195.963 48.3294 195.454 48.3294 194.852V184.455Z" fill="white"/>
<path d="M548.902 253V238.818H551.007V240.96H551.155C551.414 240.258 551.882 239.689 552.559 239.252C553.236 238.815 553.999 238.597 554.848 238.597C555.008 238.597 555.208 238.6 555.448 238.606C555.689 238.612 555.87 238.621 555.993 238.633V240.849C555.919 240.831 555.75 240.803 555.485 240.766C555.227 240.723 554.953 240.702 554.664 240.702C553.974 240.702 553.359 240.846 552.817 241.136C552.282 241.419 551.857 241.813 551.543 242.317C551.235 242.816 551.081 243.385 551.081 244.026V253H548.902Z" fill="white"/>
<path d="M539.716 253.295C538.349 253.295 537.171 252.994 536.18 252.391C535.195 251.781 534.434 250.932 533.899 249.842C533.37 248.747 533.105 247.473 533.105 246.02C533.105 244.567 533.37 243.287 533.899 242.179C534.434 241.065 535.179 240.197 536.133 239.575C537.094 238.947 538.214 238.634 539.494 238.634C540.233 238.634 540.962 238.757 541.682 239.003C542.403 239.249 543.058 239.649 543.649 240.203C544.24 240.751 544.711 241.477 545.062 242.382C545.412 243.287 545.588 244.401 545.588 245.724V246.648H534.656V244.764H543.372C543.372 243.964 543.212 243.25 542.892 242.622C542.578 241.994 542.129 241.499 541.544 241.136C540.965 240.773 540.282 240.591 539.494 240.591C538.626 240.591 537.875 240.806 537.241 241.237C536.613 241.662 536.13 242.216 535.792 242.899C535.453 243.582 535.284 244.315 535.284 245.097V246.352C535.284 247.423 535.469 248.331 535.838 249.076C536.213 249.815 536.734 250.378 537.398 250.766C538.063 251.147 538.836 251.338 539.716 251.338C540.288 251.338 540.805 251.258 541.267 251.098C541.735 250.932 542.138 250.686 542.476 250.359C542.815 250.027 543.077 249.615 543.261 249.122L545.366 249.713C545.145 250.427 544.772 251.055 544.249 251.597C543.726 252.132 543.08 252.551 542.31 252.852C541.541 253.148 540.676 253.295 539.716 253.295Z" fill="white"/>
<path d="M530.644 238.818V240.665H523.295V238.818H530.644ZM525.437 235.42H527.616V248.938C527.616 249.553 527.705 250.015 527.884 250.322C528.068 250.624 528.302 250.827 528.585 250.932C528.875 251.03 529.179 251.08 529.499 251.08C529.74 251.08 529.936 251.067 530.09 251.043C530.244 251.012 530.367 250.987 530.46 250.969L530.903 252.926C530.755 252.982 530.549 253.037 530.284 253.092C530.02 253.154 529.684 253.185 529.278 253.185C528.662 253.185 528.059 253.052 527.468 252.788C526.883 252.523 526.397 252.12 526.009 251.578C525.628 251.036 525.437 250.353 525.437 249.528V235.42Z" fill="white"/>
<path d="M511.447 244.469V253H509.268V238.818H511.373V241.034H511.557C511.89 240.314 512.394 239.735 513.072 239.298C513.749 238.855 514.623 238.634 515.694 238.634C516.654 238.634 517.494 238.831 518.214 239.224C518.934 239.612 519.495 240.203 519.895 240.997C520.295 241.785 520.495 242.782 520.495 243.989V253H518.316V244.136C518.316 243.022 518.027 242.154 517.448 241.533C516.869 240.905 516.075 240.591 515.066 240.591C514.37 240.591 513.749 240.742 513.201 241.043C512.659 241.345 512.231 241.785 511.917 242.364C511.603 242.942 511.447 243.644 511.447 244.469Z" fill="white"/>
<path d="M500.081 253.295C498.715 253.295 497.536 252.994 496.545 252.391C495.56 251.781 494.8 250.932 494.264 249.842C493.735 248.747 493.47 247.473 493.47 246.02C493.47 244.567 493.735 243.287 494.264 242.179C494.8 241.065 495.545 240.197 496.499 239.575C497.459 238.947 498.579 238.634 499.859 238.634C500.598 238.634 501.327 238.757 502.048 239.003C502.768 239.249 503.423 239.649 504.014 240.203C504.605 240.751 505.076 241.477 505.427 242.382C505.778 243.287 505.953 244.401 505.953 245.724V246.648H495.021V244.764H503.737C503.737 243.964 503.577 243.25 503.257 242.622C502.943 241.994 502.494 241.499 501.909 241.136C501.331 240.773 500.647 240.591 499.859 240.591C498.992 240.591 498.241 240.806 497.607 241.237C496.979 241.662 496.496 242.216 496.157 242.899C495.818 243.582 495.649 244.315 495.649 245.097V246.352C495.649 247.423 495.834 248.331 496.203 249.076C496.579 249.815 497.099 250.378 497.764 250.766C498.428 251.147 499.201 251.338 500.081 251.338C500.653 251.338 501.17 251.258 501.632 251.098C502.1 250.932 502.503 250.686 502.842 250.359C503.18 250.027 503.442 249.615 503.626 249.122L505.732 249.713C505.51 250.427 505.138 251.055 504.614 251.597C504.091 252.132 503.445 252.551 502.675 252.852C501.906 253.148 501.041 253.295 500.081 253.295Z" fill="white"/>
<path d="M490.73 240H488.441C488.305 239.341 488.068 238.763 487.73 238.264C487.397 237.766 486.991 237.347 486.511 237.009C486.037 236.664 485.511 236.405 484.932 236.233C484.354 236.061 483.75 235.974 483.122 235.974C481.978 235.974 480.94 236.264 480.011 236.842C479.088 237.421 478.352 238.273 477.804 239.4C477.263 240.526 476.992 241.908 476.992 243.545C476.992 245.183 477.263 246.565 477.804 247.691C478.352 248.817 479.088 249.67 480.011 250.249C480.94 250.827 481.978 251.116 483.122 251.116C483.75 251.116 484.354 251.03 484.932 250.858C485.511 250.686 486.037 250.43 486.511 250.092C486.991 249.747 487.397 249.325 487.73 248.827C488.068 248.322 488.305 247.743 488.441 247.091H490.73C490.558 248.057 490.244 248.922 489.789 249.685C489.333 250.449 488.767 251.098 488.09 251.634C487.413 252.163 486.653 252.566 485.809 252.843C484.972 253.12 484.077 253.259 483.122 253.259C481.51 253.259 480.076 252.865 478.82 252.077C477.564 251.289 476.576 250.169 475.856 248.716C475.136 247.263 474.776 245.54 474.776 243.545C474.776 241.551 475.136 239.828 475.856 238.375C476.576 236.922 477.564 235.802 478.82 235.014C480.076 234.226 481.51 233.832 483.122 233.832C484.077 233.832 484.972 233.971 485.809 234.248C486.653 234.525 487.413 234.931 488.09 235.467C488.767 235.996 489.333 236.642 489.789 237.406C490.244 238.163 490.558 239.027 490.73 240Z" fill="white"/>
<path d="M454.876 244.469V253H452.697V238.818H454.802V241.034H454.987C455.319 240.314 455.824 239.735 456.501 239.298C457.178 238.855 458.052 238.634 459.123 238.634C460.084 238.634 460.924 238.831 461.644 239.224C462.364 239.612 462.924 240.203 463.324 240.997C463.724 241.785 463.925 242.782 463.925 243.989V253H461.746V244.136C461.746 243.022 461.456 242.154 460.878 241.533C460.299 240.905 459.505 240.591 458.496 240.591C457.8 240.591 457.178 240.742 456.63 241.043C456.089 241.345 455.661 241.785 455.347 242.364C455.033 242.942 454.876 243.644 454.876 244.469Z" fill="white"/>
<path d="M442.945 253.295C441.665 253.295 440.542 252.991 439.575 252.381C438.615 251.772 437.864 250.92 437.322 249.824C436.787 248.728 436.519 247.448 436.519 245.983C436.519 244.506 436.787 243.216 437.322 242.114C437.864 241.013 438.615 240.157 439.575 239.548C440.542 238.938 441.665 238.634 442.945 238.634C444.225 238.634 445.346 238.938 446.306 239.548C447.272 240.157 448.023 241.013 448.559 242.114C449.1 243.216 449.371 244.506 449.371 245.983C449.371 247.448 449.1 248.728 448.559 249.824C448.023 250.92 447.272 251.772 446.306 252.381C445.346 252.991 444.225 253.295 442.945 253.295ZM442.945 251.338C443.918 251.338 444.718 251.089 445.346 250.59C445.974 250.092 446.438 249.436 446.74 248.624C447.042 247.811 447.192 246.931 447.192 245.983C447.192 245.035 447.042 244.152 446.74 243.333C446.438 242.514 445.974 241.853 445.346 241.348C444.718 240.843 443.918 240.591 442.945 240.591C441.973 240.591 441.172 240.843 440.545 241.348C439.917 241.853 439.452 242.514 439.15 243.333C438.849 244.152 438.698 245.035 438.698 245.983C438.698 246.931 438.849 247.811 439.15 248.624C439.452 249.436 439.917 250.092 440.545 250.59C441.172 251.089 441.973 251.338 442.945 251.338Z" fill="white"/>
<path d="M431.014 253V238.818H433.193V253H431.014ZM432.122 236.455C431.697 236.455 431.331 236.31 431.023 236.021C430.722 235.731 430.571 235.384 430.571 234.977C430.571 234.571 430.722 234.223 431.023 233.934C431.331 233.645 431.697 233.5 432.122 233.5C432.547 233.5 432.91 233.645 433.211 233.934C433.519 234.223 433.673 234.571 433.673 234.977C433.673 235.384 433.519 235.731 433.211 236.021C432.91 236.31 432.547 236.455 432.122 236.455Z" fill="white"/>
<path d="M427.736 238.818V240.665H420.387V238.818H427.736ZM422.529 235.42H424.708V248.938C424.708 249.553 424.797 250.015 424.975 250.322C425.16 250.624 425.394 250.827 425.677 250.932C425.967 251.03 426.271 251.08 426.591 251.08C426.831 251.08 427.028 251.067 427.182 251.043C427.336 251.012 427.459 250.987 427.551 250.969L427.995 252.926C427.847 252.982 427.641 253.037 427.376 253.092C427.111 253.154 426.776 253.185 426.37 253.185C425.754 253.185 425.151 253.052 424.56 252.788C423.975 252.523 423.489 252.12 423.101 251.578C422.72 251.036 422.529 250.353 422.529 249.528V235.42Z" fill="white"/>
<path d="M408.538 244.469V253H406.359V238.818H408.464V241.034H408.649C408.982 240.314 409.486 239.735 410.163 239.298C410.84 238.855 411.714 238.634 412.785 238.634C413.746 238.634 414.586 238.831 415.306 239.224C416.026 239.612 416.586 240.203 416.987 240.997C417.387 241.785 417.587 242.782 417.587 243.989V253H415.408V244.136C415.408 243.022 415.118 242.154 414.54 241.533C413.961 240.905 413.167 240.591 412.158 240.591C411.462 240.591 410.84 240.742 410.293 241.043C409.751 241.345 409.323 241.785 409.009 242.364C408.695 242.942 408.538 243.644 408.538 244.469Z" fill="white"/>
<path d="M397.173 253.295C395.806 253.295 394.628 252.994 393.637 252.391C392.652 251.781 391.892 250.932 391.356 249.842C390.827 248.747 390.562 247.473 390.562 246.02C390.562 244.567 390.827 243.287 391.356 242.179C391.892 241.065 392.636 240.197 393.59 239.575C394.551 238.947 395.671 238.634 396.951 238.634C397.69 238.634 398.419 238.757 399.139 239.003C399.86 239.249 400.515 239.649 401.106 240.203C401.697 240.751 402.168 241.477 402.519 242.382C402.87 243.287 403.045 244.401 403.045 245.724V246.648H392.113V244.764H400.829C400.829 243.964 400.669 243.25 400.349 242.622C400.035 241.994 399.586 241.499 399.001 241.136C398.422 240.773 397.739 240.591 396.951 240.591C396.083 240.591 395.332 240.806 394.698 241.237C394.071 241.662 393.587 242.216 393.249 242.899C392.91 243.582 392.741 244.315 392.741 245.097V246.352C392.741 247.423 392.926 248.331 393.295 249.076C393.67 249.815 394.191 250.378 394.855 250.766C395.52 251.147 396.293 251.338 397.173 251.338C397.745 251.338 398.262 251.258 398.724 251.098C399.192 250.932 399.595 250.686 399.933 250.359C400.272 250.027 400.534 249.615 400.718 249.122L402.823 249.713C402.602 250.427 402.229 251.055 401.706 251.597C401.183 252.132 400.537 252.551 399.767 252.852C398.998 253.148 398.133 253.295 397.173 253.295Z" fill="white"/>
<path d="M388.858 238.818L383.614 253H381.398L376.154 238.818H378.517L382.432 250.119H382.58L386.495 238.818H388.858Z" fill="white"/>
<path d="M364.74 244.469V253H362.561V238.818H364.666V241.034H364.85C365.183 240.314 365.687 239.735 366.365 239.298C367.042 238.855 367.916 238.634 368.987 238.634C369.947 238.634 370.787 238.831 371.507 239.224C372.227 239.612 372.788 240.203 373.188 240.997C373.588 241.785 373.788 242.782 373.788 243.989V253H371.609V244.136C371.609 243.022 371.32 242.154 370.741 241.533C370.162 240.905 369.368 240.591 368.359 240.591C367.663 240.591 367.042 240.742 366.494 241.043C365.952 241.345 365.524 241.785 365.21 242.364C364.896 242.942 364.74 243.644 364.74 244.469Z" fill="white"/>
<path d="M352.808 253.295C351.528 253.295 350.405 252.991 349.438 252.381C348.478 251.772 347.727 250.92 347.186 249.824C346.65 248.728 346.382 247.448 346.382 245.983C346.382 244.506 346.65 243.216 347.186 242.114C347.727 241.013 348.478 240.157 349.438 239.548C350.405 238.938 351.528 238.634 352.808 238.634C354.089 238.634 355.209 238.938 356.169 239.548C357.136 240.157 357.887 241.013 358.422 242.114C358.964 243.216 359.235 244.506 359.235 245.983C359.235 247.448 358.964 248.728 358.422 249.824C357.887 250.92 357.136 251.772 356.169 252.381C355.209 252.991 354.089 253.295 352.808 253.295ZM352.808 251.338C353.781 251.338 354.581 251.089 355.209 250.59C355.837 250.092 356.302 249.436 356.603 248.624C356.905 247.811 357.056 246.931 357.056 245.983C357.056 245.035 356.905 244.152 356.603 243.333C356.302 242.514 355.837 241.853 355.209 241.348C354.581 240.843 353.781 240.591 352.808 240.591C351.836 240.591 351.036 240.843 350.408 241.348C349.78 241.853 349.315 242.514 349.014 243.333C348.712 244.152 348.561 245.035 348.561 245.983C348.561 246.931 348.712 247.811 349.014 248.624C349.315 249.436 349.78 250.092 350.408 250.59C351.036 251.089 351.836 251.338 352.808 251.338Z" fill="white"/>
<path d="M343.643 240H341.353C341.217 239.341 340.98 238.763 340.642 238.264C340.309 237.766 339.903 237.347 339.423 237.009C338.949 236.664 338.423 236.405 337.844 236.233C337.266 236.061 336.662 235.974 336.035 235.974C334.89 235.974 333.853 236.264 332.923 236.842C332 237.421 331.264 238.273 330.716 239.4C330.175 240.526 329.904 241.908 329.904 243.545C329.904 245.183 330.175 246.565 330.716 247.691C331.264 248.817 332 249.67 332.923 250.249C333.853 250.827 334.89 251.116 336.035 251.116C336.662 251.116 337.266 251.03 337.844 250.858C338.423 250.686 338.949 250.43 339.423 250.092C339.903 249.747 340.309 249.325 340.642 248.827C340.98 248.322 341.217 247.743 341.353 247.091H343.643C343.47 248.057 343.156 248.922 342.701 249.685C342.245 250.449 341.679 251.098 341.002 251.634C340.325 252.163 339.565 252.566 338.721 252.843C337.884 253.12 336.989 253.259 336.035 253.259C334.422 253.259 332.988 252.865 331.732 252.077C330.476 251.289 329.488 250.169 328.768 248.716C328.048 247.263 327.688 245.54 327.688 243.545C327.688 241.551 328.048 239.828 328.768 238.375C329.488 236.922 330.476 235.802 331.732 235.014C332.988 234.226 334.422 233.832 336.035 233.832C336.989 233.832 337.884 233.971 338.721 234.248C339.565 234.525 340.325 234.931 341.002 235.467C341.679 235.996 342.245 236.642 342.701 237.406C343.156 238.163 343.47 239.027 343.643 240Z" fill="white"/>
<path d="M311.066 253.295C309.786 253.295 308.663 252.991 307.696 252.381C306.736 251.772 305.985 250.92 305.443 249.824C304.908 248.728 304.64 247.448 304.64 245.983C304.64 244.506 304.908 243.216 305.443 242.114C305.985 241.013 306.736 240.157 307.696 239.548C308.663 238.938 309.786 238.634 311.066 238.634C312.347 238.634 313.467 238.938 314.427 239.548C315.393 240.157 316.144 241.013 316.68 242.114C317.222 243.216 317.492 244.506 317.492 245.983C317.492 247.448 317.222 248.728 316.68 249.824C316.144 250.92 315.393 251.772 314.427 252.381C313.467 252.991 312.347 253.295 311.066 253.295ZM311.066 251.338C312.039 251.338 312.839 251.089 313.467 250.59C314.095 250.092 314.559 249.436 314.861 248.624C315.163 247.811 315.313 246.931 315.313 245.983C315.313 245.035 315.163 244.152 314.861 243.333C314.559 242.514 314.095 241.853 313.467 241.348C312.839 240.843 312.039 240.591 311.066 240.591C310.094 240.591 309.294 240.843 308.666 241.348C308.038 241.853 307.573 242.514 307.272 243.333C306.97 244.152 306.819 245.035 306.819 245.983C306.819 246.931 306.97 247.811 307.272 248.624C307.573 249.436 308.038 250.092 308.666 250.59C309.294 251.089 310.094 251.338 311.066 251.338Z" fill="white"/>
<path d="M294.512 253.295C293.33 253.295 292.286 252.997 291.382 252.4C290.477 251.797 289.769 250.947 289.258 249.852C288.747 248.75 288.492 247.448 288.492 245.946C288.492 244.456 288.747 243.164 289.258 242.068C289.769 240.973 290.48 240.126 291.391 239.529C292.302 238.932 293.354 238.634 294.549 238.634C295.472 238.634 296.201 238.787 296.737 239.095C297.278 239.397 297.691 239.742 297.974 240.129C298.263 240.511 298.488 240.825 298.648 241.071H298.833V234.091H301.012V253H298.906V250.821H298.648C298.488 251.08 298.26 251.406 297.965 251.8C297.669 252.188 297.248 252.535 296.7 252.843C296.152 253.145 295.423 253.295 294.512 253.295ZM294.807 251.338C295.681 251.338 296.42 251.11 297.023 250.655C297.626 250.193 298.085 249.556 298.399 248.744C298.713 247.925 298.87 246.98 298.87 245.909C298.87 244.85 298.716 243.924 298.408 243.13C298.1 242.33 297.645 241.708 297.041 241.265C296.438 240.816 295.693 240.591 294.807 240.591C293.884 240.591 293.114 240.828 292.499 241.302C291.889 241.77 291.431 242.407 291.123 243.213C290.821 244.013 290.671 244.912 290.671 245.909C290.671 246.919 290.825 247.836 291.132 248.661C291.446 249.479 291.908 250.132 292.517 250.618C293.133 251.098 293.896 251.338 294.807 251.338Z" fill="white"/>
<path d="M276.126 244.469V253H273.947V238.818H276.052V241.034H276.237C276.569 240.314 277.074 239.735 277.751 239.298C278.428 238.855 279.302 238.634 280.373 238.634C281.334 238.634 282.174 238.831 282.894 239.224C283.614 239.612 284.174 240.203 284.574 240.997C284.974 241.785 285.175 242.782 285.175 243.989V253H282.996V244.136C282.996 243.022 282.706 242.154 282.128 241.533C281.549 240.905 280.755 240.591 279.746 240.591C279.05 240.591 278.428 240.742 277.88 241.043C277.339 241.345 276.911 241.785 276.597 242.364C276.283 242.942 276.126 243.644 276.126 244.469Z" fill="white"/>
<path d="M263.47 253.332C262.572 253.332 261.756 253.163 261.024 252.825C260.291 252.48 259.709 251.984 259.279 251.338C258.848 250.686 258.632 249.898 258.632 248.974C258.632 248.162 258.792 247.503 259.112 246.999C259.433 246.488 259.86 246.088 260.396 245.798C260.931 245.509 261.522 245.294 262.169 245.152C262.821 245.004 263.477 244.887 264.135 244.801C264.997 244.69 265.696 244.607 266.231 244.552C266.773 244.49 267.167 244.389 267.413 244.247C267.665 244.106 267.791 243.859 267.791 243.509V243.435C267.791 242.524 267.542 241.816 267.044 241.311C266.551 240.806 265.803 240.554 264.8 240.554C263.76 240.554 262.944 240.782 262.353 241.237C261.762 241.693 261.347 242.179 261.107 242.696L259.039 241.957C259.408 241.096 259.9 240.425 260.516 239.945C261.138 239.458 261.815 239.12 262.547 238.929C263.286 238.732 264.012 238.634 264.726 238.634C265.182 238.634 265.705 238.689 266.296 238.8C266.893 238.904 267.468 239.123 268.022 239.455C268.582 239.788 269.047 240.289 269.416 240.96C269.786 241.631 269.97 242.53 269.97 243.656V253H267.791V251.08H267.681C267.533 251.387 267.287 251.717 266.942 252.067C266.597 252.418 266.139 252.717 265.566 252.963C264.994 253.209 264.295 253.332 263.47 253.332ZM263.803 251.375C264.665 251.375 265.391 251.206 265.982 250.867C266.579 250.529 267.028 250.092 267.33 249.556C267.638 249.021 267.791 248.457 267.791 247.867V245.872C267.699 245.983 267.496 246.085 267.182 246.177C266.874 246.263 266.517 246.34 266.111 246.408C265.711 246.469 265.32 246.525 264.938 246.574C264.563 246.617 264.258 246.654 264.024 246.685C263.458 246.759 262.929 246.879 262.436 247.045C261.95 247.205 261.556 247.448 261.254 247.774C260.959 248.094 260.811 248.531 260.811 249.085C260.811 249.842 261.091 250.415 261.652 250.803C262.218 251.184 262.935 251.375 263.803 251.375Z" fill="white"/>
<path d="M255.306 234.091V253H253.127V234.091H255.306Z" fill="white"/>
<path d="M243.453 253V238.818H245.558V240.96H245.706C245.964 240.258 246.432 239.689 247.109 239.252C247.786 238.815 248.55 238.597 249.399 238.597C249.559 238.597 249.759 238.6 249.999 238.606C250.239 238.612 250.421 238.621 250.544 238.633V240.849C250.47 240.831 250.301 240.803 250.036 240.766C249.778 240.723 249.504 240.702 249.214 240.702C248.525 240.702 247.91 240.846 247.368 241.136C246.832 241.419 246.408 241.813 246.094 242.317C245.786 242.816 245.632 243.385 245.632 244.026V253H243.453Z" fill="white"/>
<path d="M239.899 243.545C239.899 245.54 239.539 247.263 238.818 248.716C238.098 250.169 237.11 251.289 235.855 252.077C234.599 252.865 233.165 253.259 231.552 253.259C229.939 253.259 228.505 252.865 227.25 252.077C225.994 251.289 225.006 250.169 224.286 248.716C223.566 247.263 223.206 245.54 223.206 243.545C223.206 241.551 223.566 239.828 224.286 238.375C225.006 236.922 225.994 235.802 227.25 235.014C228.505 234.226 229.939 233.832 231.552 233.832C233.165 233.832 234.599 234.226 235.855 235.014C237.11 235.802 238.098 236.922 238.818 238.375C239.539 239.828 239.899 241.551 239.899 243.545ZM237.683 243.545C237.683 241.908 237.409 240.526 236.861 239.4C236.319 238.273 235.584 237.421 234.654 236.842C233.731 236.264 232.697 235.974 231.552 235.974C230.407 235.974 229.37 236.264 228.441 236.842C227.517 237.421 226.782 238.273 226.234 239.4C225.692 240.526 225.421 241.908 225.421 243.545C225.421 245.183 225.692 246.565 226.234 247.691C226.782 248.817 227.517 249.67 228.441 250.249C229.37 250.827 230.407 251.116 231.552 251.116C232.697 251.116 233.731 250.827 234.654 250.249C235.584 249.67 236.319 248.817 236.861 247.691C237.409 246.565 237.683 245.183 237.683 243.545Z" fill="white"/>
<path d="M197.213 253.259C195.723 253.259 194.4 253.003 193.242 252.492C192.091 251.975 191.187 251.264 190.528 250.359C189.869 249.455 189.537 248.414 189.531 247.239H194.701C194.707 247.602 194.818 247.928 195.034 248.217C195.255 248.5 195.557 248.722 195.938 248.882C196.32 249.042 196.757 249.122 197.25 249.122C197.723 249.122 198.142 249.039 198.505 248.873C198.868 248.701 199.152 248.464 199.355 248.162C199.558 247.86 199.656 247.516 199.65 247.128C199.656 246.746 199.539 246.408 199.299 246.112C199.065 245.817 198.736 245.586 198.311 245.42C197.887 245.254 197.397 245.17 196.843 245.17H194.923V241.625H196.843C197.354 241.625 197.804 241.542 198.191 241.376C198.585 241.21 198.89 240.979 199.105 240.683C199.327 240.388 199.435 240.049 199.428 239.668C199.435 239.298 199.345 238.972 199.161 238.689C198.976 238.406 198.718 238.184 198.385 238.024C198.059 237.864 197.68 237.784 197.25 237.784C196.782 237.784 196.363 237.867 195.994 238.033C195.631 238.2 195.344 238.43 195.135 238.726C194.926 239.021 194.818 239.36 194.812 239.741H189.9C189.906 238.584 190.223 237.563 190.851 236.676C191.485 235.79 192.353 235.094 193.455 234.589C194.557 234.085 195.821 233.832 197.25 233.832C198.647 233.832 199.881 234.069 200.952 234.543C202.029 235.017 202.869 235.67 203.473 236.501C204.082 237.326 204.384 238.27 204.377 239.335C204.39 240.394 204.027 241.262 203.288 241.939C202.555 242.616 201.626 243.016 200.5 243.139V243.287C202.026 243.453 203.174 243.921 203.943 244.69C204.713 245.454 205.091 246.414 205.079 247.571C205.085 248.679 204.753 249.661 204.082 250.516C203.417 251.372 202.491 252.043 201.303 252.529C200.121 253.015 198.758 253.259 197.213 253.259Z" fill="white"/>
<path d="M173.017 253V249.307L180.071 243.472C180.539 243.084 180.939 242.721 181.272 242.382C181.61 242.037 181.869 241.683 182.047 241.32C182.232 240.957 182.324 240.554 182.324 240.111C182.324 239.625 182.219 239.209 182.01 238.864C181.807 238.52 181.524 238.255 181.161 238.07C180.798 237.88 180.379 237.784 179.905 237.784C179.431 237.784 179.013 237.88 178.649 238.07C178.292 238.261 178.015 238.541 177.818 238.911C177.621 239.28 177.523 239.729 177.523 240.259H172.648C172.648 238.929 172.946 237.784 173.544 236.824C174.141 235.864 174.984 235.125 176.073 234.608C177.163 234.091 178.44 233.832 179.905 233.832C181.419 233.832 182.73 234.076 183.838 234.562C184.952 235.042 185.811 235.719 186.414 236.593C187.024 237.467 187.328 238.492 187.328 239.668C187.328 240.394 187.178 241.117 186.876 241.837C186.574 242.551 186.033 243.342 185.251 244.21C184.469 245.078 183.358 246.112 181.918 247.313L180.145 248.79V248.901H187.531V253H173.017Z" fill="white"/>
<path d="M169.135 234.091V253H164.002V238.818H163.891L159.754 241.293V236.935L164.408 234.091H169.135Z" fill="white"/>
<path d="M149.926 253L153.028 234.091H156.721L153.619 253H149.926ZM141.542 248.679L142.17 244.986H157.386L156.758 248.679H141.542ZM143.278 253L146.381 234.091H150.074L146.971 253H143.278ZM142.614 242.105L143.241 238.412H158.457L157.829 242.105H142.614Z" fill="white"/>
<path d="M117.934 253V234.091H123.067V241.477H129.863V234.091H134.996V253H129.863V245.614H123.067V253H117.934Z" fill="white"/>
<path d="M99.5669 238.227V234.091H116.002V238.227H110.314V253H105.254V238.227H99.5669Z" fill="white"/>
<path d="M98.5976 243.545C98.5976 245.651 98.1883 247.426 97.3696 248.873C96.551 250.313 95.4461 251.406 94.055 252.151C92.6639 252.889 91.1128 253.259 89.4016 253.259C87.6781 253.259 86.1208 252.886 84.7297 252.141C83.3448 251.39 82.243 250.295 81.4243 248.854C80.6118 247.408 80.2056 245.638 80.2056 243.545C80.2056 241.44 80.6118 239.668 81.4243 238.227C82.243 236.781 83.3448 235.688 84.7297 234.95C86.1208 234.205 87.6781 233.832 89.4016 233.832C91.1128 233.832 92.6639 234.205 94.055 234.95C95.4461 235.688 96.551 236.781 97.3696 238.227C98.1883 239.668 98.5976 241.44 98.5976 243.545ZM93.3164 243.545C93.3164 242.413 93.1656 241.459 92.8639 240.683C92.5685 239.902 92.1284 239.311 91.5436 238.911C90.965 238.504 90.251 238.301 89.4016 238.301C88.5522 238.301 87.8351 238.504 87.2503 238.911C86.6717 239.311 86.2316 239.902 85.93 240.683C85.6345 241.459 85.4868 242.413 85.4868 243.545C85.4868 244.678 85.6345 245.635 85.93 246.417C86.2316 247.192 86.6717 247.783 87.2503 248.19C87.8351 248.59 88.5522 248.79 89.4016 248.79C90.251 248.79 90.965 248.59 91.5436 248.19C92.1284 247.783 92.5685 247.192 92.8639 246.417C93.1656 245.635 93.3164 244.678 93.3164 243.545Z" fill="white"/>
<path d="M77.9043 243.545C77.9043 245.651 77.4949 247.426 76.6763 248.873C75.8576 250.313 74.7527 251.406 73.3616 252.151C71.9705 252.889 70.4194 253.259 68.7082 253.259C66.9847 253.259 65.4275 252.886 64.0364 252.141C62.6514 251.39 61.5496 250.295 60.731 248.854C59.9185 247.408 59.5122 245.638 59.5122 243.545C59.5122 241.44 59.9185 239.668 60.731 238.227C61.5496 236.781 62.6514 235.688 64.0364 234.95C65.4275 234.205 66.9847 233.832 68.7082 233.832C70.4194 233.832 71.9705 234.205 73.3616 234.95C74.7527 235.688 75.8576 236.781 76.6763 238.227C77.4949 239.668 77.9043 241.44 77.9043 243.545ZM72.623 243.545C72.623 242.413 72.4722 241.459 72.1706 240.683C71.8751 239.902 71.435 239.311 70.8503 238.911C70.2717 238.504 69.5577 238.301 68.7082 238.301C67.8588 238.301 67.1417 238.504 66.557 238.911C65.9784 239.311 65.5382 239.902 65.2366 240.683C64.9412 241.459 64.7935 242.413 64.7935 243.545C64.7935 244.678 64.9412 245.635 65.2366 246.417C65.5382 247.192 65.9784 247.783 66.557 248.19C67.1417 248.59 67.8588 248.79 68.7082 248.79C69.5577 248.79 70.2717 248.59 70.8503 248.19C71.435 247.783 71.8751 247.192 72.1706 246.417C72.4722 245.635 72.623 244.678 72.623 243.545Z" fill="white"/>
<path d="M42.2188 253V234.091H50.4176C51.858 234.091 53.0675 234.285 54.0462 234.673C55.031 235.06 55.7727 235.608 56.2713 236.316C56.776 237.024 57.0284 237.858 57.0284 238.818C57.0284 239.514 56.8745 240.148 56.5668 240.72C56.2652 241.293 55.8404 241.773 55.2926 242.161C54.7448 242.542 54.1046 242.807 53.3722 242.955V243.139C54.1847 243.17 54.9233 243.376 55.5881 243.758C56.2528 244.133 56.7822 244.653 57.1761 245.318C57.5701 245.977 57.767 246.752 57.767 247.645C57.767 248.679 57.4962 249.599 56.9545 250.406C56.419 251.212 55.6558 251.846 54.6648 252.308C53.6738 252.769 52.492 253 51.1193 253H42.2188ZM47.3523 248.901H49.7528C50.6146 248.901 51.2609 248.741 51.6918 248.42C52.1226 248.094 52.3381 247.614 52.3381 246.98C52.3381 246.537 52.2365 246.161 52.0334 245.854C51.8303 245.546 51.541 245.312 51.1655 245.152C50.7962 244.992 50.3499 244.912 49.8267 244.912H47.3523V248.901ZM47.3523 241.736H49.4574C49.9067 241.736 50.3037 241.665 50.6484 241.523C50.9931 241.382 51.2609 241.179 51.4517 240.914C51.6487 240.643 51.7472 240.314 51.7472 239.926C51.7472 239.341 51.5379 238.895 51.1193 238.587C50.7008 238.273 50.1714 238.117 49.5312 238.117H47.3523V241.736Z" fill="white"/>
<path d="M764.415 129.455L769.993 139.104H770.232L775.87 129.455H784.132L774.915 144.727L784.431 160H775.959L770.232 150.246H769.993L764.266 160H755.854L765.325 144.727L756.093 129.455H764.415Z" fill="white"/>
<path d="M733.407 129.455L738.985 139.104H739.224L744.862 129.455H753.125L743.907 144.727L753.423 160H744.951L739.224 150.246H738.985L733.258 160H724.846L734.317 144.727L725.085 129.455H733.407Z" fill="white"/>
<path d="M702.313 160.433C699.917 160.433 697.849 159.96 696.109 159.016C694.379 158.061 693.046 156.704 692.112 154.944C691.187 153.174 690.725 151.071 690.725 148.635C690.725 146.268 691.192 144.2 692.127 142.43C693.061 140.651 694.379 139.268 696.079 138.284C697.779 137.29 699.783 136.793 702.09 136.793C703.72 136.793 705.212 137.046 706.564 137.553C707.916 138.06 709.085 138.811 710.069 139.805C711.053 140.8 711.819 142.028 712.366 143.489C712.913 144.941 713.186 146.607 713.186 148.486V150.305H693.275V146.07H706.4C706.39 145.294 706.206 144.603 705.848 143.996C705.49 143.39 704.998 142.918 704.372 142.58C703.755 142.232 703.044 142.058 702.239 142.058C701.423 142.058 700.693 142.241 700.046 142.609C699.4 142.967 698.888 143.46 698.51 144.086C698.132 144.702 697.933 145.403 697.914 146.189V150.499C697.914 151.434 698.097 152.254 698.465 152.96C698.833 153.656 699.355 154.198 700.031 154.586C700.708 154.974 701.513 155.168 702.448 155.168C703.094 155.168 703.681 155.078 704.208 154.899C704.735 154.72 705.187 154.457 705.565 154.109C705.943 153.761 706.226 153.333 706.415 152.826L713.112 153.02C712.833 154.521 712.222 155.829 711.277 156.942C710.343 158.046 709.115 158.906 707.593 159.523C706.072 160.129 704.312 160.433 702.313 160.433Z" fill="white"/>
<path d="M677.238 160.433C674.822 160.433 672.749 159.935 671.018 158.941C669.298 157.947 667.976 156.565 667.051 154.795C666.126 153.015 665.664 150.957 665.664 148.62C665.664 146.273 666.126 144.215 667.051 142.445C667.986 140.665 669.313 139.278 671.033 138.284C672.763 137.29 674.827 136.793 677.223 136.793C679.341 136.793 681.185 137.175 682.756 137.941C684.337 138.707 685.57 139.79 686.455 141.192C687.35 142.585 687.822 144.22 687.872 146.099H681.056C680.917 144.926 680.519 144.006 679.863 143.34C679.217 142.674 678.371 142.341 677.327 142.341C676.482 142.341 675.741 142.58 675.105 143.057C674.469 143.524 673.972 144.22 673.614 145.145C673.266 146.06 673.092 147.193 673.092 148.545C673.092 149.898 673.266 151.041 673.614 151.976C673.972 152.901 674.469 153.602 675.105 154.079C675.741 154.546 676.482 154.78 677.327 154.78C678.004 154.78 678.6 154.636 679.117 154.347C679.644 154.059 680.077 153.636 680.415 153.08C680.753 152.513 680.967 151.827 681.056 151.021H687.872C687.803 152.91 687.33 154.561 686.455 155.973C685.59 157.385 684.372 158.484 682.801 159.269C681.24 160.045 679.386 160.433 677.238 160.433Z" fill="white"/>
<path d="M647.218 146.935V160H639.925V137.091H646.86V141.297H647.114C647.621 139.895 648.486 138.796 649.709 138.001C650.932 137.195 652.389 136.793 654.079 136.793C655.69 136.793 657.087 137.156 658.27 137.881C659.463 138.597 660.388 139.602 661.044 140.894C661.71 142.177 662.038 143.678 662.029 145.398V160H654.735V146.83C654.745 145.558 654.422 144.563 653.766 143.847C653.119 143.131 652.22 142.773 651.066 142.773C650.301 142.773 649.624 142.942 649.038 143.281C648.461 143.609 648.014 144.081 647.695 144.697C647.387 145.314 647.228 146.06 647.218 146.935Z" fill="white"/>
<path d="M625.327 160.433C622.931 160.433 620.863 159.96 619.122 159.016C617.392 158.061 616.06 156.704 615.125 154.944C614.201 153.174 613.738 151.071 613.738 148.635C613.738 146.268 614.206 144.2 615.14 142.43C616.075 140.651 617.392 139.268 619.093 138.284C620.793 137.29 622.797 136.793 625.103 136.793C626.734 136.793 628.225 137.046 629.578 137.553C630.93 138.06 632.098 138.811 633.083 139.805C634.067 140.8 634.833 142.028 635.38 143.489C635.927 144.941 636.2 146.607 636.2 148.486V150.305H616.289V146.07H629.414C629.404 145.294 629.22 144.603 628.862 143.996C628.504 143.39 628.012 142.918 627.385 142.58C626.769 142.232 626.058 142.058 625.253 142.058C624.437 142.058 623.706 142.241 623.06 142.609C622.414 142.967 621.902 143.46 621.524 144.086C621.146 144.702 620.947 145.403 620.927 146.189V150.499C620.927 151.434 621.111 152.254 621.479 152.96C621.847 153.656 622.369 154.198 623.045 154.586C623.721 154.974 624.527 155.168 625.461 155.168C626.108 155.168 626.694 155.078 627.221 154.899C627.748 154.72 628.201 154.457 628.578 154.109C628.956 153.761 629.24 153.333 629.429 152.826L636.125 153.02C635.847 154.521 635.235 155.829 634.291 156.942C633.356 158.046 632.128 158.906 630.607 159.523C629.086 160.129 627.326 160.433 625.327 160.433Z" fill="white"/>
<path d="M598.13 160V137.091H605.214V141.267H605.453C605.871 139.756 606.552 138.632 607.496 137.896C608.441 137.151 609.54 136.778 610.793 136.778C611.131 136.778 611.479 136.803 611.837 136.852C612.195 136.892 612.528 136.957 612.836 137.046V143.385C612.488 143.266 612.03 143.171 611.464 143.102C610.907 143.032 610.41 142.997 609.972 142.997C609.107 142.997 608.327 143.191 607.631 143.579C606.945 143.957 606.403 144.489 606.005 145.175C605.617 145.851 605.423 146.646 605.423 147.561V160H598.13Z" fill="white"/>
<path d="M583.532 160.433C581.136 160.433 579.068 159.96 577.328 159.016C575.597 158.061 574.265 156.704 573.33 154.944C572.406 153.174 571.943 151.071 571.943 148.635C571.943 146.268 572.411 144.2 573.345 142.43C574.28 140.651 575.597 139.268 577.298 138.284C578.998 137.29 581.002 136.793 583.308 136.793C584.939 136.793 586.431 137.046 587.783 137.553C589.135 138.06 590.303 138.811 591.288 139.805C592.272 140.8 593.038 142.028 593.585 143.489C594.132 144.941 594.405 146.607 594.405 148.486V150.305H574.494V146.07H587.619C587.609 145.294 587.425 144.603 587.067 143.996C586.709 143.39 586.217 142.918 585.59 142.58C584.974 142.232 584.263 142.058 583.458 142.058C582.642 142.058 581.911 142.241 581.265 142.609C580.619 142.967 580.107 143.46 579.729 144.086C579.351 144.702 579.152 145.403 579.132 146.189V150.499C579.132 151.434 579.316 152.254 579.684 152.96C580.052 153.656 580.574 154.198 581.25 154.586C581.926 154.974 582.732 155.168 583.666 155.168C584.313 155.168 584.899 155.078 585.426 154.899C585.953 154.72 586.406 154.457 586.784 154.109C587.161 153.761 587.445 153.333 587.634 152.826L594.33 153.02C594.052 154.521 593.441 155.829 592.496 156.942C591.561 158.046 590.333 158.906 588.812 159.523C587.291 160.129 585.531 160.433 583.532 160.433Z" fill="white"/>
<path d="M570.053 137.091V142.46H555.317V137.091H570.053ZM558.39 160V135.928C558.39 134.158 558.723 132.691 559.389 131.528C560.055 130.354 560.98 129.479 562.163 128.903C563.346 128.316 564.714 128.023 566.265 128.023C567.279 128.023 568.234 128.102 569.128 128.261C570.033 128.41 570.704 128.545 571.142 128.664L569.979 134.004C569.71 133.914 569.382 133.839 568.994 133.78C568.616 133.72 568.258 133.69 567.92 133.69C567.065 133.69 566.479 133.879 566.16 134.257C565.842 134.635 565.683 135.152 565.683 135.808V160H558.39Z" fill="white"/>
<path d="M537.706 146.935V160H530.413V137.091H537.348V141.297H537.602C538.109 139.895 538.974 138.796 540.197 138.001C541.42 137.195 542.877 136.793 544.567 136.793C546.178 136.793 547.575 137.156 548.758 137.881C549.951 138.597 550.876 139.602 551.532 140.894C552.199 142.177 552.527 143.678 552.517 145.398V160H545.223V146.83C545.233 145.558 544.91 144.563 544.254 143.847C543.608 143.131 542.708 142.773 541.554 142.773C540.789 142.773 540.113 142.942 539.526 143.281C538.949 143.609 538.502 144.081 538.184 144.697C537.875 145.314 537.716 146.06 537.706 146.935Z" fill="white"/>
<path d="M515.103 160.433C512.697 160.433 510.629 159.94 508.899 158.956C507.178 157.962 505.851 156.58 504.916 154.81C503.992 153.03 503.529 150.967 503.529 148.62C503.529 146.263 503.992 144.2 504.916 142.43C505.851 140.651 507.178 139.268 508.899 138.284C510.629 137.29 512.697 136.793 515.103 136.793C517.509 136.793 519.573 137.29 521.293 138.284C523.023 139.268 524.35 140.651 525.275 142.43C526.21 144.2 526.677 146.263 526.677 148.62C526.677 150.967 526.21 153.03 525.275 154.81C524.35 156.58 523.023 157.962 521.293 158.956C519.573 159.94 517.509 160.433 515.103 160.433ZM515.148 154.929C516.023 154.929 516.764 154.661 517.37 154.124C517.977 153.587 518.439 152.841 518.757 151.886C519.085 150.932 519.249 149.828 519.249 148.575C519.249 147.303 519.085 146.189 518.757 145.234C518.439 144.28 517.977 143.534 517.37 142.997C516.764 142.46 516.023 142.192 515.148 142.192C514.243 142.192 513.477 142.46 512.851 142.997C512.235 143.534 511.762 144.28 511.434 145.234C511.116 146.189 510.957 147.303 510.957 148.575C510.957 149.828 511.116 150.932 511.434 151.886C511.762 152.841 512.235 153.587 512.851 154.124C513.477 154.661 514.243 154.929 515.148 154.929Z" fill="white"/>
<path d="M500.185 140.521H492.728C492.628 139.756 492.424 139.065 492.116 138.448C491.808 137.832 491.4 137.305 490.893 136.867C490.386 136.43 489.784 136.097 489.088 135.868C488.402 135.629 487.642 135.51 486.806 135.51C485.325 135.51 484.047 135.873 482.973 136.599C481.909 137.325 481.089 138.374 480.512 139.746C479.946 141.118 479.662 142.778 479.662 144.727C479.662 146.756 479.951 148.456 480.527 149.828C481.114 151.19 481.934 152.219 482.988 152.915C484.052 153.602 485.31 153.945 486.762 153.945C487.577 153.945 488.318 153.84 488.984 153.631C489.66 153.423 490.252 153.119 490.759 152.722C491.276 152.314 491.699 151.822 492.027 151.245C492.365 150.658 492.598 149.997 492.728 149.261L500.185 149.306C500.056 150.658 499.663 151.991 499.007 153.303C498.36 154.616 497.471 155.814 496.337 156.898C495.204 157.972 493.821 158.827 492.191 159.463C490.57 160.099 488.711 160.418 486.613 160.418C483.848 160.418 481.373 159.811 479.185 158.598C477.008 157.375 475.287 155.595 474.025 153.259C472.762 150.922 472.13 148.078 472.13 144.727C472.13 141.366 472.772 138.518 474.054 136.181C475.337 133.844 477.072 132.07 479.26 130.857C481.447 129.643 483.898 129.037 486.613 129.037C488.462 129.037 490.172 129.295 491.743 129.812C493.314 130.32 494.696 131.065 495.89 132.05C497.083 133.024 498.052 134.222 498.798 135.644C499.544 137.066 500.006 138.692 500.185 140.521Z" fill="white"/>
<path d="M459.714 137.091V142.46H445.261V137.091H459.714ZM448.289 131.602H455.582V152.796C455.582 153.244 455.652 153.607 455.791 153.885C455.94 154.153 456.154 154.347 456.432 154.467C456.711 154.576 457.044 154.631 457.432 154.631C457.71 154.631 458.003 154.606 458.312 154.556C458.63 154.496 458.868 154.447 459.028 154.407L460.131 159.672C459.783 159.771 459.291 159.896 458.655 160.045C458.028 160.194 457.278 160.288 456.403 160.328C454.692 160.408 453.226 160.209 452.003 159.732C450.79 159.244 449.86 158.489 449.214 157.465C448.577 156.44 448.269 155.153 448.289 153.602V131.602Z" fill="white"/>
<path d="M428.631 160.388C427.169 160.388 425.872 160.144 424.738 159.657C423.615 159.16 422.725 158.414 422.069 157.42C421.422 156.415 421.099 155.158 421.099 153.646C421.099 152.374 421.323 151.3 421.77 150.425C422.218 149.55 422.834 148.839 423.62 148.292C424.405 147.745 425.31 147.332 426.334 147.054C427.358 146.766 428.452 146.572 429.615 146.472C430.918 146.353 431.967 146.229 432.762 146.099C433.558 145.96 434.135 145.766 434.493 145.518C434.86 145.259 435.044 144.896 435.044 144.429V144.354C435.044 143.589 434.781 142.997 434.254 142.58C433.727 142.162 433.016 141.953 432.121 141.953C431.157 141.953 430.381 142.162 429.794 142.58C429.208 142.997 428.835 143.574 428.676 144.31L421.949 144.071C422.148 142.679 422.66 141.436 423.486 140.342C424.321 139.239 425.464 138.374 426.916 137.747C428.378 137.111 430.133 136.793 432.181 136.793C433.642 136.793 434.99 136.967 436.223 137.315C437.456 137.653 438.53 138.15 439.444 138.806C440.359 139.452 441.065 140.248 441.562 141.192C442.069 142.137 442.323 143.216 442.323 144.429V160H435.462V156.808H435.283C434.875 157.584 434.353 158.24 433.717 158.777C433.091 159.314 432.35 159.717 431.495 159.985C430.65 160.254 429.695 160.388 428.631 160.388ZM430.883 155.615C431.669 155.615 432.375 155.456 433.001 155.138C433.637 154.82 434.145 154.382 434.522 153.825C434.9 153.259 435.089 152.602 435.089 151.857V149.679C434.88 149.788 434.627 149.888 434.329 149.977C434.04 150.067 433.722 150.151 433.374 150.231C433.026 150.31 432.668 150.38 432.3 150.44C431.932 150.499 431.579 150.554 431.241 150.604C430.555 150.713 429.968 150.882 429.481 151.111C429.004 151.339 428.636 151.638 428.378 152.006C428.129 152.364 428.005 152.791 428.005 153.288C428.005 154.044 428.273 154.621 428.81 155.018C429.357 155.416 430.048 155.615 430.883 155.615Z" fill="white"/>
<path d="M408.992 144.086L402.295 144.265C402.226 143.788 402.037 143.365 401.728 142.997C401.42 142.619 401.018 142.326 400.52 142.117C400.033 141.898 399.466 141.789 398.82 141.789C397.975 141.789 397.254 141.958 396.657 142.296C396.071 142.634 395.782 143.092 395.792 143.668C395.782 144.116 395.961 144.504 396.329 144.832C396.707 145.16 397.378 145.423 398.343 145.622L402.758 146.457C405.045 146.895 406.745 147.621 407.858 148.635C408.982 149.649 409.549 150.991 409.559 152.662C409.549 154.233 409.081 155.6 408.157 156.763C407.242 157.927 405.989 158.832 404.398 159.478C402.807 160.114 400.988 160.433 398.939 160.433C395.668 160.433 393.088 159.761 391.199 158.419C389.319 157.067 388.246 155.257 387.977 152.99L395.181 152.811C395.34 153.646 395.753 154.283 396.419 154.72C397.085 155.158 397.935 155.376 398.969 155.376C399.904 155.376 400.665 155.202 401.251 154.854C401.838 154.506 402.136 154.044 402.146 153.467C402.136 152.95 401.907 152.538 401.46 152.229C401.013 151.911 400.312 151.663 399.357 151.484L395.36 150.723C393.063 150.305 391.353 149.535 390.229 148.411C389.106 147.278 388.549 145.836 388.559 144.086C388.549 142.555 388.956 141.247 389.782 140.163C390.607 139.07 391.78 138.234 393.302 137.658C394.823 137.081 396.618 136.793 398.686 136.793C401.788 136.793 404.234 137.444 406.024 138.746C407.814 140.039 408.803 141.819 408.992 144.086Z" fill="white"/>
<path d="M370.632 153.989L370.661 145.294H371.676L378.119 137.091H386.382L376.806 148.844H374.882L370.632 153.989ZM364.054 160V129.455H371.348V160H364.054ZM378.283 160L372.287 150.484L377.09 145.309L386.71 160H378.283Z" fill="white"/>
<path d="M346.376 160V137.091H353.461V141.267H353.7C354.117 139.756 354.798 138.632 355.743 137.896C356.688 137.151 357.786 136.778 359.039 136.778C359.377 136.778 359.725 136.803 360.083 136.852C360.441 136.892 360.774 136.957 361.082 137.046V143.385C360.734 143.266 360.277 143.171 359.71 143.102C359.153 143.032 358.656 142.997 358.219 142.997C357.354 142.997 356.573 143.191 355.877 143.579C355.191 143.957 354.649 144.489 354.251 145.175C353.864 145.851 353.67 146.646 353.67 147.561V160H346.376Z" fill="white"/>
<path d="M331.066 160.433C328.66 160.433 326.592 159.94 324.862 158.956C323.141 157.962 321.814 156.58 320.879 154.81C319.955 153.03 319.492 150.967 319.492 148.62C319.492 146.263 319.955 144.2 320.879 142.43C321.814 140.651 323.141 139.268 324.862 138.284C326.592 137.29 328.66 136.793 331.066 136.793C333.472 136.793 335.536 137.29 337.256 138.284C338.986 139.268 340.313 140.651 341.238 142.43C342.173 144.2 342.64 146.263 342.64 148.62C342.64 150.967 342.173 153.03 341.238 154.81C340.313 156.58 338.986 157.962 337.256 158.956C335.536 159.94 333.472 160.433 331.066 160.433ZM331.111 154.929C331.986 154.929 332.727 154.661 333.333 154.124C333.94 153.587 334.402 152.841 334.72 151.886C335.048 150.932 335.212 149.828 335.212 148.575C335.212 147.303 335.048 146.189 334.72 145.234C334.402 144.28 333.94 143.534 333.333 142.997C332.727 142.46 331.986 142.192 331.111 142.192C330.206 142.192 329.44 142.46 328.814 142.997C328.197 143.534 327.725 144.28 327.397 145.234C327.079 146.189 326.92 147.303 326.92 148.575C326.92 149.828 327.079 150.932 327.397 151.886C327.725 152.841 328.197 153.587 328.814 154.124C329.44 154.661 330.206 154.929 331.111 154.929Z" fill="white"/>
<path d="M288.928 160L282.962 137.091H290.286L293.373 151.767H293.567L296.878 137.091H304.022L307.423 151.663H307.617L310.614 137.091H317.938L311.957 160H304.156L300.577 146.651H300.323L296.744 160H288.928Z" fill="white"/>
<path d="M280.005 129.455V160H272.712V129.455H280.005Z" fill="white"/>
<path d="M257.402 160.433C254.996 160.433 252.928 159.94 251.197 158.956C249.477 157.962 248.15 156.58 247.215 154.81C246.29 153.03 245.828 150.967 245.828 148.62C245.828 146.263 246.29 144.2 247.215 142.43C248.15 140.651 249.477 139.268 251.197 138.284C252.928 137.29 254.996 136.793 257.402 136.793C259.808 136.793 261.871 137.29 263.592 138.284C265.322 139.268 266.649 140.651 267.574 142.43C268.509 144.2 268.976 146.263 268.976 148.62C268.976 150.967 268.509 153.03 267.574 154.81C266.649 156.58 265.322 157.962 263.592 158.956C261.871 159.94 259.808 160.433 257.402 160.433ZM257.447 154.929C258.322 154.929 259.062 154.661 259.669 154.124C260.276 153.587 260.738 152.841 261.056 151.886C261.384 150.932 261.548 149.828 261.548 148.575C261.548 147.303 261.384 146.189 261.056 145.234C260.738 144.28 260.276 143.534 259.669 142.997C259.062 142.46 258.322 142.192 257.447 142.192C256.542 142.192 255.776 142.46 255.15 142.997C254.533 143.534 254.061 144.28 253.733 145.234C253.415 146.189 253.256 147.303 253.256 148.575C253.256 149.828 253.415 150.932 253.733 151.886C254.061 152.841 254.533 153.587 255.15 154.124C255.776 154.661 256.542 154.929 257.447 154.929Z" fill="white"/>
<path d="M231.398 160.433C228.992 160.433 226.924 159.94 225.194 158.956C223.473 157.962 222.146 156.58 221.211 154.81C220.287 153.03 219.824 150.967 219.824 148.62C219.824 146.263 220.287 144.2 221.211 142.43C222.146 140.651 223.473 139.268 225.194 138.284C226.924 137.29 228.992 136.793 231.398 136.793C233.804 136.793 235.868 137.29 237.588 138.284C239.318 139.268 240.645 140.651 241.57 142.43C242.505 144.2 242.972 146.263 242.972 148.62C242.972 150.967 242.505 153.03 241.57 154.81C240.645 156.58 239.318 157.962 237.588 158.956C235.868 159.94 233.804 160.433 231.398 160.433ZM231.443 154.929C232.318 154.929 233.059 154.661 233.665 154.124C234.272 153.587 234.734 152.841 235.052 151.886C235.38 150.932 235.544 149.828 235.544 148.575C235.544 147.303 235.38 146.189 235.052 145.234C234.734 144.28 234.272 143.534 233.665 142.997C233.059 142.46 232.318 142.192 231.443 142.192C230.538 142.192 229.772 142.46 229.146 142.997C228.529 143.534 228.057 144.28 227.729 145.234C227.411 146.189 227.252 147.303 227.252 148.575C227.252 149.828 227.411 150.932 227.729 151.886C228.057 152.841 228.529 153.587 229.146 154.124C229.772 154.661 230.538 154.929 231.443 154.929Z" fill="white"/>
<path d="M201.297 146.935V160H194.003V129.455H201.058V141.297H201.312C201.829 139.885 202.674 138.781 203.847 137.986C205.03 137.19 206.477 136.793 208.187 136.793C209.798 136.793 211.2 137.151 212.393 137.866C213.587 138.572 214.511 139.572 215.167 140.864C215.834 142.157 216.162 143.668 216.152 145.398V160H208.859V146.83C208.868 145.558 208.55 144.563 207.904 143.847C207.258 143.131 206.348 142.773 205.175 142.773C204.409 142.773 203.733 142.942 203.146 143.281C202.569 143.609 202.117 144.081 201.789 144.697C201.471 145.314 201.307 146.06 201.297 146.935Z" fill="white"/>
<path d="M179.636 160.433C177.22 160.433 175.147 159.935 173.417 158.941C171.697 157.947 170.374 156.565 169.45 154.795C168.525 153.015 168.062 150.957 168.062 148.62C168.062 146.273 168.525 144.215 169.45 142.445C170.384 140.665 171.712 139.278 173.432 138.284C175.162 137.29 177.225 136.793 179.621 136.793C181.739 136.793 183.584 137.175 185.155 137.941C186.736 138.707 187.969 139.79 188.854 141.192C189.749 142.585 190.221 144.22 190.271 146.099H183.455C183.315 144.926 182.918 144.006 182.261 143.34C181.615 142.674 180.77 142.341 179.726 142.341C178.881 142.341 178.14 142.58 177.504 143.057C176.867 143.524 176.37 144.22 176.012 145.145C175.664 146.06 175.49 147.193 175.49 148.545C175.49 149.898 175.664 151.041 176.012 151.976C176.37 152.901 176.867 153.602 177.504 154.079C178.14 154.546 178.881 154.78 179.726 154.78C180.402 154.78 180.999 154.636 181.516 154.347C182.043 154.059 182.475 153.636 182.813 153.08C183.151 152.513 183.365 151.827 183.455 151.021H190.271C190.201 152.91 189.729 154.561 188.854 155.973C187.989 157.385 186.771 158.484 185.2 159.269C183.638 160.045 181.784 160.433 179.636 160.433Z" fill="white"/>
<path d="M157.727 138.612C157.627 137.518 157.185 136.668 156.399 136.062C155.624 135.445 154.515 135.137 153.073 135.137C152.119 135.137 151.323 135.261 150.687 135.51C150.05 135.759 149.573 136.102 149.255 136.539C148.937 136.967 148.773 137.459 148.763 138.016C148.743 138.473 148.832 138.876 149.031 139.224C149.24 139.572 149.538 139.88 149.926 140.148C150.324 140.407 150.801 140.636 151.358 140.835C151.915 141.033 152.541 141.207 153.237 141.357L155.862 141.953C157.374 142.281 158.706 142.719 159.859 143.266C161.023 143.812 161.997 144.464 162.783 145.219C163.578 145.975 164.18 146.845 164.587 147.83C164.995 148.814 165.204 149.918 165.214 151.141C165.204 153.07 164.717 154.725 163.752 156.107C162.788 157.489 161.401 158.548 159.591 159.284C157.791 160.02 155.619 160.388 153.073 160.388C150.518 160.388 148.29 160.005 146.391 159.239C144.492 158.474 143.016 157.31 141.962 155.749C140.908 154.188 140.366 152.214 140.336 149.828H147.406C147.465 150.812 147.729 151.633 148.196 152.289C148.663 152.945 149.305 153.442 150.12 153.781C150.945 154.119 151.9 154.288 152.984 154.288C153.978 154.288 154.823 154.153 155.519 153.885C156.225 153.616 156.767 153.244 157.145 152.766C157.523 152.289 157.717 151.742 157.727 151.126C157.717 150.549 157.538 150.057 157.19 149.649C156.842 149.232 156.305 148.874 155.579 148.575C154.863 148.267 153.948 147.984 152.835 147.725L149.643 146.979C146.998 146.373 144.915 145.393 143.393 144.041C141.872 142.679 141.116 140.839 141.126 138.523C141.116 136.634 141.624 134.978 142.648 133.556C143.672 132.134 145.089 131.026 146.898 130.23C148.708 129.435 150.771 129.037 153.088 129.037C155.455 129.037 157.508 129.44 159.248 130.245C160.998 131.04 162.355 132.159 163.32 133.601C164.284 135.043 164.776 136.713 164.796 138.612H157.727Z" fill="white"/>
<path d="M112.867 146.935V160H105.574V137.091H112.509V141.297H112.763C113.27 139.895 114.135 138.796 115.358 138.001C116.581 137.195 118.038 136.793 119.728 136.793C121.339 136.793 122.736 137.156 123.919 137.881C125.112 138.597 126.037 139.602 126.693 140.894C127.359 142.177 127.687 143.678 127.677 145.398V160H120.384V146.83C120.394 145.558 120.071 144.563 119.415 143.847C118.768 143.131 117.868 142.773 116.715 142.773C115.949 142.773 115.273 142.942 114.687 143.281C114.11 143.609 113.663 144.081 113.344 144.697C113.036 145.314 112.877 146.06 112.867 146.935Z" fill="white"/>
<path d="M93.6378 160V137.091H100.931V160H93.6378ZM97.2919 134.421C96.2678 134.421 95.3878 134.083 94.652 133.407C93.9162 132.721 93.5483 131.896 93.5483 130.931C93.5483 129.977 93.9162 129.161 94.652 128.485C95.3878 127.799 96.2678 127.456 97.2919 127.456C98.326 127.456 99.206 127.799 99.9319 128.485C100.668 129.161 101.036 129.977 101.036 130.931C101.036 131.896 100.668 132.721 99.9319 133.407C99.206 134.083 98.326 134.421 97.2919 134.421Z" fill="white"/>
<path d="M78.3278 160.433C75.9215 160.433 73.8533 159.94 72.1232 158.956C70.4031 157.962 69.0756 156.58 68.141 154.81C67.2163 153.03 66.7539 150.967 66.7539 148.62C66.7539 146.263 67.2163 144.2 68.141 142.43C69.0756 140.651 70.4031 139.268 72.1232 138.284C73.8533 137.29 75.9215 136.793 78.3278 136.793C80.734 136.793 82.7972 137.29 84.5174 138.284C86.2475 139.268 87.5749 140.651 88.4996 142.43C89.4343 144.2 89.9016 146.263 89.9016 148.62C89.9016 150.967 89.4343 153.03 88.4996 154.81C87.5749 156.58 86.2475 157.962 84.5174 158.956C82.7972 159.94 80.734 160.433 78.3278 160.433ZM78.3725 154.929C79.2475 154.929 79.9883 154.661 80.5948 154.124C81.2014 153.587 81.6637 152.841 81.9819 151.886C82.31 150.932 82.4741 149.828 82.4741 148.575C82.4741 147.303 82.31 146.189 81.9819 145.234C81.6637 144.28 81.2014 143.534 80.5948 142.997C79.9883 142.46 79.2475 142.192 78.3725 142.192C77.4677 142.192 76.7021 142.46 76.0756 142.997C75.4592 143.534 74.9869 144.28 74.6587 145.234C74.3406 146.189 74.1815 147.303 74.1815 148.575C74.1815 149.828 74.3406 150.932 74.6587 151.886C74.9869 152.841 75.4592 153.587 76.0756 154.124C76.7021 154.661 77.4677 154.929 78.3725 154.929Z" fill="white"/>
<path d="M55.7207 129.455H62.9991V150.574C62.9892 152.553 62.5169 154.283 61.5822 155.764C60.6475 157.236 59.3549 158.379 57.7044 159.195C56.0637 160.01 54.1646 160.418 52.0069 160.418C50.0978 160.418 48.3627 160.085 46.8017 159.418C45.2505 158.752 44.0126 157.718 43.0879 156.316C42.1731 154.914 41.7207 153.119 41.7306 150.932H49.0836C49.1134 151.717 49.2626 152.388 49.5311 152.945C49.8095 153.492 50.1923 153.905 50.6795 154.183C51.1667 154.462 51.7484 154.601 52.4245 154.601C53.1305 154.601 53.7271 154.452 54.2143 154.153C54.7015 153.845 55.0694 153.393 55.318 152.796C55.5765 152.2 55.7107 151.459 55.7207 150.574V129.455Z" fill="white"/>
<path d="M375.395 60.7273L374.804 76.7273H369.622L369.031 60.7273H375.395ZM372.213 84.3637C371.334 84.3637 370.581 84.0568 369.952 83.4432C369.331 82.822 369.024 82.0682 369.031 81.1818C369.024 80.3182 369.331 79.5796 369.952 78.9659C370.581 78.3523 371.334 78.0455 372.213 78.0455C373.047 78.0455 373.781 78.3523 374.418 78.9659C375.062 79.5796 375.387 80.3182 375.395 81.1818C375.387 81.7727 375.232 82.3106 374.929 82.7955C374.634 83.2728 374.247 83.6553 373.77 83.9432C373.293 84.2235 372.774 84.3637 372.213 84.3637Z" fill="#005942"/>
<path d="M355.75 90.9091C354 90.9091 352.5 90.6591 351.25 90.1591C350.008 89.6667 349.042 88.9848 348.352 88.1136C347.67 87.25 347.288 86.2576 347.204 85.1364H353.25C353.311 85.5076 353.462 85.8068 353.704 86.0341C353.947 86.2614 354.258 86.4242 354.636 86.5227C355.023 86.6288 355.455 86.6818 355.932 86.6818C356.742 86.6818 357.413 86.4848 357.943 86.0909C358.481 85.697 358.75 84.9848 358.75 83.9545V81H358.568C358.341 81.5909 357.992 82.0947 357.523 82.5114C357.053 82.9204 356.489 83.2348 355.829 83.4545C355.17 83.6667 354.447 83.7727 353.659 83.7727C352.417 83.7727 351.273 83.4848 350.227 82.9091C349.189 82.3333 348.356 81.4204 347.727 80.1704C347.106 78.9204 346.795 77.2879 346.795 75.2727C346.795 73.1667 347.121 71.4545 347.773 70.1364C348.432 68.8182 349.28 67.8523 350.318 67.2386C351.364 66.625 352.462 66.3182 353.614 66.3182C354.477 66.3182 355.235 66.4697 355.886 66.7727C356.538 67.0682 357.083 67.4659 357.523 67.9659C357.962 68.4583 358.295 69 358.523 69.5909H358.659V66.5454H364.932V83.9545C364.932 85.4318 364.549 86.6856 363.784 87.7159C363.026 88.7538 361.958 89.5454 360.579 90.0909C359.201 90.6364 357.591 90.9091 355.75 90.9091ZM355.977 79.3182C356.553 79.3182 357.045 79.1591 357.454 78.8409C357.871 78.5151 358.189 78.053 358.409 77.4545C358.636 76.8485 358.75 76.1212 358.75 75.2727C358.75 74.4091 358.636 73.6704 358.409 73.0568C358.189 72.4356 357.871 71.9621 357.454 71.6364C357.045 71.303 356.553 71.1364 355.977 71.1364C355.401 71.1364 354.909 71.303 354.5 71.6364C354.098 71.9621 353.788 72.4356 353.568 73.0568C353.356 73.6704 353.25 74.4091 353.25 75.2727C353.25 76.1364 353.356 76.8712 353.568 77.4773C353.788 78.0757 354.098 78.5341 354.5 78.8523C354.909 79.1629 355.401 79.3182 355.977 79.3182Z" fill="#005942"/>
<path d="M332.926 74.1818V84H326.653V66.5454H332.608V69.8636H332.79C333.168 68.7576 333.835 67.8901 334.79 67.2614C335.752 66.6326 336.873 66.3182 338.153 66.3182C339.388 66.3182 340.46 66.6023 341.369 67.1704C342.286 67.7311 342.994 68.5038 343.494 69.4886C344.002 70.4735 344.252 71.5985 344.244 72.8636V84H337.971V74.1818C337.979 73.3182 337.759 72.6401 337.312 72.1477C336.873 71.6553 336.259 71.4091 335.471 71.4091C334.956 71.4091 334.506 71.5227 334.119 71.75C333.74 71.9697 333.449 72.2879 333.244 72.7045C333.04 73.1136 332.934 73.6061 332.926 74.1818Z" fill="#005942"/>
<path d="M317.185 84V66.5455H323.457V84H317.185ZM320.321 64.7273C319.472 64.7273 318.745 64.447 318.139 63.8864C317.533 63.3258 317.23 62.6515 317.23 61.8636C317.23 61.0758 317.533 60.4015 318.139 59.8409C318.745 59.2803 319.472 59 320.321 59C321.177 59 321.904 59.2803 322.503 59.8409C323.109 60.4015 323.412 61.0758 323.412 61.8636C323.412 62.6515 323.109 63.3258 322.503 63.8864C321.904 64.447 321.177 64.7273 320.321 64.7273Z" fill="#005942"/>
<path d="M302.77 74.1818V84H296.497V66.5454H302.452V69.8636H302.633C303.012 68.7576 303.679 67.8901 304.633 67.2614C305.596 66.6326 306.717 66.3182 307.997 66.3182C309.232 66.3182 310.304 66.6023 311.213 67.1704C312.13 67.7311 312.838 68.5038 313.338 69.4886C313.846 70.4735 314.096 71.5985 314.088 72.8636V84H307.815V74.1818C307.823 73.3182 307.603 72.6401 307.156 72.1477C306.717 71.6553 306.103 71.4091 305.315 71.4091C304.8 71.4091 304.349 71.5227 303.963 71.75C303.584 71.9697 303.293 72.2879 303.088 72.7045C302.883 73.1136 302.777 73.6061 302.77 74.1818Z" fill="#005942"/>
<path d="M285.392 84.3182C283.528 84.3182 281.922 83.9621 280.574 83.25C279.233 82.5303 278.199 81.5 277.472 80.1591C276.752 78.8106 276.392 77.197 276.392 75.3182C276.392 73.5151 276.756 71.9394 277.483 70.5909C278.21 69.2424 279.237 68.1932 280.563 67.4432C281.888 66.6932 283.453 66.3182 285.256 66.3182C286.574 66.3182 287.767 66.5227 288.835 66.9318C289.903 67.3409 290.816 67.9356 291.574 68.7159C292.331 69.4886 292.915 70.428 293.324 71.5341C293.733 72.6401 293.938 73.8864 293.938 75.2727V76.7273H278.347V73.2727H288.165C288.157 72.7727 288.028 72.3333 287.778 71.9545C287.536 71.5682 287.206 71.2689 286.79 71.0568C286.381 70.8371 285.915 70.7273 285.392 70.7273C284.885 70.7273 284.419 70.8371 283.994 71.0568C283.57 71.2689 283.229 71.5644 282.972 71.9432C282.722 72.322 282.589 72.7651 282.574 73.2727V77C282.574 77.5606 282.691 78.0606 282.926 78.5C283.161 78.9394 283.498 79.2841 283.938 79.5341C284.377 79.7841 284.907 79.9091 285.528 79.9091C285.96 79.9091 286.354 79.8485 286.71 79.7273C287.074 79.6061 287.385 79.4318 287.642 79.2045C287.9 78.9697 288.089 78.6894 288.21 78.3636H293.938C293.741 79.5757 293.275 80.6288 292.54 81.5227C291.805 82.4091 290.831 83.0985 289.619 83.5909C288.415 84.0758 287.006 84.3182 285.392 84.3182Z" fill="#005942"/>
<path d="M256.31 90.5454V66.5454H262.537V69.5909H262.673C262.9 69 263.234 68.4583 263.673 67.9659C264.113 67.4659 264.658 67.0682 265.31 66.7727C265.961 66.4697 266.719 66.3182 267.582 66.3182C268.734 66.3182 269.829 66.625 270.866 67.2386C271.912 67.8523 272.76 68.8182 273.412 70.1364C274.071 71.4545 274.4 73.1667 274.4 75.2727C274.4 77.2879 274.086 78.9583 273.457 80.2841C272.836 81.6098 272.003 82.5985 270.957 83.25C269.919 83.9015 268.779 84.2273 267.537 84.2273C266.719 84.2273 265.988 84.0947 265.344 83.8295C264.707 83.5568 264.162 83.1894 263.707 82.7273C263.26 82.2576 262.916 81.7273 262.673 81.1364H262.582V90.5454H256.31ZM262.446 75.2727C262.446 76.1212 262.556 76.8561 262.775 77.4773C263.003 78.0909 263.321 78.5682 263.73 78.9091C264.147 79.2424 264.643 79.4091 265.219 79.4091C265.794 79.4091 266.283 79.2462 266.685 78.9204C267.094 78.5871 267.404 78.1136 267.616 77.5C267.836 76.8788 267.946 76.1364 267.946 75.2727C267.946 74.4091 267.836 73.6704 267.616 73.0568C267.404 72.4356 267.094 71.9621 266.685 71.6364C266.283 71.303 265.794 71.1364 265.219 71.1364C264.643 71.1364 264.147 71.303 263.73 71.6364C263.321 71.9621 263.003 72.4356 262.775 73.0568C262.556 73.6704 262.446 74.4091 262.446 75.2727Z" fill="#005942"/>
<path d="M235.591 90.5454V66.5454H241.818V69.5909H241.954C242.182 69 242.515 68.4583 242.954 67.9659C243.394 67.4659 243.939 67.0682 244.591 66.7727C245.242 66.4697 246 66.3182 246.864 66.3182C248.015 66.3182 249.11 66.625 250.148 67.2386C251.193 67.8523 252.042 68.8182 252.693 70.1364C253.352 71.4545 253.682 73.1667 253.682 75.2727C253.682 77.2879 253.367 78.9583 252.739 80.2841C252.117 81.6098 251.284 82.5985 250.239 83.25C249.201 83.9015 248.061 84.2273 246.818 84.2273C246 84.2273 245.269 84.0947 244.625 83.8295C243.989 83.5568 243.443 83.1894 242.989 82.7273C242.542 82.2576 242.197 81.7273 241.954 81.1364H241.864V90.5454H235.591ZM241.727 75.2727C241.727 76.1212 241.837 76.8561 242.057 77.4773C242.284 78.0909 242.602 78.5682 243.011 78.9091C243.428 79.2424 243.924 79.4091 244.5 79.4091C245.076 79.4091 245.564 79.2462 245.966 78.9204C246.375 78.5871 246.686 78.1136 246.898 77.5C247.117 76.8788 247.227 76.1364 247.227 75.2727C247.227 74.4091 247.117 73.6704 246.898 73.0568C246.686 72.4356 246.375 71.9621 245.966 71.6364C245.564 71.303 245.076 71.1364 244.5 71.1364C243.924 71.1364 243.428 71.303 243.011 71.6364C242.602 71.9621 242.284 72.4356 242.057 73.0568C241.837 73.6704 241.727 74.4091 241.727 75.2727Z" fill="#005942"/>
<path d="M221.549 84.2727C220.435 84.2727 219.45 84.0909 218.594 83.7273C217.745 83.3561 217.079 82.7954 216.594 82.0454C216.109 81.2954 215.867 80.3409 215.867 79.1818C215.867 78.2273 216.03 77.4129 216.355 76.7386C216.681 76.0568 217.136 75.5 217.719 75.0682C218.302 74.6364 218.98 74.3068 219.753 74.0795C220.533 73.8523 221.374 73.7045 222.276 73.6364C223.253 73.5606 224.037 73.4697 224.628 73.3636C225.227 73.25 225.658 73.0947 225.924 72.8977C226.189 72.6932 226.321 72.4242 226.321 72.0909V72.0454C226.321 71.5909 226.147 71.2424 225.799 71C225.45 70.7576 225.003 70.6364 224.458 70.6364C223.859 70.6364 223.37 70.7689 222.992 71.0341C222.62 71.2917 222.397 71.6894 222.321 72.2273H216.549C216.624 71.1667 216.961 70.1894 217.56 69.2954C218.166 68.3939 219.049 67.6742 220.208 67.1364C221.367 66.5909 222.814 66.3182 224.549 66.3182C225.799 66.3182 226.92 66.4659 227.912 66.7614C228.905 67.0492 229.749 67.4545 230.446 67.9773C231.143 68.4924 231.674 69.0985 232.037 69.7954C232.408 70.4848 232.594 71.2348 232.594 72.0454V84H226.73V81.5454H226.594C226.245 82.197 225.821 82.7235 225.321 83.125C224.829 83.5265 224.264 83.8182 223.628 84C222.999 84.1818 222.306 84.2727 221.549 84.2727ZM223.594 80.3182C224.071 80.3182 224.518 80.2197 224.935 80.0227C225.359 79.8258 225.704 79.5417 225.969 79.1704C226.234 78.7992 226.367 78.3485 226.367 77.8182V76.3636C226.2 76.4318 226.022 76.4962 225.833 76.5568C225.651 76.6174 225.454 76.6742 225.242 76.7273C225.037 76.7803 224.817 76.8295 224.583 76.875C224.355 76.9204 224.117 76.9621 223.867 77C223.382 77.0757 222.984 77.2007 222.674 77.375C222.37 77.5417 222.143 77.75 221.992 78C221.848 78.2424 221.776 78.5151 221.776 78.8182C221.776 79.303 221.946 79.6742 222.287 79.9318C222.628 80.1894 223.064 80.3182 223.594 80.3182Z" fill="#005942"/>
<path d="M192.594 84V60.7273H198.912V69.8182H207.276V60.7273H213.594V84H207.276V74.9091H198.912V84H192.594Z" fill="#005942"/>
<path d="M393.483 36.2273H387.71C387.68 35.8712 387.555 35.5644 387.335 35.3068C387.116 35.0492 386.832 34.8523 386.483 34.7159C386.142 34.572 385.763 34.5 385.347 34.5C384.809 34.5 384.347 34.5985 383.96 34.7954C383.574 34.9924 383.385 35.2727 383.392 35.6364C383.385 35.8939 383.494 36.1326 383.722 36.3523C383.957 36.572 384.407 36.7424 385.074 36.8636L388.62 37.5C390.407 37.8258 391.737 38.375 392.608 39.1477C393.487 39.9129 393.93 40.9394 393.938 42.2273C393.93 43.4697 393.559 44.5492 392.824 45.4659C392.097 46.375 391.101 47.0795 389.835 47.5795C388.578 48.072 387.142 48.3182 385.529 48.3182C382.862 48.3182 380.775 47.7727 379.267 46.6818C377.767 45.5909 376.93 44.1515 376.756 42.3636H382.983C383.066 42.9167 383.339 43.3447 383.801 43.6477C384.271 43.9432 384.862 44.0909 385.574 44.0909C386.15 44.0909 386.623 43.9924 386.995 43.7954C387.373 43.5985 387.566 43.3182 387.574 42.9545C387.566 42.6212 387.4 42.3561 387.074 42.1591C386.756 41.9621 386.256 41.803 385.574 41.6818L382.483 41.1364C380.703 40.8258 379.37 40.2348 378.483 39.3636C377.597 38.4924 377.157 37.3712 377.165 36C377.157 34.7879 377.476 33.7614 378.12 32.9204C378.771 32.072 379.699 31.428 380.904 30.9886C382.116 30.5417 383.551 30.3182 385.21 30.3182C387.733 30.3182 389.722 30.8409 391.176 31.8864C392.638 32.9318 393.407 34.3788 393.483 36.2273Z" fill="#005942"/>
<path d="M376.491 24.7273V27.4546C376.491 28.197 376.34 28.9394 376.037 29.6818C375.741 30.4167 375.363 31.1023 374.9 31.7387C374.446 32.3674 373.976 32.894 373.491 33.3182L370.9 32C371.219 31.4546 371.503 30.822 371.753 30.1023C372.003 29.3826 372.128 28.5 372.128 27.4546V24.7273H376.491Z" fill="#005942"/>
<path d="M368.062 30.5455V35.0909H356.562V30.5455H368.062ZM358.79 26.3636H365.062V42.3864C365.062 42.6288 365.104 42.8333 365.188 43C365.271 43.1591 365.4 43.2803 365.574 43.3636C365.748 43.4394 365.972 43.4773 366.244 43.4773C366.434 43.4773 366.653 43.4546 366.903 43.4091C367.161 43.3636 367.35 43.3258 367.472 43.2955L368.381 47.7046C368.1 47.7879 367.699 47.8902 367.176 48.0114C366.661 48.1326 366.047 48.2121 365.335 48.25C363.896 48.3258 362.687 48.178 361.71 47.8068C360.733 47.428 359.998 46.8333 359.506 46.0227C359.013 45.2121 358.775 44.197 358.79 42.9773V26.3636Z" fill="#005942"/>
<path d="M343.611 48.2727C342.497 48.2727 341.512 48.0909 340.656 47.7273C339.808 47.3561 339.141 46.7955 338.656 46.0455C338.171 45.2955 337.929 44.3409 337.929 43.1818C337.929 42.2273 338.092 41.4129 338.417 40.7386C338.743 40.0568 339.198 39.5 339.781 39.0682C340.364 38.6364 341.042 38.3068 341.815 38.0795C342.595 37.8523 343.436 37.7045 344.338 37.6364C345.315 37.5606 346.099 37.4697 346.69 37.3636C347.289 37.25 347.72 37.0947 347.986 36.8977C348.251 36.6932 348.383 36.4242 348.383 36.0909V36.0454C348.383 35.5909 348.209 35.2424 347.861 35C347.512 34.7576 347.065 34.6364 346.52 34.6364C345.921 34.6364 345.432 34.7689 345.054 35.0341C344.682 35.2917 344.459 35.6894 344.383 36.2273H338.611C338.686 35.1667 339.023 34.1894 339.622 33.2954C340.228 32.3939 341.111 31.6742 342.27 31.1364C343.429 30.5909 344.876 30.3182 346.611 30.3182C347.861 30.3182 348.982 30.4659 349.974 30.7614C350.967 31.0492 351.811 31.4545 352.508 31.9773C353.205 32.4924 353.736 33.0985 354.099 33.7954C354.47 34.4848 354.656 35.2348 354.656 36.0454V48H348.792V45.5455H348.656C348.308 46.197 347.883 46.7235 347.383 47.125C346.891 47.5265 346.326 47.8182 345.69 48C345.061 48.1818 344.368 48.2727 343.611 48.2727ZM345.656 44.3182C346.133 44.3182 346.58 44.2197 346.997 44.0227C347.421 43.8258 347.766 43.5417 348.031 43.1704C348.296 42.7992 348.429 42.3485 348.429 41.8182V40.3636C348.262 40.4318 348.084 40.4962 347.895 40.5568C347.713 40.6174 347.516 40.6742 347.304 40.7273C347.099 40.7803 346.879 40.8295 346.645 40.875C346.417 40.9204 346.179 40.9621 345.929 41C345.444 41.0758 345.046 41.2008 344.736 41.375C344.433 41.5417 344.205 41.75 344.054 42C343.91 42.2424 343.838 42.5151 343.838 42.8182C343.838 43.303 344.008 43.6742 344.349 43.9318C344.69 44.1894 345.126 44.3182 345.656 44.3182Z" fill="#005942"/>
<path d="M324.332 38.1818V48H318.06V24.7273H324.105V33.8637H324.287C324.681 32.75 325.336 31.8826 326.253 31.2614C327.169 30.6326 328.272 30.3182 329.56 30.3182C330.794 30.3182 331.866 30.5985 332.775 31.1591C333.692 31.7197 334.4 32.4924 334.9 33.4773C335.408 34.4621 335.658 35.5909 335.65 36.8637V48H329.378V38.1818C329.385 37.3182 329.169 36.6402 328.73 36.1478C328.298 35.6553 327.681 35.4091 326.878 35.4091C326.37 35.4091 325.923 35.5228 325.537 35.75C325.158 35.9697 324.863 36.2879 324.65 36.7046C324.446 37.1137 324.34 37.6061 324.332 38.1818Z" fill="#005942"/>
<path d="M288.878 48L282.014 24.7273H289.06L292.241 39.0455H292.423L296.196 24.7273H301.741L305.514 39.0909H305.696L308.878 24.7273H315.923L309.06 48H303.014L299.06 35H298.878L294.923 48H288.878Z" fill="#005942"/>
<path d="M273.827 36.2273H268.054C268.024 35.8712 267.899 35.5644 267.679 35.3068C267.459 35.0492 267.175 34.8523 266.827 34.7159C266.486 34.572 266.107 34.5 265.691 34.5C265.153 34.5 264.691 34.5985 264.304 34.7954C263.918 34.9924 263.728 35.2727 263.736 35.6364C263.728 35.8939 263.838 36.1326 264.066 36.3523C264.3 36.572 264.751 36.7424 265.418 36.8636L268.963 37.5C270.751 37.8258 272.081 38.375 272.952 39.1477C273.831 39.9129 274.274 40.9394 274.281 42.2273C274.274 43.4697 273.903 44.5492 273.168 45.4659C272.441 46.375 271.444 47.0795 270.179 47.5795C268.922 48.072 267.486 48.3182 265.872 48.3182C263.206 48.3182 261.119 47.7727 259.611 46.6818C258.111 45.5909 257.274 44.1515 257.1 42.3636H263.327C263.41 42.9167 263.683 43.3447 264.145 43.6477C264.615 43.9432 265.206 44.0909 265.918 44.0909C266.494 44.0909 266.967 43.9924 267.338 43.7954C267.717 43.5985 267.91 43.3182 267.918 42.9545C267.91 42.6212 267.744 42.3561 267.418 42.1591C267.1 41.9621 266.6 41.803 265.918 41.6818L262.827 41.1364C261.047 40.8258 259.713 40.2348 258.827 39.3636C257.941 38.4924 257.501 37.3712 257.509 36C257.501 34.7879 257.819 33.7614 258.463 32.9204C259.115 32.072 260.043 31.428 261.247 30.9886C262.459 30.5417 263.895 30.3182 265.554 30.3182C268.077 30.3182 270.066 30.8409 271.52 31.8864C272.982 32.9318 273.751 34.3788 273.827 36.2273Z" fill="#005942"/>
<path d="M256.835 24.7273V27.4546C256.835 28.197 256.684 28.9394 256.381 29.6818C256.085 30.4167 255.706 31.1023 255.244 31.7387C254.79 32.3674 254.32 32.894 253.835 33.3182L251.244 32C251.562 31.4546 251.846 30.822 252.096 30.1023C252.346 29.3826 252.471 28.5 252.471 27.4546V24.7273H256.835Z" fill="#005942"/>
<path d="M240.548 48.3182C238.685 48.3182 237.079 47.9621 235.73 47.25C234.389 46.5303 233.355 45.5 232.628 44.1591C231.908 42.8106 231.548 41.197 231.548 39.3182C231.548 37.5151 231.912 35.9394 232.639 34.5909C233.367 33.2424 234.393 32.1932 235.719 31.4432C237.045 30.6932 238.609 30.3182 240.412 30.3182C241.73 30.3182 242.923 30.5227 243.992 30.9318C245.06 31.3409 245.973 31.9356 246.73 32.7159C247.488 33.4886 248.071 34.428 248.48 35.5341C248.889 36.6401 249.094 37.8864 249.094 39.2727V40.7273H233.503V37.2727H243.321C243.313 36.7727 243.185 36.3333 242.935 35.9545C242.692 35.5682 242.363 35.2689 241.946 35.0568C241.537 34.8371 241.071 34.7273 240.548 34.7273C240.041 34.7273 239.575 34.8371 239.151 35.0568C238.726 35.2689 238.385 35.5644 238.128 35.9432C237.878 36.322 237.745 36.7651 237.73 37.2727V41C237.73 41.5606 237.848 42.0606 238.082 42.5C238.317 42.9394 238.654 43.2841 239.094 43.5341C239.533 43.7841 240.063 43.9091 240.685 43.9091C241.117 43.9091 241.51 43.8485 241.867 43.7273C242.23 43.6061 242.541 43.4318 242.798 43.2045C243.056 42.9697 243.245 42.6894 243.367 42.3636H249.094C248.897 43.5758 248.431 44.6288 247.696 45.5227C246.961 46.4091 245.988 47.0985 244.776 47.5909C243.571 48.0758 242.162 48.3182 240.548 48.3182Z" fill="#005942"/>
<path d="M219.31 48V30.5454H225.4V33.8636H225.582C225.9 32.6364 226.404 31.7386 227.094 31.1704C227.791 30.6023 228.605 30.3182 229.537 30.3182C229.81 30.3182 230.079 30.3409 230.344 30.3864C230.616 30.4242 230.878 30.4811 231.128 30.5568V35.9091C230.817 35.803 230.435 35.7235 229.98 35.6704C229.525 35.6174 229.135 35.5909 228.81 35.5909C228.196 35.5909 227.643 35.7311 227.15 36.0114C226.666 36.2841 226.283 36.6704 226.003 37.1704C225.722 37.6629 225.582 38.2424 225.582 38.9091V48H219.31Z" fill="#005942"/>
<path d="M208.205 48.3182C206.341 48.3182 204.735 47.9621 203.386 47.25C202.046 46.5303 201.011 45.5 200.284 44.1591C199.564 42.8106 199.205 41.197 199.205 39.3182C199.205 37.5151 199.568 35.9394 200.296 34.5909C201.023 33.2424 202.049 32.1932 203.375 31.4432C204.701 30.6932 206.265 30.3182 208.068 30.3182C209.386 30.3182 210.58 30.5227 211.648 30.9318C212.716 31.3409 213.629 31.9356 214.386 32.7159C215.144 33.4886 215.727 34.428 216.136 35.5341C216.546 36.6401 216.75 37.8864 216.75 39.2727V40.7273H201.159V37.2727H210.977C210.97 36.7727 210.841 36.3333 210.591 35.9545C210.349 35.5682 210.019 35.2689 209.602 35.0568C209.193 34.8371 208.727 34.7273 208.205 34.7273C207.697 34.7273 207.231 34.8371 206.807 35.0568C206.383 35.2689 206.042 35.5644 205.784 35.9432C205.534 36.322 205.402 36.7651 205.386 37.2727V41C205.386 41.5606 205.504 42.0606 205.739 42.5C205.974 42.9394 206.311 43.2841 206.75 43.5341C207.189 43.7841 207.72 43.9091 208.341 43.9091C208.773 43.9091 209.167 43.8485 209.523 43.7273C209.886 43.6061 210.197 43.4318 210.455 43.2045C210.712 42.9697 210.902 42.6894 211.023 42.3636H216.75C216.553 43.5758 216.087 44.6288 215.352 45.5227C214.617 46.4091 213.644 47.0985 212.432 47.5909C211.227 48.0758 209.818 48.3182 208.205 48.3182Z" fill="#005942"/>
<path d="M175.75 48V24.7273H182.068V33.8182H190.432V24.7273H196.75V48H190.432V38.9091H182.068V48H175.75Z" fill="#005942"/>
<path d="M130.349 52.2359C127.44 56.9163 122.7 56.2322 119.176 51.6139C114.621 45.6272 113.036 35.1311 115.852 28.1026C117.991 22.8001 122.069 20.3277 126.332 24.1685L130.225 21.3229C127.363 18.104 124.501 17.0156 122.023 17.0156C118.237 17.0156 115.344 19.5346 114.559 20.8408C110.774 23.1266 105.788 27.3251 93.6457 30.124C90.8603 30.7616 87.6594 32.7675 85.8742 36.4062C83.4735 37.5568 80.4111 40.6513 81.0421 45.9071C81.4576 49.4213 84.8893 52.3447 87.0746 52.7801C88.2903 54.475 89.8446 55.7657 91.7067 56.5898C90.6294 57.7094 89.4907 58.6424 88.2903 59.4354C84.7354 61.7834 80.5804 63.1207 75.6097 63.6961C75.6097 63.6961 63.2523 64.8467 58.6972 65.1266C47.971 65.7486 39.8456 73.0259 41.1383 84.595L44.8317 101.016H58.0662L55.1423 86.5854H58.4663L63.6371 101.016H87.8902L83.2119 78.0019C91.7682 75.1718 100.555 70.1803 106.188 61.177C106.988 59.8864 107.742 58.5335 108.404 57.0718C112.466 57.2584 115.267 58.0048 118.822 58.1137C121.3 60.1352 123.608 60.9437 125.67 60.9437C129.795 60.9437 132.949 57.6627 134.781 54.0552L130.364 52.267L130.349 52.2359Z" fill="#005942"/>
<path d="M47.7559 45.5183C47.7559 54.024 54.5886 60.9282 63.0064 60.9282C71.4242 60.9282 78.2569 54.024 78.2569 45.5183C78.2569 37.0126 71.4242 30.1085 63.0064 30.1085C54.5886 30.1085 47.7559 37.0126 47.7559 45.5183Z" fill="#005942"/>
<path d="M147.501 33.5865L134.38 35.2166L134.871 39.2448L147.991 37.6146L147.501 33.5865Z" fill="#005942"/>
<path d="M135.334 44.3336L133.84 48.1008L145.767 52.9311L147.262 49.1639L135.334 44.3336Z" fill="#005942"/>
<path d="M141.673 19.2557L131.257 26.86L133.61 30.1497L144.025 22.5453L141.673 19.2557Z" fill="#005942"/>
<path d="M124.178 33.7316L117.606 34.3692C117.422 38.381 118.145 42.6261 119.638 46.2647L126.009 44.7253C127.948 44.3988 129.102 41.6776 128.61 38.6298C128.102 35.5976 126.132 33.3895 124.193 33.7316H124.178Z" fill="#005942"/>
</svg>
