<svg width="82" height="81" viewBox="0 0 82 81" fill="none" xmlns="http://www.w3.org/2000/svg">
<g clip-path="url(#clip0_1649_317)">
<path d="M76.8183 47.6541C76.9339 47.0892 77.871 46.152 78.6156 45.4074C79.9893 44.0466 81.5298 42.4932 81.5298 40.4263C81.5298 38.3595 79.9764 36.8061 78.6156 35.4453C77.8582 34.7007 76.9339 33.7635 76.8183 33.1858C76.6899 32.5568 77.2035 31.2986 77.6143 30.2845C78.3332 28.5257 79.142 26.523 78.3589 24.6743C77.5758 22.8257 75.5859 22.0554 73.8271 21.375C72.8514 21.0027 71.6447 20.5277 71.3366 20.0655C71.0285 19.6034 71.0413 18.2939 71.0541 17.2412C71.0798 15.3669 71.1055 13.2358 69.7062 11.8236C68.3068 10.4115 66.1758 10.45 64.2886 10.4757C63.2359 10.4885 61.9264 10.5142 61.4643 10.1932C61.0149 9.88514 60.5399 8.67838 60.1548 7.7027C59.4744 5.94392 58.7041 3.94122 56.8555 3.17095C55.0068 2.38784 53.017 3.19662 51.2453 3.91554C50.2312 4.32635 48.973 4.8527 48.344 4.71149C47.7791 4.59595 46.842 3.65878 46.0845 2.91419C44.7237 1.54054 43.1703 0 41.1035 0C39.0366 0 37.4832 1.55338 36.1224 2.91419C35.3778 3.67162 34.4406 4.59595 33.8629 4.71149C33.2467 4.83987 31.9758 4.32635 30.9744 3.91554C29.2156 3.19662 27.2129 2.38784 25.3643 3.17095C23.5156 3.95405 22.7453 5.94392 22.0649 7.7027C21.6926 8.67838 21.2176 9.88514 20.7555 10.1932C20.2933 10.5014 18.9839 10.4885 17.9312 10.4757C16.0697 10.4628 13.9258 10.4115 12.5136 11.8236C11.1143 13.2358 11.1399 15.3541 11.1656 17.2412C11.1785 18.2939 11.2041 19.6034 10.8832 20.0655C10.5751 20.5149 9.36832 20.9899 8.39264 21.375C6.63386 22.0554 4.63116 22.8257 3.86089 24.6743C3.07778 26.523 3.88656 28.5257 4.60548 30.2845C5.01629 31.2986 5.52981 32.5568 5.40143 33.173C5.28589 33.7378 4.34873 34.675 3.60413 35.4324C2.23048 36.7932 0.689941 38.3466 0.689941 40.4135C0.689941 42.4804 2.24332 44.0209 3.60413 45.3946C4.36156 46.1392 5.28589 47.0764 5.40143 47.6541C5.52981 48.2703 5.01629 49.5412 4.60548 50.5554C3.88656 52.3142 3.07778 54.3169 3.86089 56.1655C4.644 58.0142 6.63386 58.7845 8.39264 59.4649C9.36832 59.8372 10.5751 60.3122 10.8832 60.7743C11.1913 61.2365 11.1785 62.5459 11.1656 63.5987C11.1399 65.473 11.1143 67.604 12.5136 69.0162C13.9129 70.4284 16.044 70.3899 17.9312 70.3642C18.9839 70.3514 20.2933 70.3257 20.7555 70.6466C21.2048 70.9547 21.6798 72.1615 22.0649 73.1372C22.7453 74.896 23.5156 76.8987 25.3643 77.6689C27.2129 78.452 29.2028 77.6432 30.9744 76.9243C31.9886 76.5135 33.2467 76 33.8758 76.1284C34.4406 76.2439 35.3778 77.1811 36.1224 77.9257C37.4832 79.2993 39.0366 80.8399 41.1035 80.8399C43.1703 80.8399 44.7109 79.2865 46.0845 77.9257C46.8291 77.1682 47.7663 76.2439 48.344 76.1284C48.973 76 50.2312 76.5135 51.2453 76.9243C53.0041 77.6432 55.0068 78.452 56.8555 77.6689C58.7041 76.8858 59.4744 74.896 60.1548 73.1372C60.5271 72.1615 61.0021 70.9547 61.4514 70.6466C61.9136 70.3385 63.2359 70.3514 64.2758 70.3642C66.1501 70.3899 68.2812 70.4155 69.6933 69.0162C71.1055 67.604 71.067 65.4858 71.0413 63.5987C71.0285 62.5459 71.0028 61.2365 71.3237 60.7743C71.6318 60.325 72.8386 59.85 73.8143 59.4777C75.5731 58.7973 77.5629 58.027 78.346 56.1784C79.1291 54.3297 78.3204 52.3399 77.6014 50.5682C77.1906 49.5541 76.6771 48.2959 76.8055 47.6669L76.8183 47.6541ZM64.1987 50.1703C62.9278 53.1615 61.092 55.8703 58.8325 58.1297C56.5602 60.402 53.8643 62.225 50.8731 63.4959C47.8818 64.7669 44.5825 65.4601 41.1291 65.4601C37.6758 65.4601 34.3764 64.7541 31.3852 63.4959C28.394 62.225 25.6852 60.3892 23.4258 58.1297C21.1663 55.8574 19.3305 53.1615 18.0595 50.1703C16.7886 47.1791 16.0953 43.8797 16.0953 40.4263C16.0953 36.973 16.8014 33.6736 18.0595 30.6824C19.3305 27.6912 21.1663 24.9824 23.4258 22.723C25.6852 20.4635 28.394 18.6277 31.3852 17.3568C34.3764 16.0858 37.6758 15.3926 41.1291 15.3926C44.5825 15.3926 47.8818 16.0986 50.8731 17.3568C53.8643 18.6277 56.573 20.4635 58.8325 22.723C61.092 24.9824 62.9278 27.6912 64.1987 30.6824C65.4697 33.6736 66.1629 36.973 66.1629 40.4263C66.1629 43.8797 65.4568 47.1791 64.1987 50.1703Z" fill="#1AA2FF"/>
<path d="M53.0939 26.2534C52.8885 26.048 52.5547 26.048 52.3493 26.2534L36.5331 42.0696L31.2182 36.7548C31.0128 36.5494 30.679 36.5494 30.4736 36.7548L24.979 42.2494C24.7736 42.4548 24.7736 42.7886 24.979 42.994L36.1479 54.1629C36.2506 54.2656 36.379 54.3169 36.5202 54.3169C36.6614 54.3169 36.7898 54.2656 36.8925 54.1629L58.5756 32.4798C58.781 32.2744 58.781 31.9406 58.5756 31.7352L53.081 26.2406L53.0939 26.2534Z" fill="#1AA2FF"/>
</g>
<defs>
<clipPath id="clip0_1649_317">
<rect width="80.8399" height="80.8399" fill="white" transform="translate(0.702637)"/>
</clipPath>
</defs>
</svg>
