<svg width="79" height="53" viewBox="0 0 79 53" fill="none" xmlns="http://www.w3.org/2000/svg">
<g clip-path="url(#clip0_1731_7602)">
<path d="M65.8059 20.8656C61.2039 21.4886 57.3014 24.0899 56.3176 31.1508C55.2135 38.9986 49.7698 43.7094 42.6536 44.5292C43.6483 45.9064 44.173 47.6224 44.02 49.4368C43.8997 50.7703 43.4406 51.9726 42.7301 52.9891C48.469 52.4863 53.716 50.3659 57.6403 46.7808L58.1759 52.847H78.9999L77.0651 30.3529C76.5622 24.6474 71.5229 20.3846 65.8168 20.8656H65.8059Z" fill="white"/>
<path d="M62.5484 18.9418C67.7626 18.4828 71.6323 13.8812 71.1732 8.66756C70.714 3.44297 66.112 -0.415346 60.8978 0.0437177C55.6836 0.502781 51.814 5.10435 52.2731 10.318C52.7322 15.5317 57.3342 19.4009 62.5484 18.9418Z" fill="white"/>
<path d="M21.2065 50.486C17.5227 47.7754 14.6806 44.2013 13.019 39.8839L15.8502 38.8127C19.1405 46.8682 26.9564 52.1802 36.3354 53C38.8605 53.1639 40.7188 51.3714 40.9155 49.1635C41.1232 46.8354 39.3961 44.7915 37.0677 44.5947C29.6454 43.9499 23.8738 39.1406 22.8571 30.9758C22.2122 25.7841 18.7251 21.3355 13.3907 20.8655C7.38946 20.3409 2.62344 24.8003 2.1534 30.1998L-0.0109863 52.847H20.977L21.1956 50.486H21.2065Z" fill="white"/>
<path d="M18.3099 18.9418C23.535 18.4828 27.3937 13.8812 26.9346 8.66755C26.4865 3.44296 21.8844 -0.415358 16.6593 0.032776C11.4451 0.49184 7.57542 5.09341 8.03454 10.3071C8.49365 15.5207 13.0957 19.39 18.3099 18.9309V18.9418Z" fill="white"/>
<path d="M37.6033 12.2635V14.4386C33.679 15.3349 32.3345 18.4609 32.3345 20.2534C32.3345 20.8655 32.4656 22.4176 33.6899 23.6855C34.9033 24.9425 36.8928 25.7841 39.4616 26.1229C40.7297 26.2978 41.6369 26.6257 42.1616 27.1066C42.6973 27.5875 42.8394 28.451 42.5333 29.2598C42.107 30.3638 40.9701 31.0087 39.4944 31.0087C38.3029 31.0087 37.2098 30.4403 36.6632 29.5331H32.5312C33.0669 31.6098 34.8049 33.3258 37.6033 34.0254V35.9818H41.3746V34.0254C42.905 33.6756 44.0746 32.9761 44.96 32.1017C45.8127 31.3038 46.6762 29.7736 46.6762 28.145C46.6762 26.8224 46.1406 25.6529 45.0912 24.6692C43.9872 23.6308 42.3147 22.9532 40.1066 22.6581C38.0843 22.3739 37.2754 21.8492 36.7944 21.412C36.3134 20.9858 36.1932 20.0895 36.4993 19.2697C36.707 18.7232 37.4175 17.4553 39.5054 17.4553C41.156 17.4553 42.5114 18.5265 42.6863 19.9037H46.6325C46.4904 17.3898 44.4572 15.1382 41.3855 14.4386V12.2635H37.6252H37.6033Z" fill="white"/>
</g>
<defs>
<clipPath id="clip0_1731_7602">
<rect width="79" height="53" fill="white"/>
</clipPath>
</defs>
</svg>
