<svg width="228" height="228" viewBox="0 0 228 228" fill="none" xmlns="http://www.w3.org/2000/svg">
<path d="M228 114C228 176.96 176.96 228 114 228C51.0395 228 0 176.96 0 114C0 51.0395 51.0395 0 114 0C176.96 0 228 51.0395 228 114Z" fill="#FF7E36"/>
<g clip-path="url(#clip0_3541_41)">
<path d="M139.806 68.8656C135.204 69.4886 131.301 72.0899 130.318 79.1508C129.214 86.9986 123.77 91.7094 116.654 92.5292C117.648 93.9064 118.173 95.6224 118.02 97.4368C117.9 98.7703 117.441 99.9726 116.73 100.989C122.469 100.486 127.716 98.3659 131.64 94.7808L132.176 100.847H153L151.065 78.3529C150.562 72.6474 145.523 68.3846 139.817 68.8656H139.806Z" fill="white"/>
<path d="M136.548 66.9418C141.763 66.4828 145.632 61.8812 145.173 56.6676C144.714 51.443 140.112 47.5847 134.898 48.0437C129.684 48.5028 125.814 53.1043 126.273 58.318C126.732 63.5317 131.334 67.4009 136.548 66.9418Z" fill="white"/>
<path d="M95.2065 98.486C91.5227 95.7754 88.6806 92.2013 87.019 87.8839L89.8502 86.8127C93.1405 94.8682 100.956 100.18 110.335 101C112.86 101.164 114.719 99.3714 114.916 97.1635C115.123 94.8354 113.396 92.7915 111.068 92.5947C103.645 91.9499 97.8738 87.1406 96.8572 78.9758C96.2122 73.7841 92.7251 69.3355 87.3907 68.8655C81.3895 68.3409 76.6234 72.8003 76.1534 78.1998L73.989 100.847H94.977L95.1956 98.486H95.2065Z" fill="white"/>
<path d="M92.3099 66.9418C97.535 66.4828 101.394 61.8812 100.935 56.6675C100.486 51.443 95.8844 47.5846 90.6593 48.0328C85.4451 48.4918 81.5754 53.0934 82.0345 58.3071C82.4936 63.5207 87.0957 67.39 92.3099 66.9309V66.9418Z" fill="white"/>
<path d="M111.603 60.2635V62.4386C107.679 63.3349 106.334 66.4609 106.334 68.2534C106.334 68.8655 106.466 70.4176 107.69 71.6855C108.903 72.9425 110.893 73.7841 113.462 74.1229C114.73 74.2978 115.637 74.6257 116.162 75.1066C116.697 75.5875 116.839 76.451 116.533 77.2598C116.107 78.3638 114.97 79.0087 113.494 79.0087C112.303 79.0087 111.21 78.4403 110.663 77.5331H106.531C107.067 79.6098 108.805 81.3258 111.603 82.0254V83.9818H115.375V82.0254C116.905 81.6756 118.075 80.9761 118.96 80.1017C119.813 79.3038 120.676 77.7736 120.676 76.145C120.676 74.8224 120.141 73.6529 119.091 72.6692C117.987 71.6308 116.315 70.9532 114.107 70.6581C112.084 70.3739 111.275 69.8492 110.794 69.412C110.313 68.9858 110.193 68.0895 110.499 67.2697C110.707 66.7232 111.417 65.4553 113.505 65.4553C115.156 65.4553 116.511 66.5265 116.686 67.9037H120.633C120.49 65.3898 118.457 63.1382 115.386 62.4386V60.2635H111.625H111.603Z" fill="white"/>
</g>
<path d="M143.356 150V152.5H136.13V150H143.356ZM137.771 147.125H141.099V158.312C141.099 158.62 141.146 158.859 141.239 159.031C141.333 159.198 141.463 159.315 141.63 159.383C141.802 159.451 142 159.484 142.224 159.484C142.38 159.484 142.536 159.471 142.692 159.445C142.849 159.414 142.968 159.391 143.052 159.375L143.575 161.852C143.409 161.904 143.174 161.964 142.872 162.031C142.57 162.104 142.203 162.148 141.771 162.164C140.968 162.195 140.265 162.089 139.661 161.844C139.062 161.599 138.596 161.219 138.263 160.703C137.929 160.188 137.765 159.536 137.771 158.75V147.125Z" fill="white"/>
<path d="M126.616 155.062V162H123.288V150H126.46V152.117H126.601C126.866 151.419 127.312 150.867 127.937 150.461C128.562 150.049 129.319 149.844 130.21 149.844C131.043 149.844 131.77 150.026 132.39 150.391C133.009 150.755 133.491 151.276 133.835 151.953C134.179 152.625 134.351 153.427 134.351 154.359V162H131.022V154.953C131.028 154.219 130.84 153.646 130.46 153.234C130.08 152.818 129.556 152.609 128.89 152.609C128.442 152.609 128.046 152.706 127.702 152.898C127.364 153.091 127.098 153.372 126.905 153.742C126.718 154.107 126.621 154.547 126.616 155.062Z" fill="white"/>
<path d="M113.948 162.227C113.183 162.227 112.5 162.094 111.901 161.828C111.302 161.557 110.828 161.159 110.479 160.633C110.136 160.102 109.964 159.44 109.964 158.648C109.964 157.982 110.086 157.422 110.331 156.969C110.576 156.516 110.909 156.151 111.331 155.875C111.753 155.599 112.232 155.391 112.769 155.25C113.31 155.109 113.878 155.01 114.472 154.953C115.17 154.88 115.732 154.813 116.159 154.75C116.586 154.682 116.896 154.583 117.089 154.453C117.282 154.323 117.378 154.13 117.378 153.875V153.828C117.378 153.333 117.222 152.951 116.909 152.68C116.602 152.409 116.164 152.273 115.597 152.273C114.998 152.273 114.521 152.406 114.167 152.672C113.813 152.932 113.578 153.26 113.464 153.656L110.386 153.406C110.542 152.677 110.849 152.047 111.308 151.516C111.766 150.979 112.357 150.568 113.081 150.281C113.81 149.99 114.654 149.844 115.612 149.844C116.279 149.844 116.917 149.922 117.526 150.078C118.141 150.234 118.685 150.477 119.159 150.805C119.638 151.133 120.016 151.555 120.292 152.07C120.568 152.581 120.706 153.193 120.706 153.906V162H117.55V160.336H117.456C117.263 160.711 117.006 161.042 116.683 161.328C116.36 161.609 115.972 161.831 115.519 161.992C115.065 162.148 114.542 162.227 113.948 162.227ZM114.901 159.93C115.391 159.93 115.823 159.833 116.198 159.641C116.573 159.443 116.868 159.177 117.081 158.844C117.295 158.51 117.401 158.133 117.401 157.711V156.438C117.297 156.505 117.154 156.568 116.972 156.625C116.795 156.677 116.594 156.727 116.37 156.773C116.146 156.815 115.922 156.854 115.698 156.891C115.474 156.922 115.271 156.951 115.089 156.977C114.698 157.034 114.357 157.125 114.065 157.25C113.774 157.375 113.547 157.544 113.386 157.758C113.224 157.966 113.144 158.227 113.144 158.539C113.144 158.992 113.308 159.339 113.636 159.578C113.969 159.813 114.391 159.93 114.901 159.93Z" fill="white"/>
<path d="M101.868 162V150H105.095V152.094H105.22C105.438 151.349 105.806 150.786 106.321 150.406C106.837 150.021 107.431 149.828 108.103 149.828C108.269 149.828 108.449 149.839 108.642 149.859C108.834 149.88 109.004 149.909 109.149 149.945V152.898C108.993 152.852 108.777 152.81 108.501 152.773C108.225 152.737 107.972 152.719 107.743 152.719C107.254 152.719 106.816 152.826 106.431 153.039C106.05 153.247 105.748 153.539 105.524 153.914C105.306 154.289 105.196 154.721 105.196 155.211V162H101.868Z" fill="white"/>
<path d="M95.8037 151.172C95.6943 150.792 95.5407 150.456 95.3428 150.164C95.1449 149.867 94.9027 149.617 94.6162 149.414C94.335 149.206 94.012 149.047 93.6475 148.938C93.2881 148.828 92.8896 148.773 92.4521 148.773C91.6344 148.773 90.9157 148.977 90.2959 149.383C89.6813 149.789 89.2021 150.38 88.8584 151.156C88.5146 151.927 88.3428 152.87 88.3428 153.984C88.3428 155.099 88.512 156.047 88.8506 156.828C89.1891 157.609 89.6683 158.206 90.2881 158.617C90.9079 159.023 91.6396 159.227 92.4834 159.227C93.249 159.227 93.9027 159.091 94.4443 158.82C94.9912 158.544 95.4079 158.156 95.6943 157.656C95.986 157.156 96.1318 156.565 96.1318 155.883L96.8193 155.984H92.6943V153.438H99.3896V155.453C99.3896 156.859 99.0928 158.068 98.499 159.078C97.9053 160.083 97.0876 160.859 96.0459 161.406C95.0042 161.948 93.8115 162.219 92.4678 162.219C90.9678 162.219 89.6501 161.888 88.5146 161.227C87.3792 160.56 86.4938 159.615 85.8584 158.391C85.2282 157.161 84.9131 155.703 84.9131 154.016C84.9131 152.719 85.1006 151.563 85.4756 150.547C85.8558 149.526 86.387 148.661 87.0693 147.953C87.7516 147.245 88.5459 146.706 89.4521 146.336C90.3584 145.966 91.3402 145.781 92.3975 145.781C93.3037 145.781 94.1475 145.914 94.9287 146.18C95.71 146.44 96.4027 146.81 97.0068 147.289C97.6162 147.768 98.1136 148.339 98.499 149C98.8844 149.656 99.1318 150.38 99.2412 151.172H95.8037Z" fill="white"/>
<path d="M194.675 127.422L191.628 127.609C191.576 127.349 191.464 127.115 191.292 126.906C191.12 126.693 190.894 126.523 190.612 126.398C190.336 126.268 190.006 126.203 189.62 126.203C189.104 126.203 188.67 126.313 188.315 126.531C187.961 126.745 187.784 127.031 187.784 127.391C187.784 127.677 187.899 127.919 188.128 128.117C188.357 128.315 188.75 128.474 189.308 128.594L191.479 129.031C192.646 129.271 193.516 129.656 194.089 130.188C194.662 130.719 194.948 131.417 194.948 132.281C194.948 133.068 194.716 133.758 194.253 134.352C193.795 134.945 193.164 135.409 192.362 135.742C191.565 136.07 190.646 136.234 189.604 136.234C188.016 136.234 186.75 135.904 185.808 135.242C184.87 134.576 184.321 133.669 184.159 132.523L187.433 132.352C187.532 132.836 187.771 133.206 188.151 133.461C188.532 133.711 189.019 133.836 189.612 133.836C190.196 133.836 190.664 133.724 191.019 133.5C191.378 133.271 191.56 132.977 191.565 132.617C191.56 132.315 191.433 132.068 191.183 131.875C190.933 131.677 190.547 131.526 190.026 131.422L187.948 131.008C186.776 130.773 185.904 130.367 185.331 129.789C184.763 129.211 184.479 128.474 184.479 127.578C184.479 126.807 184.688 126.143 185.104 125.586C185.526 125.029 186.118 124.599 186.878 124.297C187.644 123.995 188.539 123.844 189.565 123.844C191.081 123.844 192.274 124.164 193.144 124.805C194.019 125.445 194.529 126.318 194.675 127.422Z" fill="white"/>
<path d="M175.688 136V124H178.915V126.094H179.04C179.259 125.349 179.626 124.786 180.142 124.406C180.657 124.021 181.251 123.828 181.923 123.828C182.09 123.828 182.269 123.839 182.462 123.859C182.655 123.88 182.824 123.909 182.97 123.945V126.898C182.813 126.852 182.597 126.81 182.321 126.773C182.045 126.737 181.793 126.719 181.563 126.719C181.074 126.719 180.636 126.826 180.251 127.039C179.871 127.247 179.569 127.539 179.345 127.914C179.126 128.289 179.017 128.721 179.017 129.211V136H175.688Z" fill="white"/>
<path d="M168.009 136.234C166.774 136.234 165.712 135.984 164.821 135.484C163.936 134.979 163.254 134.266 162.774 133.344C162.295 132.417 162.056 131.32 162.056 130.055C162.056 128.82 162.295 127.737 162.774 126.805C163.254 125.872 163.928 125.146 164.798 124.625C165.673 124.104 166.699 123.844 167.876 123.844C168.668 123.844 169.405 123.971 170.087 124.227C170.774 124.477 171.373 124.854 171.884 125.359C172.399 125.865 172.8 126.5 173.087 127.266C173.373 128.026 173.517 128.917 173.517 129.938V130.852H163.384V128.789H170.384C170.384 128.31 170.28 127.885 170.071 127.516C169.863 127.146 169.574 126.857 169.204 126.648C168.84 126.435 168.415 126.328 167.931 126.328C167.425 126.328 166.978 126.445 166.587 126.68C166.201 126.909 165.899 127.219 165.681 127.609C165.462 127.995 165.35 128.424 165.345 128.898V130.859C165.345 131.453 165.454 131.966 165.673 132.398C165.897 132.831 166.212 133.164 166.618 133.398C167.024 133.633 167.506 133.75 168.063 133.75C168.433 133.75 168.772 133.698 169.079 133.594C169.386 133.49 169.649 133.333 169.868 133.125C170.087 132.917 170.254 132.661 170.368 132.359L173.446 132.562C173.29 133.302 172.97 133.948 172.485 134.5C172.006 135.047 171.386 135.474 170.626 135.781C169.871 136.083 168.998 136.234 168.009 136.234Z" fill="white"/>
<path d="M153.245 132.547L153.253 128.555H153.737L157.581 124H161.401L156.237 130.031H155.448L153.245 132.547ZM150.229 136V120H153.558V136H150.229ZM157.729 136L154.198 130.773L156.417 128.422L161.628 136H157.729Z" fill="white"/>
<path d="M140.89 136.227C140.124 136.227 139.442 136.094 138.843 135.828C138.244 135.557 137.77 135.159 137.421 134.633C137.077 134.102 136.905 133.44 136.905 132.648C136.905 131.982 137.028 131.422 137.272 130.969C137.517 130.516 137.851 130.151 138.272 129.875C138.694 129.599 139.174 129.391 139.71 129.25C140.252 129.109 140.819 129.01 141.413 128.953C142.111 128.88 142.674 128.813 143.101 128.75C143.528 128.682 143.838 128.583 144.03 128.453C144.223 128.323 144.319 128.13 144.319 127.875V127.828C144.319 127.333 144.163 126.951 143.851 126.68C143.543 126.409 143.106 126.273 142.538 126.273C141.939 126.273 141.463 126.406 141.108 126.672C140.754 126.932 140.52 127.26 140.405 127.656L137.327 127.406C137.483 126.677 137.791 126.047 138.249 125.516C138.707 124.979 139.299 124.568 140.022 124.281C140.752 123.99 141.595 123.844 142.554 123.844C143.22 123.844 143.858 123.922 144.468 124.078C145.082 124.234 145.627 124.477 146.101 124.805C146.58 125.133 146.957 125.555 147.233 126.07C147.509 126.581 147.647 127.193 147.647 127.906V136H144.491V134.336H144.397C144.205 134.711 143.947 135.042 143.624 135.328C143.301 135.609 142.913 135.831 142.46 135.992C142.007 136.148 141.483 136.227 140.89 136.227ZM141.843 133.93C142.332 133.93 142.765 133.833 143.14 133.641C143.515 133.443 143.809 133.177 144.022 132.844C144.236 132.51 144.343 132.133 144.343 131.711V130.438C144.239 130.505 144.095 130.568 143.913 130.625C143.736 130.677 143.535 130.727 143.312 130.773C143.088 130.815 142.864 130.854 142.64 130.891C142.416 130.922 142.213 130.951 142.03 130.977C141.64 131.034 141.299 131.125 141.007 131.25C140.715 131.375 140.489 131.544 140.327 131.758C140.166 131.966 140.085 132.227 140.085 132.539C140.085 132.992 140.249 133.339 140.577 133.578C140.91 133.813 141.332 133.93 141.843 133.93Z" fill="white"/>
<path d="M117.401 136V124H120.573V126.117H120.714C120.964 125.414 121.381 124.859 121.964 124.453C122.547 124.047 123.245 123.844 124.058 123.844C124.881 123.844 125.581 124.049 126.159 124.461C126.737 124.867 127.123 125.419 127.315 126.117H127.44C127.685 125.43 128.128 124.88 128.769 124.469C129.414 124.052 130.177 123.844 131.058 123.844C132.177 123.844 133.086 124.201 133.784 124.914C134.487 125.622 134.839 126.628 134.839 127.93V136H131.519V128.586C131.519 127.919 131.341 127.419 130.987 127.086C130.633 126.753 130.19 126.586 129.659 126.586C129.055 126.586 128.584 126.779 128.245 127.164C127.907 127.544 127.737 128.047 127.737 128.672V136H124.511V128.516C124.511 127.927 124.341 127.458 124.003 127.109C123.67 126.76 123.229 126.586 122.683 126.586C122.313 126.586 121.979 126.68 121.683 126.867C121.391 127.049 121.159 127.307 120.987 127.641C120.815 127.969 120.729 128.354 120.729 128.797V136H117.401Z" fill="white"/>
<path d="M109.722 136.234C108.487 136.234 107.425 135.984 106.534 135.484C105.649 134.979 104.966 134.266 104.487 133.344C104.008 132.417 103.769 131.32 103.769 130.055C103.769 128.82 104.008 127.737 104.487 126.805C104.966 125.872 105.641 125.146 106.511 124.625C107.386 124.104 108.412 123.844 109.589 123.844C110.381 123.844 111.118 123.971 111.8 124.227C112.487 124.477 113.086 124.854 113.597 125.359C114.112 125.865 114.513 126.5 114.8 127.266C115.086 128.026 115.229 128.917 115.229 129.938V130.852H105.097V128.789H112.097C112.097 128.31 111.993 127.885 111.784 127.516C111.576 127.146 111.287 126.857 110.917 126.648C110.552 126.435 110.128 126.328 109.644 126.328C109.138 126.328 108.69 126.445 108.3 126.68C107.914 126.909 107.612 127.219 107.394 127.609C107.175 127.995 107.063 128.424 107.058 128.898V130.859C107.058 131.453 107.167 131.966 107.386 132.398C107.61 132.831 107.925 133.164 108.331 133.398C108.737 133.633 109.219 133.75 109.776 133.75C110.146 133.75 110.485 133.698 110.792 133.594C111.099 133.49 111.362 133.333 111.581 133.125C111.8 132.917 111.966 132.661 112.081 132.359L115.159 132.562C115.003 133.302 114.683 133.948 114.198 134.5C113.719 135.047 113.099 135.474 112.339 135.781C111.584 136.083 110.711 136.234 109.722 136.234Z" fill="white"/>
<path d="M95.7373 140.75C94.6592 140.75 93.7347 140.602 92.9639 140.305C92.1982 140.013 91.5889 139.615 91.1357 139.109C90.6826 138.604 90.3883 138.036 90.2529 137.406L93.3311 136.992C93.4248 137.232 93.5732 137.456 93.7764 137.664C93.9795 137.872 94.2477 138.039 94.5811 138.164C94.9196 138.294 95.3311 138.359 95.8154 138.359C96.5394 138.359 97.1357 138.182 97.6045 137.828C98.0785 137.479 98.3154 136.893 98.3154 136.07V133.875H98.1748C98.029 134.208 97.8102 134.523 97.5186 134.82C97.2269 135.117 96.8519 135.359 96.3936 135.547C95.9352 135.734 95.3883 135.828 94.7529 135.828C93.8519 135.828 93.0316 135.62 92.292 135.203C91.5576 134.781 90.9717 134.138 90.5342 133.273C90.1019 132.404 89.8857 131.305 89.8857 129.977C89.8857 128.617 90.1071 127.482 90.5498 126.57C90.9925 125.659 91.5811 124.977 92.3154 124.523C93.055 124.07 93.8649 123.844 94.7451 123.844C95.417 123.844 95.9795 123.958 96.4326 124.188C96.8857 124.411 97.2503 124.693 97.5264 125.031C97.8076 125.365 98.0238 125.693 98.1748 126.016H98.2998V124H101.604V136.117C101.604 137.138 101.354 137.992 100.854 138.68C100.354 139.367 99.6618 139.883 98.7764 140.227C97.8962 140.576 96.8831 140.75 95.7373 140.75ZM95.8076 133.328C96.3441 133.328 96.7972 133.195 97.167 132.93C97.542 132.659 97.8285 132.273 98.0264 131.773C98.2295 131.268 98.3311 130.664 98.3311 129.961C98.3311 129.258 98.2321 128.648 98.0342 128.133C97.8363 127.612 97.5498 127.208 97.1748 126.922C96.7998 126.635 96.3441 126.492 95.8076 126.492C95.2607 126.492 94.7998 126.641 94.4248 126.937C94.0498 127.229 93.766 127.635 93.5732 128.156C93.3805 128.677 93.2842 129.279 93.2842 129.961C93.2842 130.654 93.3805 131.253 93.5732 131.758C93.7712 132.258 94.055 132.646 94.4248 132.922C94.7998 133.193 95.2607 133.328 95.8076 133.328Z" fill="white"/>
<path d="M79.9736 129.062V136H76.6455V124H79.8174V126.117H79.958C80.2236 125.419 80.6689 124.867 81.2939 124.461C81.9189 124.049 82.6768 123.844 83.5674 123.844C84.4007 123.844 85.1273 124.026 85.7471 124.391C86.3669 124.755 86.8486 125.276 87.1924 125.953C87.5361 126.625 87.708 127.427 87.708 128.359V136H84.3799V128.953C84.3851 128.219 84.1976 127.646 83.8174 127.234C83.4372 126.818 82.9137 126.609 82.2471 126.609C81.7992 126.609 81.4033 126.706 81.0596 126.898C80.721 127.091 80.4554 127.372 80.2627 127.742C80.0752 128.107 79.9788 128.547 79.9736 129.062Z" fill="white"/>
<path d="M67.3057 136.227C66.54 136.227 65.8577 136.094 65.2588 135.828C64.6598 135.557 64.1859 135.159 63.8369 134.633C63.4932 134.102 63.3213 133.44 63.3213 132.648C63.3213 131.982 63.4437 131.422 63.6885 130.969C63.9333 130.516 64.2666 130.151 64.6885 129.875C65.1104 129.599 65.5895 129.391 66.126 129.25C66.6676 129.109 67.2354 129.01 67.8291 128.953C68.527 128.88 69.0895 128.813 69.5166 128.75C69.9437 128.682 70.2536 128.583 70.4463 128.453C70.639 128.323 70.7354 128.13 70.7354 127.875V127.828C70.7354 127.333 70.5791 126.951 70.2666 126.68C69.9593 126.409 69.5218 126.273 68.9541 126.273C68.3551 126.273 67.8786 126.406 67.5244 126.672C67.1702 126.932 66.9359 127.26 66.8213 127.656L63.7432 127.406C63.8994 126.677 64.2067 126.047 64.665 125.516C65.1234 124.979 65.7145 124.568 66.4385 124.281C67.1676 123.99 68.0114 123.844 68.9697 123.844C69.6364 123.844 70.2744 123.922 70.8838 124.078C71.4984 124.234 72.0426 124.477 72.5166 124.805C72.9958 125.133 73.3734 125.555 73.6494 126.07C73.9255 126.581 74.0635 127.193 74.0635 127.906V136H70.9072V134.336H70.8135C70.6208 134.711 70.363 135.042 70.04 135.328C69.7171 135.609 69.3291 135.831 68.876 135.992C68.4229 136.148 67.8994 136.227 67.3057 136.227ZM68.2588 133.93C68.7484 133.93 69.1807 133.833 69.5557 133.641C69.9307 133.443 70.2249 133.177 70.4385 132.844C70.652 132.51 70.7588 132.133 70.7588 131.711V130.438C70.6546 130.505 70.5114 130.568 70.3291 130.625C70.152 130.677 69.9515 130.727 69.7275 130.773C69.5036 130.815 69.2796 130.854 69.0557 130.891C68.8317 130.922 68.6286 130.951 68.4463 130.977C68.0557 131.034 67.7145 131.125 67.4229 131.25C67.1312 131.375 66.9046 131.544 66.7432 131.758C66.5817 131.966 66.501 132.227 66.501 132.539C66.501 132.992 66.665 133.339 66.9932 133.578C67.3265 133.813 67.7484 133.93 68.2588 133.93Z" fill="white"/>
<path d="M53.4834 129.062V136H50.1553V120H53.3896V126.117H53.5303C53.8011 125.409 54.2386 124.854 54.8428 124.453C55.4469 124.047 56.2048 123.844 57.1162 123.844C57.9495 123.844 58.6761 124.026 59.2959 124.391C59.9209 124.75 60.4053 125.268 60.749 125.945C61.098 126.617 61.2699 127.422 61.2646 128.359V136H57.9365V128.953C57.9417 128.214 57.7542 127.638 57.374 127.227C56.999 126.815 56.473 126.609 55.7959 126.609C55.3428 126.609 54.9417 126.706 54.5928 126.898C54.249 127.091 53.9782 127.372 53.7803 127.742C53.5876 128.107 53.4886 128.547 53.4834 129.062Z" fill="white"/>
<path d="M47.792 125.602H44.3701C44.3076 125.159 44.18 124.766 43.9873 124.422C43.7946 124.073 43.5472 123.776 43.2451 123.531C42.943 123.286 42.5941 123.099 42.1982 122.969C41.8076 122.839 41.3831 122.773 40.9248 122.773C40.0967 122.773 39.3753 122.979 38.7607 123.391C38.1462 123.797 37.6696 124.391 37.3311 125.172C36.9925 125.948 36.8232 126.891 36.8232 128C36.8232 129.141 36.9925 130.099 37.3311 130.875C37.6748 131.651 38.154 132.237 38.7686 132.633C39.3831 133.029 40.0941 133.227 40.9014 133.227C41.3545 133.227 41.7738 133.167 42.1592 133.047C42.5498 132.927 42.8962 132.753 43.1982 132.523C43.5003 132.289 43.7503 132.005 43.9482 131.672C44.1514 131.339 44.292 130.958 44.3701 130.531L47.792 130.547C47.7035 131.281 47.4821 131.99 47.1279 132.672C46.779 133.349 46.3076 133.956 45.7139 134.492C45.1253 135.023 44.4222 135.445 43.6045 135.758C42.792 136.065 41.8727 136.219 40.8467 136.219C39.4196 136.219 38.1436 135.896 37.0186 135.25C35.8988 134.604 35.0133 133.669 34.3623 132.445C33.7165 131.221 33.3936 129.74 33.3936 128C33.3936 126.255 33.7217 124.771 34.3779 123.547C35.0342 122.323 35.9248 121.391 37.0498 120.75C38.1748 120.104 39.4404 119.781 40.8467 119.781C41.7738 119.781 42.6331 119.911 43.4248 120.172C44.2217 120.432 44.9274 120.812 45.542 121.312C46.1566 121.807 46.6566 122.414 47.042 123.133C47.4326 123.852 47.6826 124.674 47.792 125.602Z" fill="white"/>
<defs>
<clipPath id="clip0_3541_41">
<rect width="79" height="53" fill="white" transform="translate(74 48)"/>
</clipPath>
</defs>
</svg>
