<svg width="72" height="68" viewBox="0 0 72 68" fill="none" xmlns="http://www.w3.org/2000/svg">
<g clip-path="url(#clip0_1730_6990)">
<path d="M57.6123 23.429L57.1576 23.6687L54.3892 25.1267L54.3487 25.1467L54.3892 25.1667L61.8458 27.953L62.8562 23.6687L63.6645 20.2332L60.2999 22.0009C56.9454 17.1373 52.136 13.3224 46.4879 11.1852C46.205 12.1639 45.7908 13.0827 45.2654 13.9315C50.287 15.7991 54.5811 19.1446 57.6022 23.419L57.6123 23.429Z" fill="#005942"/>
<path d="M47.0637 61.9178C47.6194 62.7367 48.0236 63.6555 48.2762 64.6641C53.1361 62.4471 57.2888 58.9517 60.2896 54.6174H56.5108C53.9849 57.7133 50.7516 60.23 47.0637 61.9178Z" fill="#005942"/>
<path d="M15.5296 54.6077H11.7507C14.7314 58.9319 18.8739 62.4173 23.7238 64.6344C23.9865 63.6257 24.3906 62.7069 24.9464 61.898C21.2686 60.2003 18.0454 57.6936 15.5296 54.6077Z" fill="#005942"/>
<path d="M50.3274 29.3909C50.3274 23.1192 46.1949 20.0632 40.4761 19.0945L36.0001 23.5186L31.5241 19.0945C25.8053 20.0632 21.6729 23.1192 21.6729 29.3909V30.8589H50.3172V29.3909H50.3274Z" fill="#005942"/>
<path d="M36.0001 16.568C40.6277 16.568 44.3762 12.8629 44.3762 8.28891C44.3762 3.71496 40.6277 -0.00012207 36.0001 -0.00012207C31.3726 -0.00012207 27.624 3.70497 27.624 8.28891C27.624 12.8728 31.3726 16.568 36.0001 16.568Z" fill="#005942"/>
<path d="M20.1775 51.4219C20.1775 47.1575 17.4595 45.0004 13.6403 44.2513L10.0837 47.7667L6.52718 44.2513C2.70792 45.0004 -0.0100098 47.1575 -0.0100098 51.4219V52.1109H20.1674V51.4219H20.1775Z" fill="#005942"/>
<path d="M10.0835 42.3936C13.3369 42.3936 15.9842 39.787 15.9842 36.5613C15.9842 33.3356 13.3369 30.729 10.0835 30.729C6.83007 30.729 4.18286 33.3356 4.18286 36.5613C4.18286 39.787 6.83007 42.3936 10.0835 42.3936Z" fill="#005942"/>
<path d="M61.9165 47.7667L58.3599 44.2513C54.5407 45.0004 51.8228 47.1575 51.8228 51.4219V52.1109H72.0001V51.4219C72.0001 47.1575 69.2822 45.0004 65.4629 44.2513L61.9064 47.7667H61.9165Z" fill="#005942"/>
<path d="M56.0159 36.5715C56.0159 39.7873 58.653 42.4038 61.9165 42.4038C65.1801 42.4038 67.8172 39.7973 67.8172 36.5715C67.8172 33.3458 65.17 30.7393 61.9165 30.7393C58.6631 30.7393 56.0159 33.3458 56.0159 36.5715Z" fill="#005942"/>
<path d="M39.5567 60.1404L36.0203 63.6358L32.484 60.1404C28.6546 60.8894 25.9165 63.0366 25.9165 67.3209V68.01H46.0939V67.3209C46.0939 63.0565 43.3759 60.8994 39.5567 60.1504V60.1404Z" fill="#005942"/>
<path d="M36 58.2826C39.2636 58.2826 41.9007 55.6661 41.9007 52.4503C41.9007 49.2346 39.2534 46.618 36 46.618C32.7466 46.618 30.0994 49.2346 30.0994 52.4503C30.0994 55.6661 32.7365 58.2826 36 58.2826Z" fill="#005942"/>
<path d="M16.6511 25.5462L17.7221 25.1468L16.6511 24.5875L14.9031 23.6687L14.4383 23.4191C17.4594 19.1547 21.7333 15.8191 26.7347 13.9516C26.1992 13.1027 25.785 12.1839 25.5122 11.2152C19.8843 13.3524 15.0951 17.1474 11.7507 22.0009L8.39624 20.2333L9.20455 23.6687L10.2149 27.9531L16.6511 25.5462Z" fill="#005942"/>
</g>
<defs>
<clipPath id="clip0_1730_6990">
<rect width="72" height="68" fill="white"/>
</clipPath>
</defs>
</svg>
