<svg width="88" height="84" viewBox="0 0 88 84" fill="none" xmlns="http://www.w3.org/2000/svg">
<g clip-path="url(#clip0_1648_298)">
<path d="M69.9149 28.7696L65.9993 30.8622L65.948 30.8878L65.9993 30.9135L75.05 34.3284L77.2709 24.8541L73.1885 27.0237C69.1189 21.0541 63.2777 16.3682 56.4223 13.7493C56.0885 14.9432 55.575 16.0858 54.9331 17.1128C61.0311 19.4108 66.2304 23.5061 69.902 28.7568L69.9149 28.7696Z" fill="#FF7E36"/>
<path d="M57.1284 76.0257C57.796 77.027 58.2967 78.1567 58.6048 79.3892C64.5102 76.6675 69.5426 72.3797 73.1757 67.052H68.5926C65.5244 70.852 61.6088 73.9459 57.1284 76.0257Z" fill="#FF7E36"/>
<path d="M18.846 67.052H14.2629C17.8832 72.3669 22.9028 76.6419 28.7954 79.3763C29.1035 78.1439 29.6042 77.0142 30.2846 76.0128C25.817 73.9331 21.9143 70.852 18.8589 67.0648L18.846 67.052Z" fill="#FF7E36"/>
<path d="M49.1305 23.4419L43.7001 28.8723L38.2697 23.4419C31.3372 24.6358 26.3176 28.3845 26.3176 36.0872V37.8845H61.0825V36.0872C61.0825 28.3845 56.0629 24.6358 49.1305 23.4419Z" fill="#FF7E36"/>
<path d="M43.7 20.348C49.323 20.348 53.8676 15.7905 53.8676 10.1804C53.8676 4.57027 49.3102 0 43.7 0C38.0899 0 33.5325 4.55743 33.5325 10.1804C33.5325 15.8034 38.0899 20.348 43.7 20.348Z" fill="#FF7E36"/>
<path d="M24.4817 63.1493C24.4817 57.9115 21.1823 55.2669 16.5479 54.3426L12.2344 58.6561L7.92084 54.3426C3.28639 55.2669 -0.0129395 57.9115 -0.0129395 63.1493V63.9966H24.4688V63.1493H24.4817Z" fill="#FF7E36"/>
<path d="M12.2473 52.0575C16.2013 52.0575 19.4108 48.848 19.4108 44.894C19.4108 40.9399 16.2013 37.7305 12.2473 37.7305C8.2932 37.7305 5.08374 40.9399 5.08374 44.894C5.08374 48.848 8.2932 52.0575 12.2473 52.0575Z" fill="#FF7E36"/>
<path d="M75.1528 58.6561L70.8393 54.3426C66.2048 55.2669 62.9055 57.9115 62.9055 63.1493V63.9966H87.3873V63.1493C87.3873 57.9115 84.0879 55.2669 79.4535 54.3426L75.14 58.6561H75.1528Z" fill="#FF7E36"/>
<path d="M67.9893 44.9068C67.9893 48.8609 71.1987 52.0703 75.1528 52.0703C79.1068 52.0703 82.3163 48.8609 82.3163 44.9068C82.3163 40.9527 79.1068 37.7433 75.1528 37.7433C71.1987 37.7433 67.9893 40.9527 67.9893 44.9068Z" fill="#FF7E36"/>
<path d="M31.4528 82.65V83.4973H55.9345V82.65C55.9345 77.4122 52.6352 74.7676 48.0008 73.8433L43.7129 78.1311L39.4122 73.8304C34.7649 74.7419 31.4399 77.3865 31.4399 82.65H31.4528Z" fill="#FF7E36"/>
<path d="M50.8634 64.4075C50.8634 60.4534 47.6539 57.244 43.6999 57.244C39.7458 57.244 36.5364 60.4534 36.5364 64.4075C36.5364 68.3615 39.7458 71.571 43.6999 71.571C47.6539 71.571 50.8634 68.3615 50.8634 64.4075Z" fill="#FF7E36"/>
<path d="M21.5162 30.8879L17.5237 28.7696C21.1953 23.5318 26.3818 19.4365 32.4541 17.1385C31.8122 16.0987 31.2987 14.9689 30.9649 13.775C24.1351 16.4068 18.3196 21.0669 14.25 27.0237L10.1804 24.8541L12.4014 34.3284L21.5034 30.8879H21.5162Z" fill="#FF7E36"/>
</g>
<defs>
<clipPath id="clip0_1648_298">
<rect width="87.3872" height="83.4973" fill="white"/>
</clipPath>
</defs>
</svg>
