<svg width="82" height="80" viewBox="0 0 82 80" fill="none" xmlns="http://www.w3.org/2000/svg">
<g clip-path="url(#clip0_1648_290)">
<path d="M29.0886 11.6011L25.5641 11.9857C25.2527 11.9857 25.0036 12.2339 25.0036 12.544V17.4202C24.9912 17.7304 25.2403 17.9786 25.5516 17.9786L29.0762 18.388C29.6117 20.2616 30.5956 21.9986 31.978 23.4503L30.5458 26.6763C30.3839 26.9368 30.4835 27.2842 30.7451 27.4331L34.9671 29.8898C35.2411 30.0387 35.5773 29.9519 35.7393 29.6913L37.8565 26.8624C39.8118 27.3587 41.8294 27.3463 43.7349 26.8872L45.8272 29.7409C45.9767 30.0139 46.313 30.1008 46.587 29.9519L50.8463 27.5324C51.1203 27.3835 51.2075 27.0361 51.0581 26.7755L49.6632 23.5247C50.3357 22.8299 50.9584 22.0482 51.4691 21.1797C51.9921 20.2988 52.3658 19.3682 52.6398 18.4252L56.1643 18.0406C56.4757 18.0406 56.7248 17.7924 56.7248 17.4823V12.6061C56.7248 12.2959 56.4882 12.0477 56.1768 12.0477L52.6522 11.6383C52.1167 9.76475 51.1328 8.02769 49.7504 6.576L51.1826 3.35003C51.3445 3.08947 51.2449 2.74206 50.9833 2.59317L46.7613 0.13647C46.4873 -0.012421 46.1511 0.0744321 46.0016 0.334991L43.8719 3.16392C41.9166 2.66762 39.899 2.68002 37.9935 3.1391L35.9012 0.285361C35.7517 0.0123942 35.403 -0.0744588 35.1414 0.074432L30.8821 2.49391C30.6205 2.6428 30.5209 2.99021 30.6703 3.25077L32.0652 6.50156C31.3927 7.19638 30.77 7.97806 30.2593 8.84659C29.7363 9.72752 29.3626 10.6581 29.0886 11.6011ZM35.8513 12.0974C37.4704 9.34289 41.0199 8.41232 43.7972 10.0253C46.5621 11.6383 47.4961 15.1744 45.8771 17.9289C44.258 20.6834 40.7085 21.614 37.9437 20.001C35.1788 18.388 34.2447 14.8519 35.8638 12.0974H35.8513Z" fill="#F6B74B"/>
<path d="M17.4939 39.1707C12.2506 39.1707 8.01611 43.4017 8.01611 48.6253C8.01611 53.8489 12.263 58.0675 17.4939 58.0675C22.7247 58.0675 26.9716 53.8365 26.9716 48.6253C26.9716 43.4141 22.7247 39.1707 17.4939 39.1707Z" fill="#F6B74B"/>
<path d="M18.0543 79.3713V70.7108C18.0543 66.4798 19.5861 62.8816 22.3386 60.1023C20.7818 59.8417 19.1502 59.7177 17.4938 59.7177C8.45198 59.7177 0.418945 63.4523 0.418945 71.7158V79.3713H6.6212L6.99483 72.7828H9.42342V79.3713H18.0418H18.0543Z" fill="#F6B74B"/>
<path d="M73.7126 48.6129C73.7126 43.3893 69.4656 39.1583 64.2224 39.1583C58.9791 39.1583 54.7322 43.3893 54.7322 48.6129C54.7322 53.8365 58.9791 58.055 64.2224 58.055C69.4656 58.055 73.7126 53.824 73.7126 48.6129Z" fill="#F6B74B"/>
<path d="M64.2224 59.7301C62.5535 59.7301 60.922 59.8541 59.3777 60.1147C62.1301 62.9064 63.662 66.5046 63.662 70.7232V79.3837H72.3302V72.7952H74.709L75.0826 79.3837H81.2973V71.7282C81.2973 63.4648 73.2643 59.7301 64.2224 59.7301Z" fill="#F6B74B"/>
<path d="M47.5336 57.4595L40.858 63.5268L34.1825 57.4719C26.7224 58.998 21.0557 63.2538 21.0557 70.7232V79.5946H28.2543L28.6902 71.9639H31.0191V79.5946H50.6845V71.9639H53.001L53.4369 79.5946H60.6355V70.7232C60.6355 63.2042 54.9812 58.9732 47.5211 57.4595H47.5336Z" fill="#F6B74B"/>
<path d="M40.8583 33.1158C34.793 33.1158 29.8611 38.0168 29.8611 44.0717C29.8611 50.1266 34.7805 55.0276 40.8583 55.0276C46.936 55.0276 51.8554 50.1266 51.8554 44.0717C51.8554 38.0168 46.936 33.1158 40.8583 33.1158Z" fill="#F6B74B"/>
</g>
<defs>
<clipPath id="clip0_1648_290">
<rect width="80.8784" height="79.5946" fill="white" transform="translate(0.418945)"/>
</clipPath>
</defs>
</svg>
