<svg width="93" height="71" viewBox="0 0 93 71" fill="none" xmlns="http://www.w3.org/2000/svg">
<g clip-path="url(#clip0_1648_275)">
<path d="M88.7824 1.52588e-05H27.9967C25.6742 1.52588e-05 23.7791 1.88991 23.7791 4.20609V14.7213C25.3464 15.2755 26.7998 16.0854 28.0822 17.1085V4.29135H88.6827V49.1514H55.1123C52.6758 50.6435 50.0112 52.0929 47.2184 53.4428H88.7824C91.105 53.4428 93.0001 51.5529 93.0001 49.2367V4.20609C93.0001 1.88991 91.105 1.52588e-05 88.7824 1.52588e-05Z" fill="#005942"/>
<path d="M0.567627 56.8958V70.6081H32.3141V54.5369C42.6445 51.1692 51.7068 46.3806 57.5489 42.004C60.0282 40.1425 60.4699 36.7464 58.3753 34.2313C57.4206 33.0803 55.9957 32.4408 54.5993 32.4408C53.8727 32.4408 53.1602 32.6113 52.519 32.9666C39.4385 40.2988 32.6846 41.8619 25.7739 42.1745L18.8632 49.0662L12.4512 42.6718C5.341 43.9365 0.581876 48.1568 0.581876 56.91L0.567627 56.8958Z" fill="#005942"/>
<path d="M29.6069 28.5758C29.6069 22.6503 24.7908 17.8616 18.8633 17.8616C12.9357 17.8616 8.11963 22.6645 8.11963 28.5758C8.11963 34.487 12.9357 39.2899 18.8633 39.2899C24.7908 39.2899 29.6069 34.487 29.6069 28.5758Z" fill="#005942"/>
<path d="M78.9504 24.5686C79.1499 24.4692 79.3067 24.3129 79.3352 24.0855L79.9764 15.8723C79.9906 15.7018 79.9336 15.5312 79.8054 15.4034C79.6914 15.2755 79.5204 15.2186 79.3352 15.2328L71.1278 15.9291C70.9141 15.9575 70.7146 16.0996 70.6434 16.3128C70.5721 16.5259 70.6291 16.7533 70.7716 16.9096L73.1227 19.2116L63.2767 27.3253L55.1406 21.0588C54.4709 20.5473 53.559 20.5047 52.8465 20.9452L40.051 29.0021L42.1884 32.384L53.8012 25.066L62.094 31.4603C62.835 32.0287 63.8751 32.0145 64.6018 31.4177L75.9724 22.0393L78.3377 24.3981C78.58 24.6255 78.8365 24.5828 78.9362 24.5402L78.9504 24.5686Z" fill="#005942"/>
</g>
<defs>
<clipPath id="clip0_1648_275">
<rect width="92.4324" height="70.6081" fill="white" transform="translate(0.567627)"/>
</clipPath>
</defs>
</svg>
