<svg width="67" height="54" viewBox="0 0 67 54" fill="none" xmlns="http://www.w3.org/2000/svg">
<g clip-path="url(#clip0_1832_1045)">
<path d="M12.9311 36.5714H0V54.0001H12.9311V36.5714Z" fill="#585858"/>
<path d="M30.9546 25.892H18.0234V54H30.9546V25.892Z" fill="#585858"/>
<path d="M48.976 32.3397H36.0449V54H48.976V32.3397Z" fill="#585858"/>
<path d="M66.9995 19.7469H54.0684V54.0012H66.9995V19.7469Z" fill="#585858"/>
<path d="M60.5346 0C56.9921 0 54.1197 2.86458 54.1197 6.39731C54.1197 7.2242 54.2788 8.01294 54.5651 8.73893L46.7558 14.1666C45.6219 13.1576 44.1264 12.5436 42.4878 12.5436C40.2224 12.5436 38.2321 13.7163 37.0908 15.4845L30.872 13.3127C30.8942 13.0961 30.9053 12.8771 30.9053 12.6543C30.9053 9.12161 28.0328 6.25703 24.4904 6.25703C20.9479 6.25703 18.0754 9.12161 18.0754 12.6543C18.0754 13.3077 18.1741 13.9377 18.3567 14.5308L11.0916 18.7908C9.92433 17.58 8.2845 16.8257 6.46822 16.8257C2.92327 16.8245 0.0507812 19.6891 0.0507812 23.2218C0.0507812 26.7545 2.92327 29.6191 6.46575 29.6191C10.0082 29.6191 12.8807 26.7545 12.8807 23.2218C12.8807 22.5684 12.782 21.9384 12.5994 21.3453L19.8645 17.0853C21.0318 18.2961 22.6716 19.0504 24.4879 19.0504C26.7533 19.0504 28.7436 17.8778 29.8849 16.1096L36.1037 18.2814C36.0815 18.4979 36.0704 18.717 36.0704 18.9397C36.0704 22.4724 38.9429 25.337 42.4853 25.337C46.0278 25.337 48.9003 22.4724 48.9003 18.9397C48.9003 18.1128 48.7411 17.3241 48.4549 16.5981L56.2641 11.1704C57.3981 12.1794 58.8936 12.7934 60.5322 12.7934C64.0746 12.7934 66.9471 9.92881 66.9471 6.39608C66.9471 2.86335 64.0771 0 60.5346 0Z" fill="#585858"/>
</g>
<defs>
<clipPath id="clip0_1832_1045">
<rect width="67" height="54" fill="white"/>
</clipPath>
</defs>
</svg>
