<svg width="58" height="52" viewBox="0 0 58 52" fill="none" xmlns="http://www.w3.org/2000/svg">
<g clip-path="url(#clip0_1832_1002)">
<path d="M42.2038 32.6563V47.6329C42.2038 48.133 41.7038 48.6891 40.7944 48.6891H4.72379C3.81006 48.6891 3.31441 48.1287 3.31441 47.6329V4.37141C3.31441 3.87133 3.81437 3.3152 4.72379 3.3152H40.7944C41.7081 3.3152 42.2038 3.87564 42.2038 4.37141V17.8392L45.5182 14.2653V4.37141C45.5139 1.86238 43.277 0 40.7944 0H4.72379C2.2369 0 0 1.86238 0 4.37141V47.6329C0 50.1419 2.2369 52.0043 4.72379 52.0043H40.7944C43.2813 52.0043 45.5182 50.1419 45.5182 47.6329V29.0824L42.2038 32.6563Z" fill="#7AB245"/>
<path d="M10.4169 13.1013H30.5102C31.4498 13.1013 32.2084 12.2908 32.2084 11.282C32.2084 10.2732 31.4498 9.46277 30.5102 9.46277H10.4169C9.47731 9.46277 8.71875 10.2732 8.71875 11.282C8.71875 12.2908 9.47731 13.1013 10.4169 13.1013Z" fill="#7AB245"/>
<path d="M36.7942 21.094C36.7942 20.0852 36.0357 19.2747 35.0961 19.2747H10.4169C9.47731 19.2747 8.71875 20.0852 8.71875 21.094C8.71875 22.1028 9.47731 22.9133 10.4169 22.9133H35.1004C36.04 22.9133 36.7986 22.1028 36.7986 21.094H36.7942Z" fill="#7AB245"/>
<path d="M10.4169 29.091C9.47731 29.091 8.71875 29.9015 8.71875 30.9103C8.71875 31.9191 9.47731 32.7296 10.4169 32.7296H28.5018C28.5923 32.5657 28.7043 32.4105 28.8379 32.2726L31.7817 29.0953H10.4169V29.091Z" fill="#7AB245"/>
<path d="M10.4169 38.903C9.47731 38.903 8.71875 39.7135 8.71875 40.7223C8.71875 41.7311 9.47731 42.5416 10.4169 42.5416H20.7006C21.6402 42.5416 22.3988 41.7311 22.3988 40.7223C22.3988 39.7135 21.6402 38.903 20.7006 38.903H10.4169Z" fill="#7AB245"/>
<path d="M55.0436 15.2439L51.1991 11.6787C51.0568 11.545 50.8715 11.4717 50.6775 11.4717C50.6689 11.4717 50.656 11.4717 50.6474 11.4717C50.4405 11.4804 50.2508 11.5666 50.1129 11.7175L45.5184 16.6795L42.204 20.2534L30.0411 33.3805C29.9032 33.5314 29.83 33.7254 29.8386 33.9324C29.8472 34.1393 29.9334 34.329 30.0842 34.4669L33.9288 38.0322C34.0796 38.1701 34.2736 38.2434 34.4805 38.2348C34.6873 38.2262 34.877 38.14 35.0149 37.9891L42.204 30.2292L45.5184 26.6553L55.0867 16.326C55.2246 16.1751 55.2979 15.9811 55.2893 15.7742C55.2806 15.5672 55.1944 15.3776 55.0436 15.2396V15.2439Z" fill="#7AB245"/>
<path d="M28.437 35.2343C28.3939 35.2817 28.3594 35.3334 28.3335 35.3895L28.3249 35.424C28.3249 35.4326 28.3206 35.4369 28.3163 35.4455L26.0449 42.714L33.122 39.8945C33.1953 39.8601 33.2642 39.8126 33.3202 39.7523C33.3504 39.7178 33.3763 39.6833 33.4021 39.6445C33.1909 39.541 32.997 39.4074 32.8203 39.2436L28.9757 35.6783C28.8076 35.5231 28.6611 35.3421 28.5447 35.1524C28.5103 35.1782 28.4801 35.2041 28.4499 35.2343H28.437Z" fill="#7AB245"/>
<path d="M56.4311 9.84214C55.1036 8.61349 53.5693 8.12634 52.9874 8.75575L51.7548 10.0879L51.3496 10.5233L56.138 14.9594L56.5518 14.511L57.7715 13.1918C58.3534 12.5667 57.75 11.0708 56.4268 9.84214H56.4311Z" fill="#7AB245"/>
</g>
<defs>
<clipPath id="clip0_1832_1002">
<rect width="58" height="52" fill="white"/>
</clipPath>
</defs>
</svg>
