<svg width="59" height="62" viewBox="0 0 59 62" fill="none" xmlns="http://www.w3.org/2000/svg">
<path d="M10.8955 55.1063C11.9101 56.1359 12.4798 57.5333 12.4798 58.9891V60.3398C12.4798 61.2564 13.2125 61.9999 14.1159 61.9999H21.9453C22.8487 61.9999 23.5814 61.2564 23.5814 60.3398V56.7139L23.7367 52.5879C23.8135 50.521 23.0386 48.5164 21.5981 47.0547L12.5086 37.8315C11.914 37.2282 10.9166 37.378 10.5138 38.1273C10.0036 39.0713 9.8195 40.5173 11.4786 42.3078L16.3446 47.2455C16.3446 47.2455 16.2296 48.2341 14.5877 47.2202L6.26922 38.7813C5.6075 38.1098 5.23156 37.2009 5.22197 36.2492L5.15868 29.3829C5.15868 29.3829 5.01866 27.1213 2.73812 26.0451C1.93447 25.6656 0.994633 26.2125 0.937092 27.1097L0.0126013 41.2647C-0.0967265 42.9326 0.509371 44.5674 1.67362 45.7488L10.8955 55.1063Z" fill="#F6B74B"/>
<path d="M46.3598 60.3398V58.9891C46.3598 57.5333 46.9294 56.1359 47.944 55.1063L57.1651 45.7488C58.3293 44.5674 58.9353 42.9326 58.826 41.2647L57.9016 27.1097C57.8421 26.2125 56.9024 25.6656 56.1007 26.0451C53.8204 27.1213 53.6804 29.3829 53.6804 29.3829L53.6171 36.2492C53.6075 37.2009 53.2316 38.1098 52.5699 38.7813L44.2521 47.2202C42.6104 48.2322 42.4953 47.2455 42.4953 47.2455L47.3609 42.3078C49.0199 40.5173 48.8358 39.0732 48.3256 38.1273C47.921 37.378 46.9256 37.2282 46.3291 37.8315L37.2403 47.0547C35.8 48.5164 35.0252 50.521 35.1019 52.5879L35.2572 56.7139V60.3398C35.2572 61.2564 35.9899 61.9999 36.8932 61.9999H44.7219C45.6253 61.9999 46.3579 61.2564 46.3579 60.3398H46.3598Z" fill="#F6B74B"/>
<path d="M8.29256 24.7357C7.99576 26.9955 9.65149 29.0153 11.8168 29.0153H17.7192C18.8411 26.4173 20.4539 24.4053 22.5091 23.0915C21.2808 21.5378 20.5808 19.5573 20.5808 17.4431C20.5808 13.9285 22.5445 10.8939 25.3725 9.4719C25.6674 8.64981 25.8298 7.76085 25.8037 6.82271C25.6973 3.25112 22.9645 0.324624 19.5765 0.161385C15.8245 -0.0215215 12.7296 3.13115 12.7296 7.04299C12.7296 9.74725 14.208 12.0877 16.3603 13.2146C12.332 14.312 9.19415 17.8856 8.29256 24.7357Z" fill="#F6B74B"/>
<path d="M46.107 6.82317C46.0024 3.25133 43.2676 0.324635 39.8795 0.161385C36.1273 -0.0215334 33.0322 3.13136 33.0322 7.04346C33.0322 7.90101 33.1946 8.71529 33.4672 9.47254C36.2169 10.8631 38.1546 13.7859 38.2535 17.163C38.3189 19.3541 37.602 21.4527 36.3196 23.0852C38.3786 24.3991 39.9952 26.4132 41.119 29.0153H47.0217C49.1871 29.0153 50.8429 26.9954 50.5461 24.7354C49.6445 17.8829 46.5083 14.311 42.478 13.2135C44.6882 12.055 46.1891 9.61809 46.1051 6.8212L46.107 6.82317Z" fill="#F6B74B"/>
<path d="M21.4985 39.3231H36.8678C38.5428 39.3231 39.9212 38.1882 40.3775 36.6657C40.5296 36.1583 40.5778 35.6095 40.5027 35.043C39.5728 28.1922 36.3384 24.6182 32.1817 23.5207C33.6064 22.7968 34.7442 21.5734 35.3776 20.0746C35.7569 19.1757 35.9552 18.1765 35.9225 17.1281C35.8955 16.2351 35.6992 15.3834 35.3642 14.6026C34.6961 13.0447 33.4774 11.78 31.9622 11.0719C31.2056 10.7198 30.3739 10.5054 29.4998 10.4641H29.4979C29.3593 10.4582 29.2226 10.4641 29.0859 10.4661C28.6797 10.472 28.2831 10.5133 27.8961 10.588C27.8403 10.5998 27.7864 10.6116 27.7325 10.6254C27.3474 10.7119 26.9758 10.828 26.6197 10.9794C26.5715 10.9991 26.5253 11.0227 26.4772 11.0444C26.121 11.2037 25.7803 11.3905 25.4607 11.6069C25.4222 11.6344 25.3837 11.6639 25.3452 11.6915C25.0256 11.9177 24.7252 12.1675 24.4499 12.4468C24.4191 12.4763 24.3922 12.5097 24.3613 12.5412C24.088 12.8284 23.8358 13.1352 23.6124 13.4676C23.5932 13.4971 23.5758 13.5306 23.5547 13.5601C23.3333 13.9023 23.1388 14.2623 22.979 14.6439C22.9694 14.6694 22.9598 14.695 22.9501 14.7206C22.7923 15.112 22.6633 15.5211 22.5786 15.946C22.5747 15.9617 22.5747 15.9774 22.5709 15.9912C22.4862 16.4298 22.438 16.8822 22.438 17.3464C22.438 18.9456 22.9809 20.4109 23.8762 21.5793C24.1168 21.892 24.3729 22.191 24.6598 22.4585C24.8869 22.669 25.1295 22.8637 25.3837 23.0407C25.6378 23.2178 25.9035 23.3771 26.1826 23.5187C25.4029 23.7252 24.6559 24.0183 23.9513 24.4019C23.7164 24.5297 23.4854 24.6694 23.2601 24.8169C22.5843 25.2634 21.9509 25.8063 21.3734 26.4455C19.6387 28.3672 18.3854 31.1839 17.8636 35.0391C17.7866 35.6036 17.8367 36.1543 17.9888 36.6618C18.445 38.1823 19.8235 39.3191 21.4985 39.3191V39.3231Z" fill="#F6B74B"/>
</svg>
