<svg width="57" height="47" viewBox="0 0 57 47" fill="none" xmlns="http://www.w3.org/2000/svg">
<g clip-path="url(#clip0_1592_104)">
<path d="M11.1769 2.99554C7.46744 2.99554 4.46106 5.99915 4.46106 9.70522C4.46106 13.4113 7.46744 16.4149 11.1769 16.4149C14.8864 16.4149 17.8928 13.4113 17.8928 9.70522C17.8928 5.99915 14.8864 2.99554 11.1769 2.99554Z" fill="#585858"/>
<path d="M3.74994 43.7623V47.0081H18.5152V38.5544C16.9554 38.4575 15.5169 37.8116 14.5228 36.7296C13.5449 35.6638 13.0681 34.2831 13.1812 32.8459C13.3106 31.2876 13.9652 27.4523 14.1106 26.7095C14.7733 23.2861 15.5573 20.1936 17.4484 17.9974C16.5917 17.9732 15.6704 17.949 14.9431 17.9409L11.1689 21.0899L7.41902 17.9651C2.56194 18.2639 -0.0161133 20.6539 -0.0161133 26.5803L0.0162134 40.4841C0.0162134 42.317 1.42242 43.7784 3.73378 43.7784L3.74994 43.7623Z" fill="#585858"/>
<path d="M39.1072 9.70522C39.1072 13.4113 42.1136 16.4149 45.823 16.4149C49.5325 16.4149 52.5389 13.4113 52.5389 9.70522C52.5389 5.99915 49.5325 2.99554 45.823 2.99554C42.1136 2.99554 39.1072 5.99915 39.1072 9.70522Z" fill="#585858"/>
<path d="M43.2773 24.7878C43.1318 21.7358 42.1135 19.5396 40.6103 17.9571C41.1195 17.949 41.6205 17.9328 42.0408 17.9328L45.8149 21.0818L49.5648 17.9571C54.4219 18.2558 57 20.6458 57 26.5722L56.9676 40.476C56.9676 42.3089 55.5614 43.7703 53.2501 43.7703V47.0162H39.2769C41.7822 46.2975 43.3339 44.1983 43.3581 41.3642C43.3823 38.2637 43.5359 30.2218 43.2692 24.804L43.2773 24.7878Z" fill="#585858"/>
<path d="M28.6657 15.4298C32.9328 15.4298 36.3917 11.9741 36.3917 7.71088C36.3917 3.44769 32.9328 0 28.6657 0C24.3985 0 20.9396 3.45576 20.9396 7.71895C20.9396 11.9821 24.3985 15.4379 28.6657 15.4379V15.4298Z" fill="#585858"/>
<path d="M33.054 16.9074L28.6657 20.1775L24.3178 16.9397C18.8546 17.6502 17.5211 20.5004 16.2118 27.1051C16.0502 27.9045 15.4279 31.6025 15.3148 33.0074C15.1612 34.9291 16.7776 36.4228 18.9192 36.4228L32.7712 35.7849C34.4441 35.7203 35.3654 34.6868 35.4947 33.072C35.6321 31.4571 34.5491 29.8988 32.8843 29.8423L22.6125 29.6324V22.6643C22.6125 22.2848 22.9196 21.978 23.2995 21.978H34.8158C35.1957 21.978 35.5028 22.2848 35.5028 22.6643V28.9218C36.812 29.6485 37.6929 31.328 37.5313 33.2173C37.3131 35.7688 35.6402 37.8358 33.1591 37.9246L20.6487 38.4979V47.0081H37.2565V45.2641C40.0447 45.2641 41.3378 43.5362 41.3378 41.3561C41.3378 38.5302 41.5398 27.6623 41.265 25.0058C40.6831 19.4992 38.2101 17.4242 33.054 16.9155V16.9074Z" fill="#585858"/>
</g>
<defs>
<clipPath id="clip0_1592_104">
<rect width="57" height="47" fill="white"/>
</clipPath>
</defs>
</svg>
