<svg width="73" height="60" viewBox="0 0 73 60" fill="none" xmlns="http://www.w3.org/2000/svg">
<g clip-path="url(#clip0_1827_815)">
<path d="M12.8292 48.7506C17.1302 48.7506 20.6174 45.2419 20.6174 40.9144C20.6174 36.5869 17.1302 33.0781 12.8292 33.0781C8.52828 33.0781 5.04102 36.5869 5.04102 40.9144C5.04102 45.2419 8.52828 48.7506 12.8292 48.7506Z" fill="#585858"/>
<path d="M36.4679 48.7506C40.7689 48.7506 44.2561 45.2419 44.2561 40.9144C44.2561 36.5869 40.7689 33.0781 36.4679 33.0781C32.1669 33.0781 28.6797 36.5869 28.6797 40.9144C28.6797 45.2419 32.1564 48.7506 36.4679 48.7506Z" fill="#585858"/>
<path d="M60.171 48.7506C64.472 48.7506 67.9592 45.2419 67.9592 40.9144C67.9592 36.5869 64.472 33.0781 60.171 33.0781C55.8701 33.0781 52.3828 36.5869 52.3828 40.9144C52.3828 45.2419 55.8595 48.7506 60.171 48.7506Z" fill="#585858"/>
<path d="M60.1711 50.5051C54.0525 50.5051 50.0475 52.8761 48.325 56.1085C46.5919 52.8655 42.5869 50.5051 36.4789 50.5051C30.3709 50.5051 26.3975 52.8549 24.6539 56.0659C22.9102 52.8442 18.9158 50.5051 12.8289 50.5051C4.43833 50.5051 0 54.9601 0 60H73C73 54.9282 68.5405 50.5051 60.1711 50.5051Z" fill="#585858"/>
<path d="M17.7002 6.97501C17.7002 10.824 20.807 13.95 24.6324 13.95C28.4579 13.95 31.5647 10.824 31.5647 6.97501C31.5647 3.126 28.4579 0 24.6324 0C20.807 0 17.7002 3.126 17.7002 6.97501Z" fill="#585858"/>
<path d="M23.5022 41.1377H25.7425C25.658 36.0872 28.9339 31.9405 33.3194 30.5795V23.8809C39.9875 21.68 45.8313 18.5646 49.5933 15.7151C51.1995 14.5029 51.4743 12.302 50.1322 10.6539C49.2023 9.52687 47.5749 9.1441 46.3491 9.83522C37.9057 14.6093 33.5519 15.63 29.0924 15.832L24.633 20.319L20.4905 16.151C15.9042 16.9804 12.8291 19.7236 12.8291 25.412V30.101C18.7257 30.1329 23.6079 34.9708 23.5022 41.1271V41.1377Z" fill="#585858"/>
</g>
<defs>
<clipPath id="clip0_1827_815">
<rect width="73" height="60" fill="white"/>
</clipPath>
</defs>
</svg>
