<svg width="63" height="62" viewBox="0 0 63 62" fill="none" xmlns="http://www.w3.org/2000/svg">
<g clip-path="url(#clip0_1730_6976)">
<path d="M22.3317 9.0314L19.5803 9.33182C19.3353 9.33182 19.1468 9.52897 19.1468 9.76368V13.5659C19.1374 13.8006 19.3353 13.9978 19.5803 13.9978L22.3222 14.317C22.7463 15.7722 23.5001 17.1335 24.5837 18.26L23.4718 20.7761C23.3493 20.9826 23.4247 21.2455 23.632 21.3676L26.9205 23.2828C27.1278 23.4048 27.4011 23.3297 27.5141 23.1325L29.1631 20.9263C30.6896 21.3112 32.2537 21.3112 33.7425 20.9545L35.3727 23.1795C35.4857 23.386 35.7496 23.4611 35.9663 23.3391L39.2831 21.4614C39.4904 21.3488 39.5657 21.0765 39.4432 20.87L38.3596 18.3352C38.8873 17.7906 39.3679 17.1898 39.7636 16.5044C40.1688 15.8191 40.4703 15.0962 40.6776 14.3639L43.429 14.0635C43.6646 14.0635 43.8625 13.8663 43.8625 13.6316V9.8294C43.8625 9.59469 43.674 9.39754 43.4385 9.39754L40.6965 9.07834C40.2819 7.62316 39.5092 6.26186 38.435 5.13527L39.5563 2.61922C39.6788 2.41268 39.6034 2.14981 39.3961 2.02776L36.0888 0.103171C35.8815 -0.0188762 35.6082 0.0562298 35.4951 0.262771L33.8462 2.46901C32.3197 2.08409 30.7555 2.09348 29.2668 2.45023L27.6366 0.225218C27.5141 0.0186768 27.2503 -0.0564292 27.043 0.065618L23.7262 1.94327C23.5189 2.06532 23.4435 2.32819 23.566 2.53473L24.6591 5.06956C24.1314 5.61407 23.6508 6.21492 23.2551 6.90026C22.8499 7.595 22.5578 8.3085 22.3411 9.04079L22.3317 9.0314ZM27.5989 9.4257C28.8616 7.27579 31.6319 6.5529 33.7802 7.81093C35.938 9.06895 36.6636 11.8291 35.4009 13.9696C34.1383 16.1195 31.368 16.8424 29.2196 15.5844C27.0619 14.3264 26.3363 11.5756 27.5989 9.4257Z" fill="#1AA2FF"/>
<path d="M13.2951 30.5118C9.21507 30.5118 5.90771 33.8071 5.90771 37.8722C5.90771 41.9373 9.21507 45.2326 13.2951 45.2326C17.3751 45.2326 20.6825 41.9373 20.6825 37.8722C20.6825 33.8071 17.3751 30.5118 13.2951 30.5118Z" fill="#1AA2FF"/>
<path d="M13.7383 61.8309V55.0902C13.7383 51.7949 14.9349 48.9972 17.0739 46.8285C15.8678 46.6313 14.5957 46.5281 13.2954 46.5281C6.24723 46.5281 0 49.4384 0 55.8788V61.8403H4.83383L5.12593 56.7143H7.01989V61.8403H13.7288L13.7383 61.8309Z" fill="#1AA2FF"/>
<path d="M49.7043 30.5118C45.6243 30.5118 42.3169 33.8071 42.3169 37.8722C42.3169 41.9373 45.6243 45.2326 49.7043 45.2326C53.7843 45.2326 57.0916 41.9373 57.0916 37.8722C57.0916 33.8071 53.7843 30.5118 49.7043 30.5118Z" fill="#1AA2FF"/>
<path d="M58.1661 61.831H62.9999V55.8695C62.9999 49.4292 56.7433 46.5188 49.7045 46.5188C48.4042 46.5188 47.1416 46.6127 45.926 46.8192C48.065 48.9879 49.2616 51.795 49.2616 55.0809V61.8216H56.0177V56.6957H57.874L58.1661 61.8216V61.831Z" fill="#1AA2FF"/>
<path d="M39.1699 62V56.0479H40.979L41.3182 62H46.9247V55.0903C46.9247 49.232 42.5149 45.9367 36.7106 44.7632L31.5092 49.4855L26.3174 44.7632C20.5036 45.9461 16.0938 49.2695 16.0938 55.0903V62H21.7002L22.0395 56.0479H23.8486V62H39.1699Z" fill="#1AA2FF"/>
<path d="M31.4998 25.7988C26.7696 25.7988 22.9346 29.6198 22.9346 34.3327C22.9346 39.0456 26.7696 42.8667 31.4998 42.8667C36.23 42.8667 40.065 39.0456 40.065 34.3327C40.065 29.6198 36.23 25.7988 31.4998 25.7988Z" fill="#1AA2FF"/>
</g>
<defs>
<clipPath id="clip0_1730_6976">
<rect width="63" height="62" fill="white"/>
</clipPath>
</defs>
</svg>
