<svg width="63" height="64" viewBox="0 0 63 64" fill="none" xmlns="http://www.w3.org/2000/svg">
<g clip-path="url(#clip0_1730_7003)">
<path d="M38.2158 31.2918C39.8654 32.0205 41.6891 32.431 43.605 32.431C51.0125 32.431 57.0267 26.4169 57.0267 18.9865C57.0267 12.5208 52.4572 7.12247 46.3815 5.8396C47.9389 8.49771 48.8507 11.5869 48.8507 14.8916C48.8507 22.1988 44.4759 28.4798 38.2158 31.2918Z" fill="#7AB245"/>
<path d="M25.8494 47.3124L25.9109 64H47.7032L48.318 54.8044H50.5413L51.3609 64H62.9999L62.8667 53.0597C62.631 42.4375 57.8668 37.6857 48.5229 35.9923L40.4494 42.0269L33.2672 34.4939C29.8247 34.0013 26.874 33.2418 24.2716 31.8974C23.3495 31.4253 22.4786 30.8813 21.6385 30.245L23.6671 27.8743C25.8187 29.0853 28.2879 29.7832 30.9312 29.7832C39.1277 29.7832 45.7976 23.102 45.7976 14.8916C45.7976 6.68121 39.1174 0 30.921 0C22.7245 0 16.0547 6.68121 16.0547 14.8916C16.0547 17.5394 16.7616 20.0334 17.9706 22.1886L17.2534 22.8044C19.3435 26.5196 18.5648 31.805 15.317 35.0481C13.7699 36.5978 11.854 37.5215 9.73315 37.7986C10.8909 38.9788 12.1204 40.0564 13.4113 41.0212C17.2636 43.9051 21.5873 45.9063 25.8392 47.3021L25.8494 47.3124ZM30.921 3.31495C37.2937 3.31495 42.478 8.50802 42.478 14.8916C42.478 21.2752 37.2937 26.4682 30.921 26.4682C24.5482 26.4682 19.364 21.2752 19.364 14.8916C19.364 8.50802 24.5482 3.31495 30.921 3.31495Z" fill="#7AB245"/>
<path d="M14.6714 23.5126C13.8517 22.3939 13.278 22.0655 12.2022 21.2958C11.1162 20.526 10.1838 20.1976 9.32321 20.1976C7.42778 20.1976 5.90119 21.7987 3.87256 23.8102C1.9464 25.7191 0.173914 27.5357 0.00998466 29.342C-0.0514887 30.0501 0.143177 30.748 0.655455 31.4869C1.16773 32.2361 2.65334 33.2624 2.96071 33.4779C4.63074 34.6684 6.5569 35.3253 8.4216 35.3253C10.2863 35.3253 12.069 34.6787 13.5136 33.2316C16.3004 30.4504 16.5258 26.0475 14.6714 23.5023V23.5126Z" fill="#7AB245"/>
<path d="M23.3288 21.1316H38.2156C38.5742 21.1316 38.8713 20.834 38.8713 20.4747V11.1457C38.8713 10.7865 38.5742 10.4889 38.2156 10.4889H33.9125V8.72362C33.9125 8.04627 33.3592 7.49207 32.683 7.49207H28.3696C27.6934 7.49207 27.1402 8.04627 27.1402 8.72362V10.4889H23.3288C22.9702 10.4889 22.6731 10.7865 22.6731 11.1457V20.4747C22.6731 20.834 22.9702 21.1316 23.3288 21.1316ZM28.9331 9.28809H32.1298V10.4991H28.9331V9.28809Z" fill="#7AB245"/>
</g>
<defs>
<clipPath id="clip0_1730_7003">
<rect width="63" height="64" fill="white"/>
</clipPath>
</defs>
</svg>
