<svg width="97" height="77" viewBox="0 0 97 77" fill="none" xmlns="http://www.w3.org/2000/svg">
<g clip-path="url(#clip0_1825_618)">
<path d="M41.5645 41.9254C43.4148 40.2966 45.8488 39.3019 48.4939 39.3019C51.1391 39.3019 53.5482 40.2842 55.3986 41.8881V35.087C57.7332 35.087 58.9005 33.7193 58.9005 32.0035L58.9254 21.3108C58.9254 15.8028 56.5535 13.5648 52.058 13.2664L48.4939 17.1829L44.9299 13.2664C40.4468 13.5648 38.0625 15.8028 38.0625 21.3108L38.0873 32.0035C38.0873 33.7193 39.2919 35.087 41.5521 35.087V41.913L41.5645 41.9254Z" fill="#585858"/>
<path d="M7.93555 42.3233C7.93555 46.2025 11.0774 49.3481 14.9519 49.3481C18.8265 49.3481 21.9683 46.2025 21.9683 42.3233C21.9683 38.4441 18.8265 35.2984 14.9519 35.2984C11.0774 35.2984 7.93555 38.4441 7.93555 42.3233Z" fill="#585858"/>
<path d="M26.9233 57.9147C26.2031 53.1155 21.1239 51.0515 14.9644 51.0515C8.80491 51.0515 3.71337 53.1155 3.00553 57.9147C1.29179 58.3126 0.0126953 59.8419 0.0126953 61.6696V69.4529H2.79441V61.6696C2.79441 61.0728 3.27873 60.5879 3.87481 60.5879H26.0789C26.675 60.5879 27.1593 61.0728 27.1593 61.6696V69.4529H29.9286V61.6696C29.9286 59.8419 28.6495 58.3002 26.9358 57.9147H26.9233Z" fill="#585858"/>
<path d="M82.0359 35.2984C78.1614 35.2984 75.0195 38.4441 75.0195 42.3233C75.0195 46.2025 78.1614 49.3481 82.0359 49.3481C85.9105 49.3481 89.0523 46.2025 89.0523 42.3233C89.0523 38.4441 85.9105 35.2984 82.0359 35.2984Z" fill="#585858"/>
<path d="M94.007 57.9147C93.2868 53.1155 88.2077 51.0515 82.0357 51.0515C75.8638 51.0515 70.7847 53.1155 70.0768 57.9147C68.3631 58.3126 67.084 59.8419 67.084 61.6696V69.4529H69.8657V61.6696C69.8657 61.0728 70.35 60.5879 70.9461 60.5879H93.1502C93.7463 60.5879 94.2306 61.0728 94.2306 61.6696V69.4529H96.9999V61.6696C96.9999 59.8419 95.7208 58.3002 94.007 57.9147Z" fill="#585858"/>
<path d="M55.523 49.8703C55.523 45.9911 52.3812 42.8455 48.5066 42.8455C44.6321 42.8455 41.4902 45.9911 41.4902 49.8703C41.4902 53.7495 44.6321 56.8952 48.5066 56.8952C52.3812 56.8952 55.523 53.7495 55.523 49.8703Z" fill="#585858"/>
<path d="M60.465 65.4494C59.9559 62.055 57.2611 60.0284 53.548 59.1332C52.0081 58.7726 50.3068 58.5861 48.5061 58.5861C46.7055 58.5861 45.0042 58.7726 43.4643 59.1332C39.7388 60.0284 37.044 62.055 36.5348 65.4494C34.8211 65.8472 33.542 67.3765 33.542 69.2042V77H36.3237V69.2042C36.3237 68.6074 36.808 68.1225 37.4041 68.1225H59.6082C60.2043 68.1225 60.6886 68.6074 60.6886 69.2042V77H63.4579V69.2042C63.4579 67.3765 62.1788 65.8472 60.465 65.4494Z" fill="#585858"/>
<path d="M54.3548 5.86856C54.3548 9.11368 51.7345 11.7371 48.4933 11.7371C45.2521 11.7371 42.6318 9.11368 42.6318 5.86856C42.6318 2.62345 45.2645 0 48.4933 0C51.7221 0 54.3548 2.62345 54.3548 5.86856Z" fill="#585858"/>
</g>
<defs>
<clipPath id="clip0_1825_618">
<rect width="97" height="77" fill="white"/>
</clipPath>
</defs>
</svg>
