<svg width="91" height="67" viewBox="0 0 91 67" fill="none" xmlns="http://www.w3.org/2000/svg">
<g clip-path="url(#clip0_1648_267)">
<path d="M16.9987 45.3176C22.1852 45.3176 26.3832 41.1196 26.3832 35.9331C26.3832 30.7466 22.1852 26.5486 16.9987 26.5486C11.8122 26.5486 7.61426 30.7595 7.61426 35.9331C7.61426 41.1068 11.8122 45.3176 16.9987 45.3176Z" fill="#C6EB38"/>
<path d="M22.9811 59.3365C23.1351 54.4709 24.3419 50.9791 26.152 48.4115C24.9966 48.0777 23.6743 47.8466 22.1338 47.7696L16.973 53.4182L11.8122 47.7696C2.04258 48.2446 0.450685 54.5223 0.296631 59.7216V66.2304H22.9939V59.3236L22.9811 59.3365Z" fill="#C6EB38"/>
<path d="M73.5622 45.3176C78.7487 45.3176 82.9467 41.1196 82.9467 35.9331C82.9467 30.7466 78.7487 26.5486 73.5622 26.5486C68.3757 26.5486 64.1777 30.7595 64.1777 35.9331C64.1777 41.1068 68.3757 45.3176 73.5622 45.3176Z" fill="#C6EB38"/>
<path d="M73.5367 53.4311L68.3759 47.7824C67.2076 47.8338 66.1549 47.9878 65.2178 48.1932C67.2076 50.9662 68.3245 54.8176 68.5299 59.4007V66.2432H90.2259V59.7345C89.9948 54.3297 88.3259 48.2318 78.7103 47.7824L73.5495 53.4311H73.5367Z" fill="#C6EB38"/>
<path d="M64.4987 59.3878C64.2291 53.3155 62.3676 46.4601 51.5582 45.9595L45.7554 52.3142L39.9527 45.9595C28.9764 46.4986 27.1919 53.5466 27.0122 59.3878V66.2304H64.5115V59.3878H64.4987Z" fill="#C6EB38"/>
<path d="M40.5946 11.7723L39.529 17.6264C39.4905 17.8831 39.5804 18.1399 39.7986 18.2939C39.9142 18.3838 40.0554 18.4223 40.1966 18.4223C40.2993 18.4223 40.4148 18.3966 40.5176 18.3453L45.7554 15.5338L50.9932 18.3453C51.2243 18.4608 51.4939 18.448 51.7121 18.2939C51.9176 18.1399 52.0203 17.8831 51.9817 17.6264L50.9162 11.7723L55.2169 7.66419C55.4094 7.48446 55.4736 7.21487 55.3966 6.97095C55.3196 6.72703 55.1013 6.5473 54.8446 6.50879L48.952 5.71284L46.3716 0.359462C46.1534 -0.1027 45.3831 -0.1027 45.1648 0.359462L42.5844 5.71284L36.6919 6.50879C36.4351 6.5473 36.2297 6.72703 36.1398 6.97095C36.0628 7.21487 36.1398 7.48446 36.3196 7.66419L40.6203 11.7723H40.5946Z" fill="#C6EB38"/>
<path d="M45.781 43.1993C51.6094 43.1993 56.3208 38.475 56.3208 32.6595C56.3208 26.8439 51.5965 22.1068 45.781 22.1068C39.9654 22.1068 35.2283 26.8311 35.2283 32.6595C35.2283 38.4878 39.9526 43.1993 45.781 43.1993Z" fill="#C6EB38"/>
</g>
<defs>
<clipPath id="clip0_1648_267">
<rect width="89.9419" height="66.2304" fill="white" transform="translate(0.283691)"/>
</clipPath>
</defs>
</svg>
