<svg width="70" height="61" viewBox="0 0 70 61" fill="none" xmlns="http://www.w3.org/2000/svg">
<g clip-path="url(#clip0_1734_7790)">
<path d="M67.3305 23.8053H60.0064V40.1886C60.0064 42.4213 58.2021 44.248 55.9968 44.248H31.9229V48.7675C31.9229 50.2526 33.1257 51.4704 34.5925 51.4704H51.5763L59.1544 60.7835C59.5052 61.2131 60.1902 60.9628 60.1902 60.408V51.4738H67.3272C68.794 51.4738 69.9968 50.256 69.9968 48.7709V26.5116C69.9968 25.0265 68.794 23.8087 67.3272 23.8087L67.3305 23.8053Z" fill="#585858"/>
<path d="M53.1766 41.5485C55.3819 41.5485 57.1862 39.7217 57.1862 37.489V4.05945C57.1862 3.63321 57.1193 3.2205 56.9957 2.83147C56.4778 1.19415 54.9575 0 53.1766 0H4.00955C1.8043 0 0 1.82675 0 4.05945V37.489C0 39.3733 1.2864 40.9632 3.01384 41.4165C3.33461 41.5011 3.66539 41.5485 4.00955 41.5485H12.8874V54.5184C12.8874 55.354 13.9198 55.7295 14.4444 55.0834L15.7107 53.5272L25.4606 41.5485H53.1733H53.1766ZM8.59379 9.08978H48.5924C49.6081 9.08978 50.4301 9.92197 50.4301 10.9504C50.4301 11.9788 49.6081 12.8109 48.5924 12.8109H8.59379C7.57804 12.8109 6.75609 11.9788 6.75609 10.9504C6.75609 9.92197 7.57804 9.08978 8.59379 9.08978ZM8.59379 18.687H48.5924C49.6081 18.687 50.4301 19.5192 50.4301 20.5476C50.4301 21.576 49.6081 22.4082 48.5924 22.4082H8.59379C7.57804 22.4082 6.75609 21.576 6.75609 20.5476C6.75609 19.5192 7.57804 18.687 8.59379 18.687ZM8.59379 32.0088C7.57804 32.0088 6.75609 31.1766 6.75609 30.1482C6.75609 29.1198 7.57804 28.2876 8.59379 28.2876H48.5924C49.6081 28.2876 50.4301 29.1198 50.4301 30.1482C50.4301 31.1766 49.6081 32.0088 48.5924 32.0088H8.59379Z" fill="#585858"/>
</g>
<defs>
<clipPath id="clip0_1734_7790">
<rect width="70" height="61" fill="white"/>
</clipPath>
</defs>
</svg>
