<svg width="72" height="52" viewBox="0 0 72 52" fill="none" xmlns="http://www.w3.org/2000/svg">
<g clip-path="url(#clip0_1828_822)">
<path d="M62.7496 18.8163L59.127 22.427L53.7685 17.0862C48.3345 14.4749 44.1512 9.3813 41.6283 5.41602C41.5313 6.29719 41.2941 7.28582 40.852 8.38192C40.0111 10.5634 39.0623 12.5406 38.0596 14.346C42.7927 21.1804 48.4208 25.0812 50.1458 26.5212L50.1674 52H67.6014V46.7452C69.9518 47.0031 71.9679 45.0366 71.9679 42.8874L72.0003 28.3158C72.0003 21.1589 68.7873 18.9882 62.7496 18.8271V18.8163Z" fill="#585858"/>
<path d="M51.0732 8.01653C51.0732 12.4439 54.6743 16.0331 59.1164 16.0331C63.5584 16.0331 67.1703 12.4439 67.1703 8.01653C67.1703 3.58917 63.5692 0 59.1164 0C54.6635 0 51.0732 3.58917 51.0732 8.01653Z" fill="#585858"/>
<path d="M36.0863 1.82681C34.0377 1.06384 32.8949 1.37548 30.7385 4.8357C28.2372 8.85471 23.9245 14.3459 18.2318 17.0862L12.8733 22.4269L9.25067 18.8163C3.21294 18.9775 0 21.1482 0 28.305L0.032345 42.8766C0.032345 44.8969 1.71429 46.9386 4.39892 46.7344V51.9892H21.8329L21.8545 26.5104C24.2156 24.5224 32.7871 19.1601 37.5526 7.10311C38.2965 5.20106 38.965 2.89067 36.0755 1.81607L36.0863 1.82681Z" fill="#585858"/>
<path d="M4.83008 8.01653C4.83008 12.4439 8.43116 16.0331 12.8732 16.0331C17.3153 16.0331 20.9163 12.4439 20.9163 8.01653C20.9163 3.58917 17.3153 0 12.8732 0C8.43116 0 4.83008 3.58917 4.83008 8.01653Z" fill="#585858"/>
</g>
<defs>
<clipPath id="clip0_1828_822">
<rect width="72" height="52" fill="white"/>
</clipPath>
</defs>
</svg>
