<svg width="62" height="63" viewBox="0 0 62 63" fill="none" xmlns="http://www.w3.org/2000/svg">
<g clip-path="url(#clip0_1832_1051)">
<path d="M37.3008 30.49C38.9108 31.2 40.6908 31.6 42.5608 31.6C49.7908 31.6 55.6608 25.74 55.6608 18.5C55.6608 12.2 51.2008 6.94 45.2708 5.69C46.7908 8.28 47.6808 11.29 47.6808 14.51C47.6808 21.63 43.4108 27.75 37.3008 30.49Z" fill="#585858"/>
<path d="M47.35 35.07L39.47 40.95L32.46 33.61C29.1 33.13 26.22 32.39 23.68 31.08C22.78 30.62 21.93 30.09 21.11 29.47L23.09 27.16C25.19 28.34 27.6 29.02 30.18 29.02C38.18 29.02 44.69 22.51 44.69 14.51C44.69 6.51 38.18 0 30.18 0C22.18 0 15.67 6.51 15.67 14.51C15.67 17.09 16.36 19.52 17.54 21.62L16.84 22.22C18.88 25.84 18.12 30.99 14.95 34.15C13.44 35.66 11.57 36.56 9.5 36.83C10.63 37.98 11.83 39.03 13.09 39.97C16.85 42.78 21.07 44.73 25.22 46.09L25.28 62.35H46.55L47.15 53.39H49.32L50.12 62.35H61.48L61.35 51.69C61.12 41.34 56.47 36.71 47.35 35.06V35.07ZM30.18 3.97C35.99 3.97 40.72 8.7 40.72 14.51C40.72 20.32 35.99 25.05 30.18 25.05C24.37 25.05 19.64 20.32 19.64 14.51C19.64 8.7 24.37 3.97 30.18 3.97Z" fill="#585858"/>
<path d="M14.3207 22.91C13.5207 21.82 12.9607 21.5 11.9107 20.75C10.8507 20 9.9407 19.68 9.1007 19.68C7.2507 19.68 5.7607 21.24 3.7807 23.2C1.9007 25.06 0.170698 26.83 0.0106985 28.59C-0.0493015 29.28 0.140698 29.96 0.640698 30.68C1.1407 31.41 2.5907 32.41 2.8907 32.62C4.5207 33.78 6.4007 34.42 8.2207 34.42C10.0407 34.42 11.7807 33.79 13.1907 32.38C15.9107 29.67 16.1307 25.38 14.3207 22.9V22.91Z" fill="#585858"/>
<path d="M28.3205 20.38H31.5705V16.38H35.5705V13.13H31.5705V9.12H28.3205V13.13H24.3105V16.38H28.3205V20.38Z" fill="#585858"/>
</g>
<defs>
<clipPath id="clip0_1832_1051">
<rect width="61.49" height="62.36" fill="white"/>
</clipPath>
</defs>
</svg>
