<svg width="94" height="64" viewBox="0 0 94 64" fill="none" xmlns="http://www.w3.org/2000/svg">
<g clip-path="url(#clip0_1731_7628)">
<path d="M78.3008 24.9084C72.8249 25.6522 68.1815 28.7576 67.0109 37.1865C65.6972 46.5549 59.2199 52.1785 50.7524 53.1571C51.9361 54.8012 52.5604 56.8497 52.3783 59.0156C52.2352 60.6075 51.6889 62.0427 50.8435 63.2562C57.672 62.656 63.9153 60.1247 68.5847 55.845L69.2221 63.0866H94L91.6978 36.234C91.0995 29.423 85.1033 24.3343 78.3138 24.9084H78.3008Z" fill="white"/>
<path d="M74.4247 22.612C80.6289 22.064 85.2333 16.5708 84.687 10.347C84.1407 4.11008 78.6649 -0.49583 72.4606 0.0521811C66.2564 0.600193 61.652 6.09336 62.1983 12.3172C62.7446 18.541 68.2204 23.16 74.4247 22.612Z" fill="white"/>
<path d="M25.2335 60.2682C20.8502 57.0324 17.4684 52.7657 15.4914 47.6118L18.8601 46.3331C22.7752 55.9494 32.075 62.2907 43.2349 63.2693C46.2394 63.465 48.4506 61.3251 48.6847 58.6894C48.9318 55.9102 46.8768 53.4703 44.1063 53.2354C35.2747 52.4656 28.4071 46.7245 27.1975 36.9777C26.4301 30.78 22.2809 25.4695 15.9336 24.9084C8.7929 24.2821 3.12194 29.6057 2.56265 36.0513L-0.0126953 63.0866H24.9603L25.2205 60.2682H25.2335Z" fill="white"/>
<path d="M21.7865 22.612C28.0037 22.064 32.5951 16.5708 32.0488 10.347C31.5156 4.11009 26.0397 -0.495817 19.8225 0.0391469C13.6182 0.587158 9.01383 6.08032 9.56011 12.3042C10.1064 18.528 15.5823 23.147 21.7865 22.599V22.612Z" fill="white"/>
<path d="M44.7434 14.6397V17.2362C40.074 18.3062 38.4741 22.0379 38.4741 24.1777C38.4741 24.9084 38.6302 26.7612 40.087 28.2748C41.5307 29.7753 43.8979 30.78 46.9545 31.1844C48.4633 31.3932 49.5429 31.7846 50.1672 32.3587C50.8045 32.9329 50.9736 33.9636 50.6094 34.9292C50.1022 36.247 48.7495 37.0168 46.9936 37.0168C45.5758 37.0168 44.2751 36.3384 43.6248 35.2554H38.7082C39.3456 37.7345 41.4137 39.783 44.7434 40.6181V42.9536H49.2307V40.6181C51.0517 40.2005 52.4434 39.3655 53.497 38.3216C54.5115 37.3691 55.539 35.5424 55.539 33.5983C55.539 32.0195 54.9017 30.6234 53.653 29.4491C52.3393 28.2095 50.3493 27.4005 47.7219 27.0483C45.3157 26.709 44.3532 26.0827 43.7809 25.5608C43.2086 25.0519 43.0655 23.982 43.4297 23.0034C43.6768 22.351 44.5223 20.8375 47.0066 20.8375C48.9706 20.8375 50.5834 22.1162 50.7915 23.7602H55.487C55.3179 20.7592 52.8986 18.0713 49.2437 17.2362V14.6397H44.7694H44.7434Z" fill="white"/>
</g>
<defs>
<clipPath id="clip0_1731_7628">
<rect width="94" height="63.2692" fill="white"/>
</clipPath>
</defs>
</svg>
