<svg width="64" height="54" viewBox="0 0 64 54" fill="none" xmlns="http://www.w3.org/2000/svg">
<g clip-path="url(#clip0_1654_2019)">
<path d="M38.6679 42.1621C38.6181 41.7526 38.5718 41.3395 38.5345 40.9175C38.0913 36.0534 38.3422 30.4416 38.8548 25.1947C37.6285 25.7537 36.4645 26.2665 35.3664 26.7365C35.1493 31.8 35.1315 37.3122 35.6049 42.1621H18.695C18.695 42.1621 19.4994 50.4944 14.071 51.4398H12.9391C3.76775 51.4398 2.31543 32.7205 4.36932 9.94188L22.0641 10.1448C23.0947 8.95018 24.2497 7.79648 25.517 6.70508L0.423498 6.44336C-0.400552 32.0813 -1.50225 54 12.9409 54H45.853C45.853 54 54.7093 54.0713 52.5949 42.1621H38.6679Z" fill="white"/>
<path d="M28.9609 8.25591C22.2137 13.5153 19.3179 19.9158 19.6686 24.4221C31.0433 8.43751 51.0946 3.03395 51.0946 3.03395C34.6883 8.63336 24.7339 20.6476 20.3431 27.0642C19.7415 27.9437 19.2663 28.6701 18.8854 29.2701C17.4901 31.5081 16.2086 34.015 15.8313 36.139C15.8313 36.139 17.3317 35.9111 18.8267 34.0328C20.3217 32.1562 21.9698 29.3058 23.383 27.5859C26.0509 26.7847 31.0202 25.0844 38.207 21.7675C42.7277 19.7414 45.8317 17.4696 48.2131 15.1888L39.8017 13.0808L40.4513 12.5111C42.7295 12.7194 47.5741 12.6624 50.7048 12.5342C51.5199 11.5799 52.2568 10.6417 52.9616 9.73721L43.6479 9.19597L54.5296 7.75383C56.8736 4.88736 59.3493 2.54968 63.9964 1.43336C56.1136 -0.995132 41.1971 -1.28356 28.9574 8.25591H28.9609Z" fill="white"/>
</g>
<defs>
<clipPath id="clip0_1654_2019">
<rect width="64" height="54" fill="white"/>
</clipPath>
</defs>
</svg>
