<svg width="62" height="47" viewBox="0 0 62 47" fill="none" xmlns="http://www.w3.org/2000/svg">
<g clip-path="url(#clip0_1832_988)">
<path d="M59.1724 0H18.404C16.8473 0 15.5762 1.2582 15.5762 2.79903V9.79205C16.6354 10.1659 17.6118 10.7038 18.4593 11.3876V2.85373H59.1079V32.7131H36.5867C34.9471 33.7069 33.1694 34.6642 31.2903 35.5668H59.1632C60.7198 35.5668 61.991 34.3086 61.991 32.7678V2.79903C61.991 1.2582 60.7198 0 59.1632 0H59.1724Z" fill="#FF7E36"/>
<path d="M38.2175 27.9538C39.8847 26.7139 40.1702 24.4619 38.7701 22.7752C38.1346 22.0093 37.1766 21.5808 36.2371 21.5808C35.7489 21.5808 35.2699 21.6902 34.8462 21.9364C26.068 26.8142 21.5361 27.8627 16.9122 28.0632L12.279 32.6493L7.97738 28.3915C3.20602 29.2394 0.00976562 32.0475 0.00976562 37.8735V47H21.3059V36.3053C28.2326 34.0625 34.312 30.8714 38.2267 27.9538H38.2175Z" fill="#FF7E36"/>
<path d="M12.2689 26.1577C16.2481 26.1577 19.472 22.9666 19.472 19.0279C19.472 15.0892 16.2481 11.889 12.2689 11.889C8.28974 11.889 5.05664 15.0801 5.05664 19.0279C5.05664 22.9758 8.28053 26.1577 12.2689 26.1577Z" fill="#FF7E36"/>
<path d="M53.1486 10.2662C53.0657 10.1841 52.9552 10.1476 52.8354 10.1567L47.3272 10.6217C47.1798 10.64 47.0508 10.7311 47.0048 10.877C46.9495 11.0138 46.9864 11.1688 47.0969 11.2691L48.672 12.8008L42.0676 18.2074L36.6054 14.0316C36.1633 13.6852 35.5369 13.6578 35.0672 13.9587L26.4824 19.3197L27.9194 21.5717L35.712 16.703L41.2755 20.9608C41.7729 21.3438 42.4729 21.3346 42.9519 20.9335L50.5787 14.6881L52.1722 16.2563C52.2459 16.3292 52.3472 16.3657 52.4485 16.3657C52.4854 16.3657 52.5315 16.3657 52.5775 16.3474C52.7157 16.3018 52.817 16.1742 52.8354 16.0283L53.2683 10.567C53.2776 10.4485 53.2407 10.3391 53.1578 10.257L53.1486 10.2662Z" fill="#FF7E36"/>
</g>
<defs>
<clipPath id="clip0_1832_988">
<rect width="62" height="47" fill="white"/>
</clipPath>
</defs>
</svg>
