<svg width="63" height="45" viewBox="0 0 63 45" fill="none" xmlns="http://www.w3.org/2000/svg">
<g clip-path="url(#clip0_1826_805)">
<path d="M35.1284 24.2445L31.987 23.5321C31.6516 22.3098 31.1607 21.1441 30.539 20.0675L32.257 17.3637C32.5351 17.0885 32.5351 16.6514 32.257 16.3761L28.9274 13.0896C28.6574 12.8144 28.2075 12.8144 27.9293 13.0896L25.197 14.7895C24.1089 14.1662 22.9391 13.6805 21.6956 13.3567L20.9757 10.2482C20.9757 9.85969 20.6566 9.55208 20.2722 9.55208H15.5682C15.1837 9.55208 14.8647 9.85969 14.8647 10.2482L14.1448 13.3567C12.9013 13.6886 11.7314 14.1743 10.6516 14.7895L7.91921 13.0896C7.64107 12.8144 7.1993 12.8144 6.92116 13.0896L3.59159 16.3761C3.32163 16.6514 3.32163 17.0885 3.59159 17.3637L5.30955 20.0675C4.67963 21.1441 4.18879 22.3017 3.86156 23.5321L0.720147 24.2445C0.32747 24.2445 0.0166016 24.5602 0.0166016 24.9406V29.5953C0.0166016 29.9757 0.335651 30.2914 0.720147 30.2914L3.86156 31.0038C4.19697 32.2261 4.68781 33.3918 5.30955 34.4603L3.59159 37.1641C3.31345 37.4393 3.31345 37.8764 3.59159 38.1516L6.92116 41.4463C7.1993 41.7215 7.64107 41.7215 7.91921 41.4463L10.6516 39.7464C11.7396 40.3697 12.9095 40.8554 14.1448 41.1792L14.8647 44.2876C14.8647 44.6762 15.1837 44.9838 15.5682 44.9838H20.2722C20.6566 44.9838 20.9757 44.6762 20.9757 44.2876L21.6956 41.1792C22.9309 40.8473 24.1089 40.3616 25.197 39.7464L27.9293 41.4463C28.2075 41.7215 28.6492 41.7215 28.9274 41.4463L32.257 38.1597C32.5351 37.8845 32.5351 37.4474 32.257 37.1722L30.539 34.4684C31.1607 33.3918 31.6598 32.2342 31.987 31.0119L35.1284 30.2995C35.5211 30.2995 35.8319 29.9838 35.8319 29.6033V24.9487C35.8319 24.5602 35.5211 24.2526 35.1284 24.2526V24.2445ZM17.9161 37.5283C12.1896 37.5283 7.55108 32.9385 7.55108 27.272C7.55108 21.6055 12.1896 17.0157 17.9161 17.0157C23.6426 17.0157 28.2811 21.6055 28.2811 27.272C28.2811 32.9385 23.6426 37.5283 17.9161 37.5283Z" fill="#7677A0"/>
<path d="M62.6233 17.6875L60.3572 16.1414C60.4799 15.0729 60.4635 14.0205 60.3163 12.9763L62.5333 11.3654C62.836 11.2358 62.975 10.8877 62.8441 10.5882L61.2653 6.96978C61.1344 6.67026 60.7826 6.53265 60.4799 6.66217L57.7803 7.15596C57.1258 6.33027 56.3568 5.59363 55.4896 4.95413L55.9069 2.26659C56.0296 1.95898 55.8823 1.619 55.5715 1.49757L51.8738 0.0404746C51.5711 -0.0809501 51.2193 0.0647595 51.0966 0.372369L49.5341 2.60658C48.4624 2.48516 47.3907 2.50135 46.3354 2.64706L44.7156 0.453319C44.5847 0.153804 44.2329 0.0161896 43.9302 0.145709L40.2734 1.70804C39.9708 1.83756 39.8317 2.18564 39.9626 2.48516L40.4616 5.1565C39.6272 5.8041 38.8827 6.56503 38.2364 7.4231L35.5204 7.01025C35.2096 6.88883 34.866 7.03454 34.7433 7.34215L33.2707 11.0092C33.148 11.3087 33.2953 11.6568 33.6061 11.7782L35.8722 13.3243C35.7495 14.3848 35.7658 15.4452 35.9131 16.4814L33.6961 18.0842C33.3934 18.2137 33.2544 18.5618 33.3852 18.8613L34.9641 22.4798C35.095 22.7793 35.4468 22.9169 35.7495 22.7874L38.4491 22.2936C39.1036 23.1193 39.8726 23.8559 40.7397 24.4954L40.3225 27.1829C40.1998 27.4906 40.3471 27.8305 40.6579 27.952L44.3638 29.4091C44.6665 29.5305 45.0183 29.3848 45.141 29.0772L46.7035 26.8349C47.7834 26.9563 48.8469 26.9482 49.9022 26.7944L51.522 28.9881C51.6529 29.2876 52.0046 29.4253 52.3073 29.2957L55.9641 27.7334C56.2668 27.6039 56.4059 27.2558 56.275 26.9563L55.776 24.2849C56.6104 23.6373 57.3549 22.8764 58.0011 22.0183L60.7172 22.4312C61.028 22.5526 61.3716 22.4069 61.4943 22.0993L62.9669 18.4323C63.0896 18.1328 62.9423 17.7847 62.6314 17.6632L62.6233 17.6875ZM48.1106 23.265C43.3494 23.265 39.4881 19.4441 39.4881 14.7329C39.4881 10.0216 43.3494 6.20075 48.1106 6.20075C52.8718 6.20075 56.7331 10.0216 56.7331 14.7329C56.7331 19.4441 52.8718 23.265 48.1106 23.265Z" fill="#7677A0"/>
<path d="M48.111 14.3362C49.8699 14.3362 51.2933 12.9277 51.2933 11.1873C51.2933 9.44684 49.8699 8.03831 48.111 8.03831C46.3522 8.03831 44.9287 9.44684 44.9287 11.1873C44.9287 12.9277 46.3522 14.3362 48.111 14.3362Z" fill="#7677A0"/>
<path d="M50.0338 15.2509L48.1114 17.1937L46.1971 15.2509C44.111 15.6071 42.6221 16.6352 42.6221 18.6104V18.7642C43.8737 20.4236 45.8617 21.5084 48.1114 21.5084C50.3611 21.5084 52.3572 20.4236 53.6006 18.7642V18.6104C53.6006 16.6352 52.1117 15.6152 50.0257 15.2509H50.0338Z" fill="#7677A0"/>
<path d="M20.305 27.8224L17.9163 30.2509L15.5275 27.8224C12.9342 28.2677 11.0771 29.5467 11.0771 32.0076V32.3961C12.0834 33.7075 13.4659 34.7275 15.0612 35.286C15.9692 35.5613 16.9264 35.707 17.9163 35.707C18.9061 35.707 19.8715 35.5613 20.7713 35.286C22.3666 34.7275 23.7491 33.7156 24.7554 32.4042V32.0156C24.7554 29.5548 22.9065 28.2839 20.305 27.8305V27.8224Z" fill="#7677A0"/>
<path d="M17.9155 26.6811C20.0998 26.6811 21.875 24.9244 21.875 22.7631C21.875 20.6017 20.0998 18.8451 17.9155 18.8451C15.7313 18.8451 13.9561 20.6017 13.9561 22.7631C13.9561 24.9244 15.7313 26.6811 17.9155 26.6811Z" fill="#7677A0"/>
</g>
<defs>
<clipPath id="clip0_1826_805">
<rect width="63" height="45" fill="white"/>
</clipPath>
</defs>
</svg>
