<svg width="53" height="41" viewBox="0 0 53 41" fill="none" xmlns="http://www.w3.org/2000/svg">
<g clip-path="url(#clip0_1825_608)">
<path d="M15.1249 19.0357C20.0264 19.0357 24.0114 15.1004 24.0114 10.25C24.0114 5.39955 20.0264 1.45596 15.1249 1.45596C10.2234 1.45596 6.23828 5.39123 6.23828 10.25C6.23828 15.1088 10.215 19.0357 15.1249 19.0357Z" fill="#1AA2FF"/>
<path d="M26.2478 31.5487C34.7897 28.7782 42.2806 24.8513 47.1064 21.2654C49.1578 19.7346 49.5362 16.9391 47.7958 14.8841L48.8804 12.0471C49.2167 11.1735 48.7711 10.2084 47.8967 9.8756C47.0224 9.54281 46.0387 9.98376 45.7024 10.849L44.7019 13.4531C44.1302 13.4698 43.5081 13.528 42.9532 13.8358C28.1394 22.0974 23.1371 21.4401 14.1916 21.4401C5.96082 21.4568 0 24.6516 0 33.4872V41H26.2478V31.5487Z" fill="#1AA2FF"/>
<path d="M52.9996 0H29.3076V2.3545H52.9996V0Z" fill="#1AA2FF"/>
<path d="M43.3815 6.2565H29.3076V8.61101H43.3815V6.2565Z" fill="#1AA2FF"/>
</g>
<defs>
<clipPath id="clip0_1825_608">
<rect width="53" height="41" fill="white"/>
</clipPath>
</defs>
</svg>
