<svg width="62" height="51" viewBox="0 0 62 51" fill="none" xmlns="http://www.w3.org/2000/svg">
<g clip-path="url(#clip0_1592_92)">
<path d="M52.0787 41.6596H56.1027V27.8251C54.8642 28.6008 53.5139 29.2295 52.0787 29.6842V41.6596Z" fill="#585858"/>
<path d="M9.44728 14.0396C9.44728 13.2059 10.1269 12.5326 10.9585 12.5326H29.4016C29.5715 11.1327 29.9336 9.78624 30.4657 8.52005H10.9585C7.90477 8.52005 5.42334 10.9945 5.42334 14.0396V41.6596H9.44728V14.0396Z" fill="#585858"/>
<path d="M38.2096 44.5174C38.2096 45.8015 37.1544 46.8536 35.8667 46.8536H25.3821C24.0945 46.8536 23.0393 45.8015 23.0393 44.5174V44.183H0V48.4052C0 49.8408 1.16694 51 2.60215 51H59.0983C60.538 51 61.7004 49.8363 61.7004 48.4052V44.183H38.2096V44.5174Z" fill="#585858"/>
<path d="M31.0737 14.3829C31.0737 16.9911 31.8204 19.4388 33.1304 21.5521C33.7251 22.5106 34.436 23.4023 35.2407 24.2048C35.4196 24.3787 35.5761 24.5704 35.7147 24.7755C35.7817 24.878 35.8488 24.9806 35.9069 25.0921C36.1394 25.5245 36.278 25.9971 36.3049 26.4875C36.3093 26.6124 36.3093 26.7328 36.3049 26.8576C36.278 27.2633 36.2065 27.6557 36.1037 28.0212C36.0545 28.204 35.9964 28.3824 35.9293 28.5563C35.7996 28.904 35.6431 29.2295 35.4732 29.5327C35.3525 29.7467 35.2273 29.9428 35.0932 30.1345C34.9457 30.3485 34.7936 30.5536 34.6461 30.7364C34.4583 30.9683 34.2705 31.1734 34.0962 31.3517C33.9307 31.5211 33.7742 31.6638 33.6401 31.7842C33.6222 31.7975 33.6088 31.8109 33.5954 31.8243C33.3361 32.0517 33.1617 32.172 33.1617 32.172C33.1617 32.172 33.1751 32.1765 33.1841 32.181C33.1841 32.181 33.193 32.181 33.1975 32.1854C33.2154 32.1943 33.2467 32.2033 33.278 32.2166C33.2824 32.2166 33.2914 32.2211 33.3003 32.2255C33.3406 32.2389 33.3853 32.2568 33.4434 32.2746C33.4479 32.2746 33.4523 32.2746 33.4568 32.279C33.5105 32.2969 33.5775 32.3147 33.6446 32.3325C33.6535 32.3325 33.6625 32.337 33.6714 32.3415C33.7429 32.3593 33.8279 32.3771 33.9173 32.395C33.9352 32.395 33.9486 32.3994 33.9665 32.4039C34.0604 32.4217 34.1588 32.4396 34.2661 32.4529C34.2839 32.4529 34.2974 32.4529 34.3152 32.4574C34.427 32.4708 34.5433 32.4841 34.6685 32.493C34.6729 32.493 34.6774 32.493 34.6819 32.493C34.8071 32.502 34.9457 32.5064 35.0887 32.5064C35.12 32.5064 35.1469 32.5064 35.1782 32.5064C35.2452 32.5064 35.3168 32.5064 35.3838 32.502C35.4196 32.502 35.4554 32.502 35.4956 32.502C35.5895 32.502 35.6834 32.4886 35.7817 32.4841C35.7996 32.4841 35.8175 32.4841 35.8354 32.4841C35.9516 32.4752 36.0724 32.4618 36.1975 32.444C36.2333 32.4395 36.2691 32.4306 36.3049 32.4262C36.3943 32.4128 36.4837 32.3994 36.5776 32.3816C36.6268 32.3727 36.676 32.3638 36.7296 32.3504C36.8146 32.3325 36.8995 32.3147 36.9845 32.2969C37.0381 32.2835 37.0962 32.2701 37.1544 32.2568C37.2393 32.2345 37.3287 32.2122 37.4137 32.1899C37.4718 32.172 37.5344 32.1587 37.5925 32.1408C37.6819 32.1141 37.7758 32.0873 37.8697 32.0561C37.9278 32.0383 37.9904 32.0205 38.053 31.9982C38.1559 31.9625 38.2587 31.9268 38.366 31.8912C38.4197 31.8689 38.4778 31.851 38.5314 31.8332C38.6745 31.7797 38.8176 31.7217 38.9651 31.6593C38.9875 31.6504 39.0054 31.6415 39.0277 31.6326C39.1976 31.5612 39.3675 31.4854 39.5419 31.4007C39.5955 31.374 39.6537 31.3472 39.7073 31.3205C39.828 31.2625 39.9532 31.2001 40.0739 31.1377C40.1455 31.102 40.2125 31.0619 40.2841 31.0262C40.4003 30.9638 40.5121 30.9014 40.6284 30.8345C40.7044 30.7899 40.7804 30.7453 40.8564 30.7008C40.9726 30.6339 41.0889 30.5625 41.2096 30.4912C41.2901 30.4422 41.3661 30.3931 41.4466 30.3441C41.5673 30.2683 41.6925 30.1836 41.8177 30.1033C41.8937 30.0498 41.9741 30.0008 42.0502 29.9473C42.1888 29.8537 42.3274 29.7556 42.466 29.653C42.533 29.604 42.6001 29.5594 42.6716 29.5059C42.8818 29.3499 43.0919 29.1894 43.311 29.0199C43.3959 28.9531 43.4898 28.8951 43.5837 28.8461C43.615 28.8282 43.6463 28.8193 43.6776 28.8059C43.7447 28.7747 43.8117 28.748 43.8788 28.7257C43.919 28.7123 43.9548 28.7034 43.9951 28.6945C44.0621 28.6766 44.1247 28.6677 44.1918 28.6588C44.232 28.6543 44.2767 28.6499 44.317 28.6499C44.3438 28.6499 44.3751 28.641 44.4019 28.641C44.469 28.641 44.5361 28.641 44.6031 28.6543C44.9206 28.69 45.238 28.7212 45.5554 28.7391C45.8774 28.7569 46.1993 28.7703 46.5257 28.7703C48.4795 28.7703 50.3439 28.4314 52.0653 27.8162C53.5273 27.2945 54.8821 26.5723 56.0892 25.685C59.6795 23.0501 61.9865 18.9706 61.9865 14.3874C62 6.43798 55.0788 0 46.5391 0C44.9384 0 43.3915 0.22738 41.9428 0.646473C41.7014 0.717808 41.46 0.793601 41.223 0.873853C40.7491 1.03436 40.2886 1.21715 39.837 1.41778C39.6134 1.52033 39.3899 1.62287 39.1708 1.73433C37.8563 2.39864 36.6581 3.23682 35.6074 4.20876C35.433 4.36926 35.2631 4.53868 35.0932 4.7081C32.5984 7.26279 31.0782 10.6557 31.0782 14.3784L31.0737 14.3829ZM39.8459 16.4561C38.67 16.4561 37.7177 15.5064 37.7177 14.3339C37.7177 13.1613 38.67 12.2116 39.8459 12.2116C41.0218 12.2116 41.9741 13.1613 41.9741 14.3339C41.9741 15.5064 41.0218 16.4561 39.8459 16.4561ZM46.3871 16.4561C45.2112 16.4561 44.2588 15.5064 44.2588 14.3339C44.2588 13.1613 45.2112 12.2116 46.3871 12.2116C47.563 12.2116 48.5153 13.1613 48.5153 14.3339C48.5153 15.5064 47.563 16.4561 46.3871 16.4561ZM52.9282 16.4561C51.7523 16.4561 50.8 15.5064 50.8 14.3339C50.8 13.1613 51.7523 12.2116 52.9282 12.2116C54.1041 12.2116 55.0564 13.1613 55.0564 14.3339C55.0564 15.5064 54.1041 16.4561 52.9282 16.4561Z" fill="#585858"/>
</g>
<defs>
<clipPath id="clip0_1592_92">
<rect width="62" height="51" fill="white"/>
</clipPath>
</defs>
</svg>
