<svg width="256" height="41" viewBox="0 0 256 41" fill="none" xmlns="http://www.w3.org/2000/svg">
<g clip-path="url(#clip0_1592_159)">
<path d="M195.11 40.47C194.39 40.47 193.65 40.26 192.92 39.84C192.71 39.7 192.41 39.56 192.24 39.56C192.05 39.56 191.74 39.72 191.62 39.8C190.82 40.26 190.08 40.47 189.36 40.47C188.64 40.47 188.2 40.26 188.12 40.22C186.88 39.73 185.86 38.69 184.86 37.59C183.14 35.71 182.06 33.88 181.46 31.84C180.83 29.69 180.65 27.37 180.94 25.12C181.29 22.44 183.16 19.34 186.43 18.87C187.13 18.77 187.79 18.8 188.6 18.97C189.72 19.2 191.49 19.91 192.24 20.23C192.99 19.91 194.76 19.2 195.88 18.97C196.69 18.81 197.35 18.77 198.05 18.87C201.32 19.34 203.19 22.44 203.54 25.12C203.83 27.37 203.66 29.69 203.02 31.84C202.42 33.88 201.34 35.71 199.62 37.59C198.61 38.69 197.6 39.73 196.28 40.26C196.27 40.26 195.82 40.48 195.11 40.48V40.47ZM192.23 37.78C193.03 37.78 193.73 38.24 193.87 38.34C194.26 38.56 194.7 38.69 195.11 38.69C195.4 38.69 195.56 38.62 195.57 38.62C196.66 38.18 197.61 37.14 198.3 36.39C199.83 34.71 200.79 33.1 201.31 31.33C201.87 29.42 202.03 27.35 201.77 25.35C201.5 23.31 200.14 20.96 197.79 20.63C197.29 20.56 196.84 20.59 196.22 20.71C194.98 20.96 192.61 22 192.59 22.01L192.23 22.17L191.87 22.01C191.87 22.01 189.48 20.96 188.24 20.71C187.63 20.59 187.18 20.56 186.68 20.63C184.33 20.97 182.97 23.31 182.7 25.35C182.44 27.35 182.6 29.42 183.16 31.33C183.68 33.1 184.64 34.71 186.17 36.39C186.86 37.15 187.81 38.18 188.85 38.6C188.9 38.62 189.07 38.69 189.36 38.69C189.77 38.69 190.21 38.56 190.67 38.29C190.74 38.24 191.45 37.77 192.23 37.77V37.78Z" fill="#FF2C1B"/>
<path d="M18.3 9.22001C16.69 6.67001 14.42 5.01001 11.06 5.01001C7.22999 5.01001 4.33999 8.08001 4.33999 11.82C4.33999 15.56 7.88999 17.12 10.77 18.49L17.58 22.04C20.28 23.74 21.65 25.92 21.65 29.13C21.65 35.04 16.26 39.49 10.49 39.49C5.51999 39.49 1.64999 36.42 -0.0100098 31.83L1.97999 30.93C3.48999 34.71 6.27999 37.36 10.59 37.36C15.27 37.36 19.39 33.67 19.39 28.94C19.39 24.92 15.28 23.22 12.2 21.7L5.76999 18.29C3.40999 16.82 2.07999 14.74 2.07999 11.91C2.07999 6.62001 5.85999 2.89001 11.21 2.89001C14.8 2.89001 18.21 4.83001 19.91 7.90001L18.3 9.22001Z" fill="#585858"/>
<path d="M44.08 22.2301C42 19.9601 39.49 18.6801 36.37 18.6801C31.21 18.6801 27.34 23.0801 27.34 28.0401C27.34 33.0001 31.17 37.5001 36.33 37.5001C39.45 37.5001 42.38 35.9901 44.37 33.5701V36.4501C42.15 38.3901 39.36 39.4801 36.42 39.4801C29.94 39.4801 25.21 34.4201 25.21 28.0301C25.21 21.6401 30.03 16.6801 36.47 16.6801C39.31 16.6801 41.91 17.5301 44.08 19.3801V22.2201V22.2301Z" fill="#585858"/>
<path d="M52.03 0V20.57H52.12C53.4 18.16 55.76 16.69 58.6 16.69C64.23 16.69 65.79 20.19 65.79 25.82V39.01H63.66V25.82C63.66 21.89 63.19 18.68 58.41 18.68C52.92 18.68 52.02 23.79 52.02 28.23V39.01H49.89V0H52.02H52.03Z" fill="#585858"/>
<path d="M93.79 28.0899C93.79 34.5699 88.73 39.4899 82.3 39.4899C75.87 39.4899 70.95 34.3299 70.95 28.1399C70.95 21.9499 75.96 16.6899 82.3 16.6899C88.64 16.6899 93.79 21.6099 93.79 28.0899ZM73.07 28.1399C73.07 33.1099 77 37.5099 82.15 37.5099C87.3 37.5099 91.66 33.4399 91.66 28.1399C91.66 22.8399 87.54 18.6799 82.15 18.6799C76.76 18.6799 73.07 23.0799 73.07 28.1399Z" fill="#585858"/>
<path d="M119.66 28.0899C119.66 34.5699 114.6 39.4899 108.17 39.4899C101.74 39.4899 96.82 34.3299 96.82 28.1399C96.82 21.9499 101.83 16.6899 108.17 16.6899C114.51 16.6899 119.66 21.6099 119.66 28.0899ZM98.95 28.1399C98.95 33.1099 102.88 37.5099 108.03 37.5099C113.18 37.5099 117.54 33.4399 117.54 28.1399C117.54 22.8399 113.42 18.6799 108.03 18.6799C102.64 18.6799 98.95 23.0799 98.95 28.1399Z" fill="#585858"/>
<path d="M126.95 39.02H124.82V0H126.95V39.02Z" fill="#585858"/>
<path d="M143.45 34.0101L156.79 1.56006L170.13 34.0101L180.02 3.36006H182.29L170.28 40.2001L156.66 7.23006L143.09 40.2001L131.17 3.36006H133.44L143.47 34.0101H143.45Z" fill="#585858"/>
<path d="M211.67 20.01H211.76C212.61 18.02 214.17 16.7 216.49 16.7C217.34 16.7 218.05 16.8899 218.81 17.2199L217.68 19.11C217.16 18.83 216.73 18.68 216.17 18.68C211.39 18.68 211.68 24.64 211.68 27.86V39.02H209.55V17.17H211.68V20.01H211.67Z" fill="#585858"/>
<path d="M224.82 26.44L233.81 17.17H236.55L227.38 26.63L239.63 39.02H236.84L226.01 28.1L224.83 29.33V39.03H222.7V0H224.83V26.44H224.82Z" fill="#585858"/>
<path d="M252.06 21.1399C251.35 19.6299 249.93 18.68 248.23 18.68C246.39 18.68 244.49 20.19 244.49 22.08C244.49 27.33 255.13 24.7799 255.13 32.6699C255.13 36.6899 252.01 39.4799 248.08 39.4799C244.44 39.4799 241.46 37.2599 240.56 33.7099L242.64 33.0499C243.44 35.65 245.19 37.5 248.08 37.5C250.97 37.5 253 35.32 253 32.58C253 29.84 250.92 29.03 248.74 28.28C245.76 27.19 242.35 25.92 242.35 22.2299C242.35 18.92 245.14 16.7 248.31 16.7C250.53 16.7 252.95 18.17 253.89 20.2L252.05 21.15L252.06 21.1399Z" fill="#585858"/>
<path d="M193.57 18.24C194.25 17.89 195 17.12 195.29 16.76C196.03 15.83 196.53 14.71 196.71 13.53C196.83 12.73 197 10.8 195.64 11.54C194.77 12.01 194.13 12.82 193.61 13.67C193.03 14.63 192.06 16.49 192.28 17.65C192.44 18.53 192.99 18.54 193.58 18.24H193.57Z" fill="#585858"/>
</g>
<defs>
<clipPath id="clip0_1592_159">
<rect width="255.13" height="40.47" fill="white"/>
</clipPath>
</defs>
</svg>
