<svg width="69" height="63" viewBox="0 0 69 63" fill="none" xmlns="http://www.w3.org/2000/svg">
<path d="M68.2991 31.1932V56.6199C68.2991 58.3796 66.3795 59.4789 64.8443 58.5996L51.8739 51.4123C51.5965 51.2533 51.3701 51.3833 51.3701 51.7012V58.5364C51.3701 60.8287 49.4977 62.6869 47.1879 62.6869H4.18226C1.87239 62.6869 0 60.8287 0 58.5364V29.2887C0 26.9965 1.87239 25.1383 4.18226 25.1383H47.1873C49.4972 25.1383 51.3696 26.9965 51.3696 29.2887V36.1135C51.3696 36.4308 51.5965 36.5608 51.8734 36.4024L64.8438 29.2145C66.3795 28.3347 68.2985 29.4345 68.2985 31.1943L68.2991 31.1932ZM11.2863 8.83341C7.10936 8.83341 3.72357 12.1934 3.72357 16.3386C3.72357 20.4838 7.10936 23.8438 11.2863 23.8438C15.4633 23.8438 18.8491 20.4838 18.8491 16.3386C18.8491 12.1934 15.4633 8.83341 11.2863 8.83341ZM35.5457 0C29.2806 0 24.2011 5.04029 24.2011 11.2583C24.2011 17.4763 29.28 22.5166 35.5457 22.5166C41.8114 22.5166 46.8904 17.4763 46.8904 11.2583C46.8904 5.04029 41.8109 0 35.5457 0ZM34.6734 44.2175C34.9508 44.0586 34.9508 43.7992 34.6734 43.6403L20.0899 35.2847C19.8126 35.1258 19.5861 35.2557 19.5861 35.5736V52.2853C19.5861 52.6026 19.8131 52.7326 20.0899 52.5742L34.6734 44.2186V44.2175Z" fill="#585858"/>
</svg>
