<svg width="65" height="53" viewBox="0 0 65 53" fill="none" xmlns="http://www.w3.org/2000/svg">
<g clip-path="url(#clip0_1832_1011)">
<path d="M25.6694 39.5774C25.4907 35.4546 24.212 30.8001 16.8122 30.4549L12.8349 34.7737L8.86699 30.4643C1.35433 30.8281 0.131999 35.6225 0.00976562 39.5868V41.8814H25.6788V39.5868L25.6694 39.5774Z" fill="#F6B74B"/>
<path d="M12.8618 14.2527C8.87511 14.2527 5.64062 17.4615 5.64062 21.4164C5.64062 25.3713 8.87511 28.5801 12.8618 28.5801C16.8485 28.5801 20.083 25.3713 20.083 21.4164C20.083 17.4615 16.8485 14.2527 12.8618 14.2527Z" fill="#F6B74B"/>
<path d="M55.0982 15.8198L52.0329 12.4898C46.241 12.7696 45.2913 16.4634 45.1973 19.5229V21.2951H64.9991V19.5229C64.858 16.3421 63.8708 12.751 58.1634 12.4898L55.0982 15.8198Z" fill="#F6B74B"/>
<path d="M49.5508 5.522C49.5508 8.57216 52.0425 11.044 55.1171 11.044C58.1917 11.044 60.6834 8.57216 60.6834 5.522C60.6834 2.47184 58.1917 0 55.1171 0C52.0425 0 49.5508 2.47184 49.5508 5.522Z" fill="#F6B74B"/>
<path d="M64.9991 51.2277C64.858 48.047 63.8708 44.4558 58.1634 44.1946L55.0982 47.5246L52.0329 44.204C46.241 44.4838 45.2913 48.1776 45.1973 51.2371V53.0093H64.9991V51.2371V51.2277Z" fill="#F6B74B"/>
<path d="M60.6932 37.2175C60.6932 34.1674 58.2015 31.6955 55.1269 31.6955C52.0522 31.6955 49.5605 34.1674 49.5605 37.2175C49.5605 40.2677 52.0522 42.7395 55.1269 42.7395C58.2015 42.7395 60.6932 40.2677 60.6932 37.2175Z" fill="#F6B74B"/>
<path d="M39.9506 37.2642C36.6127 31.8261 32.7106 29.261 29.7676 28.0671C32.7201 26.8638 36.6127 24.308 39.9506 18.8699C41.3234 18.842 42.4329 17.732 42.4329 16.3608C42.4329 14.9896 41.2952 13.8423 39.8942 13.8423C38.4932 13.8423 37.3555 14.971 37.3555 16.3608C37.3555 16.9391 37.5624 17.4708 37.8915 17.8999C32.391 26.7052 25.5271 26.8824 25.2168 26.8824V29.2703C25.5271 29.2703 32.391 29.4569 37.8915 38.2529C37.5624 38.682 37.3555 39.2043 37.3555 39.792C37.3555 41.1818 38.4932 42.3105 39.8942 42.3105C41.2952 42.3105 42.4329 41.1818 42.4329 39.792C42.4329 38.4021 41.3234 37.3108 39.9506 37.2735V37.2642Z" fill="#F6B74B"/>
</g>
<defs>
<clipPath id="clip0_1832_1011">
<rect width="65" height="53" fill="white"/>
</clipPath>
</defs>
</svg>
