<svg width="70" height="64" viewBox="0 0 70 64" fill="none" xmlns="http://www.w3.org/2000/svg">
<g clip-path="url(#clip0_1725_6320)">
<path d="M63.6923 42.4637V1.75736C63.6923 0.792534 62.918 0 61.9502 0H1.74203C0.774235 0 0 0.781048 0 1.75736V54.5585C0 55.5233 0.774235 56.3159 1.74203 56.3159H51.0426L51.5891 53.1687H3.11971V14.323H60.5725V39.3855L63.6923 42.4637ZM9.64379 10.4178C9.64379 10.5901 9.54131 10.7394 9.3933 10.8198C9.24528 10.9002 9.08588 10.8887 8.92648 10.7739L4.70234 7.51184C4.58848 7.43144 4.53155 7.29361 4.53155 7.15578C4.53155 7.01795 4.59987 6.88011 4.70234 6.79971L8.92648 3.53769C9.06311 3.43431 9.24528 3.41134 9.3933 3.49174C9.54131 3.57215 9.64379 3.72146 9.64379 3.89375V10.4178ZM18.3539 7.51184L14.1298 10.7739C14.0159 10.8658 13.7996 10.8772 13.663 10.8198C13.5036 10.7509 13.4125 10.5901 13.4125 10.4178V3.88227C13.4125 3.70998 13.515 3.56066 13.663 3.48026C13.811 3.39986 13.9932 3.42283 14.1298 3.5262L18.3539 6.78823C18.4678 6.86863 18.5247 7.00646 18.5247 7.14429C18.5247 7.28212 18.4564 7.41996 18.3539 7.50036V7.51184Z" fill="#585858"/>
<path d="M35.9906 32.9993H9.51855V35.3195H35.9906V32.9993Z" fill="#585858"/>
<path d="M35.9792 20.1579H9.51855V22.4781H35.9792V20.1579Z" fill="#585858"/>
<path d="M35.9906 39.42H9.51855V41.7401H35.9906V39.42Z" fill="#585858"/>
<path d="M35.9906 45.8521H9.51855V48.1723H35.9906V45.8521Z" fill="#585858"/>
<path d="M40.0894 48.1608H52.4657L54.1622 38.4092V32.9993H40.0894V48.1608Z" fill="#585858"/>
<path d="M54.1736 20.1579H40.0894V28.8988H54.1736V20.1579Z" fill="#585858"/>
<path d="M35.9792 26.5786H9.51855V28.8988H35.9792V26.5786Z" fill="#585858"/>
<path d="M53.6841 58.1192L59.1834 54.7538L62.1324 64L66.2426 62.6561L63.3051 53.4444L70 52.8241L56.8835 39.8679L53.6841 58.1192Z" fill="#585858"/>
</g>
<defs>
<clipPath id="clip0_1725_6320">
<rect width="70" height="64" fill="white"/>
</clipPath>
</defs>
</svg>
