<svg width="70" height="55" viewBox="0 0 70 55" fill="none" xmlns="http://www.w3.org/2000/svg">
<g clip-path="url(#clip0_1725_6346)">
<path d="M58.4524 23.0711C56.5496 26.1357 53.4488 25.6877 51.1433 22.6638C48.1633 18.744 47.1263 11.8715 48.9687 7.26954C50.3681 3.79768 53.036 2.17883 55.8247 4.69364L58.3718 2.83044C56.4992 0.722892 54.6267 0.0101929 53.0058 0.0101929C50.5292 0.0101929 48.6365 1.65958 48.123 2.51482C45.6464 4.01149 42.3845 6.76047 34.4411 8.59312C32.6189 9.01056 30.5249 10.324 29.357 12.7064C27.7865 13.4598 25.783 15.4859 26.1958 18.9273C26.4676 21.2283 28.7127 23.1424 30.1423 23.4274C30.9376 24.5372 31.9545 25.3823 33.1726 25.9219C32.4679 26.655 31.7229 27.2658 30.9376 27.7851C28.612 29.3225 25.8938 30.1981 22.6419 30.5748C22.6419 30.5748 14.5576 31.3282 11.5776 31.5115C4.56052 31.9187 -0.755172 36.6836 0.0905063 44.2586L2.50673 55.0102H11.1649L9.25202 45.5618H11.4266L14.8093 55.0102H30.6759L27.6153 39.9417C33.2129 38.0887 38.9615 34.8204 42.6462 28.9254C43.1698 28.0804 43.6631 27.1946 44.096 26.2375C46.7538 26.3597 48.5861 26.8484 50.9117 26.9197C52.5326 28.2433 54.0428 28.7727 55.3918 28.7727C58.0899 28.7727 60.1538 26.6244 61.3518 24.2623L58.4624 23.0915L58.4524 23.0711Z" fill="white"/>
<path d="M4.41968 18.6727C4.41968 24.242 8.88969 28.7625 14.3967 28.7625C19.9036 28.7625 24.3737 24.242 24.3737 18.6727C24.3737 13.1035 19.9036 8.58295 14.3967 8.58295C8.88969 8.58295 4.41968 13.1035 4.41968 18.6727Z" fill="white"/>
<path d="M69.6735 10.8602L61.0901 11.9276L61.4108 14.565L69.9942 13.4977L69.6735 10.8602Z" fill="white"/>
<path d="M61.7139 17.897L60.7363 20.3636L68.5394 23.5263L69.5169 21.0597L61.7139 17.897Z" fill="white"/>
<path d="M65.8607 1.47697L59.0469 6.45599L60.5858 8.60992L67.3997 3.63089L65.8607 1.47697Z" fill="white"/>
<path d="M54.4153 10.9552L50.1164 11.3726C49.9956 13.9994 50.4688 16.779 51.4453 19.1614L55.6133 18.1535C56.8819 17.9397 57.6369 16.1579 57.3148 14.1623C56.9825 12.177 55.6939 10.7312 54.4254 10.9552H54.4153Z" fill="white"/>
</g>
<defs>
<clipPath id="clip0_1725_6346">
<rect width="70" height="55" fill="white"/>
</clipPath>
</defs>
</svg>
