<svg width="228" height="228" viewBox="0 0 228 228" fill="none" xmlns="http://www.w3.org/2000/svg">
<path d="M228 114C228 176.96 176.96 228 114 228C51.0395 228 0 176.96 0 114C0 51.0395 51.0395 0 114 0C176.96 0 228 51.0395 228 114Z" fill="#F6B74B"/>
<g clip-path="url(#clip0_3540_20)">
<path d="M147.452 70.0711C145.55 73.1357 142.449 72.6877 140.143 69.6638C137.163 65.744 136.126 58.8715 137.969 54.2695C139.368 50.7977 142.036 49.1788 144.825 51.6936L147.372 49.8304C145.499 47.7229 143.627 47.0102 142.006 47.0102C139.529 47.0102 137.636 48.6596 137.123 49.5148C134.646 51.0115 131.384 53.7605 123.441 55.5931C121.619 56.0106 119.525 57.324 118.357 59.7064C116.786 60.4598 114.783 62.4859 115.196 65.9273C115.468 68.2283 117.713 70.1424 119.142 70.4274C119.938 71.5372 120.954 72.3823 122.173 72.9219C121.468 73.655 120.723 74.2658 119.938 74.7851C117.612 76.3225 114.894 77.1981 111.642 77.5748C111.642 77.5748 103.558 78.3282 100.578 78.5115C93.5605 78.9187 88.2448 83.6836 89.0905 91.2586L91.5067 102.01H100.165L98.252 92.5618H100.427L103.809 102.01H119.676L116.615 86.9417C122.213 85.0887 127.962 81.8204 131.646 75.9254C132.17 75.0804 132.663 74.1946 133.096 73.2375C135.754 73.3597 137.586 73.8484 139.912 73.9197C141.533 75.2433 143.043 75.7727 144.392 75.7727C147.09 75.7727 149.154 73.6244 150.352 71.2623L147.462 70.0915L147.452 70.0711Z" fill="white"/>
<path d="M93.4197 65.6727C93.4197 71.242 97.8897 75.7625 103.397 75.7625C108.904 75.7625 113.374 71.242 113.374 65.6727C113.374 60.1035 108.904 55.5829 103.397 55.5829C97.8897 55.5829 93.4197 60.1035 93.4197 65.6727Z" fill="white"/>
<path d="M158.674 57.8602L150.09 58.9276L150.411 61.565L158.994 60.4977L158.674 57.8602Z" fill="white"/>
<path d="M150.714 64.897L149.736 67.3636L157.539 70.5263L158.517 68.0597L150.714 64.897Z" fill="white"/>
<path d="M154.861 48.477L148.047 53.456L149.586 55.6099L156.4 50.6309L154.861 48.477Z" fill="white"/>
<path d="M143.415 57.9552L139.116 58.3726C138.996 60.9994 139.469 63.779 140.445 66.1614L144.613 65.1535C145.882 64.9397 146.637 63.1579 146.315 61.1623C145.983 59.177 144.694 57.7312 143.425 57.9552H143.415Z" fill="white"/>
</g>
<path d="M192.397 129.422L189.351 129.609C189.299 129.349 189.187 129.115 189.015 128.906C188.843 128.693 188.616 128.523 188.335 128.398C188.059 128.268 187.728 128.203 187.343 128.203C186.827 128.203 186.392 128.313 186.038 128.531C185.684 128.745 185.507 129.031 185.507 129.391C185.507 129.677 185.621 129.919 185.851 130.117C186.08 130.315 186.473 130.474 187.03 130.594L189.202 131.031C190.369 131.271 191.239 131.656 191.812 132.188C192.384 132.719 192.671 133.417 192.671 134.281C192.671 135.068 192.439 135.758 191.976 136.352C191.517 136.945 190.887 137.409 190.085 137.742C189.288 138.07 188.369 138.234 187.327 138.234C185.739 138.234 184.473 137.904 183.53 137.242C182.593 136.576 182.043 135.669 181.882 134.523L185.155 134.352C185.254 134.836 185.494 135.206 185.874 135.461C186.254 135.711 186.741 135.836 187.335 135.836C187.918 135.836 188.387 135.724 188.741 135.5C189.101 135.271 189.283 134.977 189.288 134.617C189.283 134.315 189.155 134.068 188.905 133.875C188.655 133.677 188.27 133.526 187.749 133.422L185.671 133.008C184.499 132.773 183.627 132.367 183.054 131.789C182.486 131.211 182.202 130.474 182.202 129.578C182.202 128.807 182.41 128.143 182.827 127.586C183.249 127.029 183.84 126.599 184.601 126.297C185.366 125.995 186.262 125.844 187.288 125.844C188.804 125.844 189.996 126.164 190.866 126.805C191.741 127.445 192.252 128.318 192.397 129.422Z" fill="white"/>
<path d="M180.396 126V128.5H173.169V126H180.396ZM174.81 123.125H178.138V134.312C178.138 134.62 178.185 134.859 178.278 135.031C178.372 135.198 178.502 135.315 178.669 135.383C178.841 135.451 179.039 135.484 179.263 135.484C179.419 135.484 179.575 135.471 179.731 135.445C179.888 135.414 180.007 135.391 180.091 135.375L180.614 137.852C180.448 137.904 180.213 137.964 179.911 138.031C179.609 138.104 179.242 138.148 178.81 138.164C178.007 138.195 177.304 138.089 176.7 137.844C176.101 137.599 175.635 137.219 175.302 136.703C174.968 136.188 174.804 135.536 174.81 134.75V123.125Z" fill="white"/>
<path d="M163.655 131.062V138H160.327V126H163.499V128.117H163.64C163.905 127.419 164.351 126.867 164.976 126.461C165.601 126.049 166.358 125.844 167.249 125.844C168.082 125.844 168.809 126.026 169.429 126.391C170.049 126.755 170.53 127.276 170.874 127.953C171.218 128.625 171.39 129.427 171.39 130.359V138H168.062V130.953C168.067 130.219 167.879 129.646 167.499 129.234C167.119 128.818 166.595 128.609 165.929 128.609C165.481 128.609 165.085 128.706 164.741 128.898C164.403 129.091 164.137 129.372 163.944 129.742C163.757 130.107 163.66 130.547 163.655 131.062Z" fill="white"/>
<path d="M152.647 138.234C151.413 138.234 150.351 137.984 149.46 137.484C148.575 136.979 147.892 136.266 147.413 135.344C146.934 134.417 146.694 133.32 146.694 132.055C146.694 130.82 146.934 129.737 147.413 128.805C147.892 127.872 148.567 127.146 149.437 126.625C150.312 126.104 151.338 125.844 152.515 125.844C153.306 125.844 154.043 125.971 154.726 126.227C155.413 126.477 156.012 126.854 156.522 127.359C157.038 127.865 157.439 128.5 157.726 129.266C158.012 130.026 158.155 130.917 158.155 131.938V132.852H148.022V130.789H155.022C155.022 130.31 154.918 129.885 154.71 129.516C154.502 129.146 154.213 128.857 153.843 128.648C153.478 128.435 153.054 128.328 152.569 128.328C152.064 128.328 151.616 128.445 151.226 128.68C150.84 128.909 150.538 129.219 150.319 129.609C150.101 129.995 149.989 130.424 149.983 130.898V132.859C149.983 133.453 150.093 133.966 150.312 134.398C150.535 134.831 150.851 135.164 151.257 135.398C151.663 135.633 152.145 135.75 152.702 135.75C153.072 135.75 153.41 135.698 153.718 135.594C154.025 135.49 154.288 135.333 154.507 135.125C154.726 134.917 154.892 134.661 155.007 134.359L158.085 134.562C157.929 135.302 157.608 135.948 157.124 136.5C156.645 137.047 156.025 137.474 155.265 137.781C154.509 138.083 153.637 138.234 152.647 138.234Z" fill="white"/>
<path d="M145.862 126L141.667 138H137.917L133.722 126H137.237L139.729 134.586H139.854L142.339 126H145.862Z" fill="white"/>
<path d="M121.267 138V122H132.048V124.789H124.649V128.602H131.493V131.391H124.649V135.211H132.079V138H121.267Z" fill="white"/>
<path d="M106.194 138.234C105.09 138.234 104.137 138.036 103.335 137.641C102.533 137.245 101.916 136.708 101.483 136.031C101.056 135.349 100.843 134.589 100.843 133.75C100.843 133.125 100.968 132.57 101.218 132.086C101.468 131.602 101.817 131.156 102.265 130.75C102.713 130.339 103.233 129.93 103.827 129.523L106.929 127.484C107.33 127.229 107.624 126.961 107.812 126.68C107.999 126.393 108.093 126.083 108.093 125.75C108.093 125.432 107.965 125.138 107.71 124.867C107.455 124.596 107.093 124.464 106.624 124.469C106.312 124.469 106.041 124.539 105.812 124.68C105.582 124.815 105.403 124.995 105.272 125.219C105.147 125.438 105.085 125.682 105.085 125.953C105.085 126.286 105.179 126.625 105.366 126.969C105.554 127.312 105.804 127.677 106.116 128.063C106.429 128.443 106.77 128.854 107.14 129.297L114.726 138H111.257L104.929 130.953C104.512 130.479 104.095 129.984 103.679 129.469C103.267 128.948 102.924 128.396 102.647 127.813C102.371 127.224 102.233 126.586 102.233 125.898C102.233 125.122 102.413 124.424 102.772 123.805C103.137 123.185 103.647 122.695 104.304 122.336C104.96 121.971 105.726 121.789 106.601 121.789C107.455 121.789 108.192 121.964 108.812 122.313C109.437 122.656 109.916 123.115 110.249 123.688C110.588 124.255 110.757 124.88 110.757 125.562C110.757 126.318 110.569 127.003 110.194 127.617C109.825 128.227 109.304 128.773 108.632 129.258L105.366 131.609C104.924 131.932 104.595 132.263 104.382 132.602C104.174 132.935 104.069 133.255 104.069 133.562C104.069 133.943 104.163 134.284 104.351 134.586C104.538 134.888 104.804 135.128 105.147 135.305C105.491 135.477 105.895 135.562 106.358 135.562C106.921 135.562 107.476 135.435 108.022 135.18C108.575 134.919 109.075 134.552 109.522 134.078C109.976 133.599 110.338 133.031 110.608 132.375C110.879 131.719 111.015 130.992 111.015 130.195H113.772C113.772 131.174 113.666 132.057 113.452 132.844C113.239 133.625 112.942 134.307 112.562 134.891C112.181 135.469 111.746 135.943 111.257 136.312C111.101 136.411 110.95 136.505 110.804 136.594C110.658 136.682 110.507 136.776 110.351 136.875C109.757 137.354 109.093 137.701 108.358 137.914C107.629 138.128 106.908 138.234 106.194 138.234Z" fill="white"/>
<path d="M93.8271 129.422L90.7803 129.609C90.7282 129.349 90.6162 129.115 90.4443 128.906C90.2725 128.693 90.0459 128.523 89.7646 128.398C89.4886 128.268 89.1579 128.203 88.7725 128.203C88.2568 128.203 87.8219 128.313 87.4678 128.531C87.1136 128.745 86.9365 129.031 86.9365 129.391C86.9365 129.677 87.0511 129.919 87.2803 130.117C87.5094 130.315 87.9027 130.474 88.46 130.594L90.6318 131.031C91.7985 131.271 92.6683 131.656 93.2412 132.188C93.8141 132.719 94.1006 133.417 94.1006 134.281C94.1006 135.068 93.8688 135.758 93.4053 136.352C92.9469 136.945 92.3167 137.409 91.5146 137.742C90.7178 138.07 89.7985 138.234 88.7568 138.234C87.1683 138.234 85.9027 137.904 84.96 137.242C84.0225 136.576 83.473 135.669 83.3115 134.523L86.585 134.352C86.6839 134.836 86.9235 135.206 87.3037 135.461C87.6839 135.711 88.1709 135.836 88.7646 135.836C89.348 135.836 89.8167 135.724 90.1709 135.5C90.5303 135.271 90.7126 134.977 90.7178 134.617C90.7126 134.315 90.585 134.068 90.335 133.875C90.085 133.677 89.6995 133.526 89.1787 133.422L87.1006 133.008C85.9287 132.773 85.0563 132.367 84.4834 131.789C83.9157 131.211 83.6318 130.474 83.6318 129.578C83.6318 128.807 83.8402 128.143 84.2568 127.586C84.6787 127.029 85.2699 126.599 86.0303 126.297C86.7959 125.995 87.6917 125.844 88.7178 125.844C90.2334 125.844 91.4261 126.164 92.2959 126.805C93.1709 127.445 93.6813 128.318 93.8271 129.422Z" fill="white"/>
<path d="M67.4971 138L64.2314 126H67.5986L69.458 134.062H69.5674L71.5049 126H74.8096L76.7783 134.016H76.8799L78.708 126H82.0674L78.8096 138H75.2861L73.2236 130.453H73.0752L71.0127 138H67.4971Z" fill="white"/>
<path d="M57.5361 138.234C56.3018 138.234 55.2393 137.984 54.3486 137.484C53.4632 136.979 52.7809 136.266 52.3018 135.344C51.8226 134.417 51.583 133.32 51.583 132.055C51.583 130.82 51.8226 129.737 52.3018 128.805C52.7809 127.872 53.4554 127.146 54.3252 126.625C55.2002 126.104 56.2262 125.844 57.4033 125.844C58.195 125.844 58.932 125.971 59.6143 126.227C60.3018 126.477 60.9007 126.854 61.4111 127.359C61.9268 127.865 62.3278 128.5 62.6143 129.266C62.9007 130.026 63.0439 130.917 63.0439 131.938V132.852H52.9111V130.789H59.9111C59.9111 130.31 59.807 129.885 59.5986 129.516C59.3903 129.146 59.1012 128.857 58.7314 128.648C58.3669 128.435 57.9424 128.328 57.458 128.328C56.9528 128.328 56.5049 128.445 56.1143 128.68C55.7288 128.909 55.4268 129.219 55.208 129.609C54.9893 129.995 54.8773 130.424 54.8721 130.898V132.859C54.8721 133.453 54.9814 133.966 55.2002 134.398C55.4242 134.831 55.7393 135.164 56.1455 135.398C56.5518 135.633 57.0335 135.75 57.5908 135.75C57.9606 135.75 58.2992 135.698 58.6064 135.594C58.9137 135.49 59.1768 135.333 59.3955 135.125C59.6143 134.917 59.7809 134.661 59.8955 134.359L62.9736 134.562C62.8174 135.302 62.4971 135.948 62.0127 136.5C61.5335 137.047 60.9137 137.474 60.1533 137.781C59.3981 138.083 58.5257 138.234 57.5361 138.234Z" fill="white"/>
<path d="M49.335 122V138H46.4131L39.4521 127.93H39.335V138H35.9521V122H38.9209L45.8271 132.062H45.9678V122H49.335Z" fill="white"/>
<defs>
<clipPath id="clip0_3540_20">
<rect width="70" height="55" fill="white" transform="translate(89 47)"/>
</clipPath>
</defs>
</svg>
