<svg width="58" height="45" viewBox="0 0 58 45" fill="none" xmlns="http://www.w3.org/2000/svg">
<g clip-path="url(#clip0_1825_613)">
<path d="M55.3548 0H17.2167C15.7604 0 14.5713 1.20466 14.5713 2.67992V9.37536C15.5622 9.73327 16.4756 10.2483 17.2684 10.903V2.7323H55.2945V31.321H34.2263C32.6925 32.2726 31.0295 33.1891 29.2716 34.0533H55.3462C56.8025 34.0533 57.9916 32.8487 57.9916 31.3734V2.67992C57.9916 1.20466 56.8025 0 55.3462 0H55.3548Z" fill="#F6B74B"/>
<path d="M35.7515 26.7643C37.3111 25.5771 37.5782 23.421 36.2685 21.806C35.6739 21.0727 34.7778 20.6625 33.8989 20.6625C33.4422 20.6625 32.9941 20.7672 32.5977 21.0029C24.3859 25.6731 20.1464 26.677 15.8207 26.8691L11.4864 31.2599L7.46236 27.1833C2.99883 27.9952 0.00878906 30.6838 0.00878906 36.2619V45H19.9309V34.7604C26.4108 32.613 32.0979 29.5577 35.7601 26.7643H35.7515Z" fill="#F6B74B"/>
<path d="M11.4775 25.0446C15.1999 25.0446 18.2158 21.9893 18.2158 18.2182C18.2158 14.4471 15.1999 11.3831 11.4775 11.3831C7.75498 11.3831 4.73047 14.4384 4.73047 18.2182C4.73047 21.9981 7.74637 25.0446 11.4775 25.0446Z" fill="#F6B74B"/>
<path d="M49.7192 9.82929C49.6417 9.75073 49.5383 9.71581 49.4262 9.72454L44.2734 10.1697C44.1355 10.1872 44.0149 10.2745 43.9718 10.4142C43.9201 10.5451 43.9545 10.6935 44.0579 10.7895L45.5314 12.2561L39.3531 17.4326L34.2434 13.4345C33.8297 13.1028 33.2438 13.0766 32.8043 13.3647L24.7734 18.4976L26.1177 20.6537L33.4075 15.9922L38.6121 20.0689C39.0774 20.4355 39.7323 20.4268 40.1804 20.0427L47.3151 14.063L48.8058 15.5645C48.8748 15.6343 48.9695 15.6693 49.0643 15.6693C49.0988 15.6693 49.1419 15.6693 49.185 15.6518C49.3142 15.6081 49.409 15.4859 49.4262 15.3463L49.8312 10.1174C49.8398 10.0039 49.8054 9.89913 49.7278 9.82056L49.7192 9.82929Z" fill="#F6B74B"/>
</g>
<defs>
<clipPath id="clip0_1825_613">
<rect width="58" height="45" fill="white"/>
</clipPath>
</defs>
</svg>
