<svg width="94" height="47" viewBox="0 0 94 47" fill="none" xmlns="http://www.w3.org/2000/svg">
<path d="M17.4589 24.2626C22.8804 24.2626 27.2686 19.8744 27.2686 14.4529C27.2686 9.03139 22.8804 4.64319 17.4589 4.64319C12.0374 4.64319 7.64917 9.04481 7.64917 14.4529C7.64917 19.861 12.0374 24.2626 17.4589 24.2626Z" fill="white"/>
<path d="M23.7124 38.9168C23.8734 33.8308 25.1349 30.1806 27.027 27.4967C25.8193 27.1478 24.437 26.9063 22.8267 26.8257L17.432 32.7304L12.0374 26.8257C1.82506 27.3223 0.161035 33.8844 0 39.3194V46.1231H23.7258V38.9034L23.7124 38.9168Z" fill="white"/>
<path d="M76.5856 24.2626C82.0071 24.2626 86.3953 19.8744 86.3953 14.4529C86.3953 9.03139 82.0071 4.64319 76.5856 4.64319C71.1641 4.64319 66.7759 9.04481 66.7759 14.4529C66.7759 19.861 71.1641 24.2626 76.5856 24.2626Z" fill="white"/>
<path d="M76.5589 32.7437L71.1643 26.8391C69.9431 26.8928 68.8427 27.0538 67.863 27.2685C69.9431 30.1672 71.1106 34.193 71.3253 38.9838V46.1365H94.0044V39.3327C93.7628 33.6831 92.0183 27.3088 81.967 26.8391L76.5723 32.7437H76.5589Z" fill="white"/>
<path d="M67.1114 38.9705C66.8296 32.623 64.8838 25.457 53.5845 24.9336L47.5188 31.5763L41.4532 24.9336C29.9795 25.4972 28.1141 32.8646 27.9263 38.9705V46.1231H67.1248V38.9705H67.1114Z" fill="white"/>
<path d="M47.5455 22.0484C53.638 22.0484 58.563 17.11 58.563 11.0309C58.563 4.95182 53.6246 0 47.5455 0C41.4665 0 36.5146 4.9384 36.5146 11.0309C36.5146 17.1234 41.453 22.0484 47.5455 22.0484Z" fill="white"/>
</svg>
