<svg width="228" height="228" viewBox="0 0 228 228" fill="none" xmlns="http://www.w3.org/2000/svg">
<path d="M228 114C228 176.96 176.96 228 114 228C51.0395 228 0 176.96 0 114C0 51.0395 51.0395 0 114 0C176.96 0 228 51.0395 228 114Z" fill="#7AB245"/>
<path d="M84.4589 80.2626C89.8804 80.2626 94.2686 75.8744 94.2686 70.4529C94.2686 65.0314 89.8804 60.6432 84.4589 60.6432C79.0374 60.6432 74.6492 65.0448 74.6492 70.4529C74.6492 75.861 79.0374 80.2626 84.4589 80.2626Z" fill="white"/>
<path d="M90.7124 94.9168C90.8734 89.8308 92.1349 86.1806 94.027 83.4967C92.8193 83.1478 91.437 82.9063 89.8267 82.8257L84.432 88.7304L79.0374 82.8257C68.8251 83.3223 67.161 89.8844 67 95.3194V102.123H90.7258V94.9034L90.7124 94.9168Z" fill="white"/>
<path d="M143.586 80.2626C149.007 80.2626 153.395 75.8744 153.395 70.4529C153.395 65.0314 149.007 60.6432 143.586 60.6432C138.164 60.6432 133.776 65.0448 133.776 70.4529C133.776 75.861 138.164 80.2626 143.586 80.2626Z" fill="white"/>
<path d="M143.559 88.7437L138.164 82.8391C136.943 82.8928 135.843 83.0538 134.863 83.2685C136.943 86.1672 138.111 90.193 138.325 94.9838V102.136H161.004V95.3327C160.763 89.6831 159.018 83.3088 148.967 82.8391L143.572 88.7437H143.559Z" fill="white"/>
<path d="M134.111 94.9705C133.83 88.623 131.884 81.457 120.584 80.9336L114.519 87.5763L108.453 80.9336C96.9795 81.4972 95.1141 88.8646 94.9263 94.9705V102.123H134.125V94.9705H134.111Z" fill="white"/>
<path d="M114.546 78.0484C120.638 78.0484 125.563 73.11 125.563 67.0309C125.563 60.9518 120.625 56 114.546 56C108.466 56 103.515 60.9384 103.515 67.0309C103.515 73.1234 108.453 78.0484 114.546 78.0484Z" fill="white"/>
<path d="M147.222 141V129H150.394V131.117H150.534C150.784 130.414 151.201 129.859 151.784 129.453C152.368 129.047 153.065 128.844 153.878 128.844C154.701 128.844 155.401 129.049 155.979 129.461C156.558 129.867 156.943 130.419 157.136 131.117H157.261C157.506 130.43 157.948 129.88 158.589 129.469C159.235 129.052 159.998 128.844 160.878 128.844C161.998 128.844 162.907 129.201 163.604 129.914C164.308 130.622 164.659 131.628 164.659 132.93V141H161.339V133.586C161.339 132.919 161.162 132.419 160.808 132.086C160.453 131.753 160.011 131.586 159.479 131.586C158.875 131.586 158.404 131.779 158.065 132.164C157.727 132.544 157.558 133.047 157.558 133.672V141H154.331V133.516C154.331 132.927 154.162 132.458 153.823 132.109C153.49 131.76 153.05 131.586 152.503 131.586C152.133 131.586 151.8 131.68 151.503 131.867C151.211 132.049 150.979 132.307 150.808 132.641C150.636 132.969 150.55 133.354 150.55 133.797V141H147.222Z" fill="white"/>
<path d="M137.882 141.227C137.116 141.227 136.434 141.094 135.835 140.828C135.236 140.557 134.762 140.159 134.413 139.633C134.069 139.102 133.897 138.44 133.897 137.648C133.897 136.982 134.02 136.422 134.265 135.969C134.509 135.516 134.843 135.151 135.265 134.875C135.687 134.599 136.166 134.391 136.702 134.25C137.244 134.109 137.812 134.01 138.405 133.953C139.103 133.88 139.666 133.813 140.093 133.75C140.52 133.682 140.83 133.583 141.022 133.453C141.215 133.323 141.312 133.13 141.312 132.875V132.828C141.312 132.333 141.155 131.951 140.843 131.68C140.535 131.409 140.098 131.273 139.53 131.273C138.931 131.273 138.455 131.406 138.101 131.672C137.746 131.932 137.512 132.26 137.397 132.656L134.319 132.406C134.476 131.677 134.783 131.047 135.241 130.516C135.7 129.979 136.291 129.568 137.015 129.281C137.744 128.99 138.588 128.844 139.546 128.844C140.213 128.844 140.851 128.922 141.46 129.078C142.075 129.234 142.619 129.477 143.093 129.805C143.572 130.133 143.95 130.555 144.226 131.07C144.502 131.581 144.64 132.193 144.64 132.906V141H141.483V139.336H141.39C141.197 139.711 140.939 140.042 140.616 140.328C140.293 140.609 139.905 140.831 139.452 140.992C138.999 141.148 138.476 141.227 137.882 141.227ZM138.835 138.93C139.325 138.93 139.757 138.833 140.132 138.641C140.507 138.443 140.801 138.177 141.015 137.844C141.228 137.51 141.335 137.133 141.335 136.711V135.438C141.231 135.505 141.088 135.568 140.905 135.625C140.728 135.677 140.528 135.727 140.304 135.773C140.08 135.815 139.856 135.854 139.632 135.891C139.408 135.922 139.205 135.951 139.022 135.977C138.632 136.034 138.291 136.125 137.999 136.25C137.707 136.375 137.481 136.544 137.319 136.758C137.158 136.966 137.077 137.227 137.077 137.539C137.077 137.992 137.241 138.339 137.569 138.578C137.903 138.813 138.325 138.93 138.835 138.93Z" fill="white"/>
<path d="M126.78 141.234C125.546 141.234 124.483 140.984 123.593 140.484C122.707 139.979 122.025 139.266 121.546 138.344C121.067 137.417 120.827 136.32 120.827 135.055C120.827 133.82 121.067 132.737 121.546 131.805C122.025 130.872 122.7 130.146 123.569 129.625C124.444 129.104 125.47 128.844 126.647 128.844C127.439 128.844 128.176 128.971 128.858 129.227C129.546 129.477 130.145 129.854 130.655 130.359C131.171 130.865 131.572 131.5 131.858 132.266C132.145 133.026 132.288 133.917 132.288 134.938V135.852H122.155V133.789H129.155C129.155 133.31 129.051 132.885 128.843 132.516C128.634 132.146 128.345 131.857 127.976 131.648C127.611 131.435 127.187 131.328 126.702 131.328C126.197 131.328 125.749 131.445 125.358 131.68C124.973 131.909 124.671 132.219 124.452 132.609C124.233 132.995 124.121 133.424 124.116 133.898V135.859C124.116 136.453 124.226 136.966 124.444 137.398C124.668 137.831 124.983 138.164 125.39 138.398C125.796 138.633 126.278 138.75 126.835 138.75C127.205 138.75 127.543 138.698 127.851 138.594C128.158 138.49 128.421 138.333 128.64 138.125C128.858 137.917 129.025 137.661 129.14 137.359L132.218 137.562C132.062 138.302 131.741 138.948 131.257 139.5C130.778 140.047 130.158 140.474 129.397 140.781C128.642 141.083 127.77 141.234 126.78 141.234Z" fill="white"/>
<path d="M107.81 127.789V125H120.95V127.789H116.052V141H112.708V127.789H107.81Z" fill="white"/>
<path d="M94.2627 141V129H97.4893V131.094H97.6143C97.833 130.349 98.2002 129.786 98.7158 129.406C99.2314 129.021 99.8252 128.828 100.497 128.828C100.664 128.828 100.843 128.839 101.036 128.859C101.229 128.88 101.398 128.909 101.544 128.945V131.898C101.388 131.852 101.172 131.81 100.896 131.773C100.619 131.737 100.367 131.719 100.138 131.719C99.6481 131.719 99.2106 131.826 98.8252 132.039C98.445 132.247 98.1429 132.539 97.9189 132.914C97.7002 133.289 97.5908 133.721 97.5908 134.211V141H94.2627Z" fill="white"/>
<path d="M88.2725 135.891V129H91.6006V141H88.4053V138.82H88.2803C88.0094 139.523 87.5589 140.089 86.9287 140.516C86.3037 140.943 85.5407 141.156 84.6396 141.156C83.8376 141.156 83.1318 140.974 82.5225 140.609C81.9131 140.245 81.4365 139.727 81.0928 139.055C80.7542 138.383 80.5824 137.578 80.5771 136.641V129H83.9053V136.047C83.9105 136.755 84.1006 137.315 84.4756 137.727C84.8506 138.138 85.3532 138.344 85.9834 138.344C86.3844 138.344 86.7594 138.253 87.1084 138.07C87.4574 137.883 87.7386 137.607 87.9521 137.242C88.1709 136.878 88.2777 136.427 88.2725 135.891Z" fill="white"/>
<path d="M78.1338 133C78.1338 134.745 77.8031 136.229 77.1416 137.453C76.4854 138.677 75.5895 139.612 74.4541 140.258C73.3239 140.898 72.0531 141.219 70.6416 141.219C69.2197 141.219 67.9437 140.896 66.8135 140.25C65.6833 139.604 64.79 138.669 64.1338 137.445C63.4775 136.221 63.1494 134.74 63.1494 133C63.1494 131.255 63.4775 129.771 64.1338 128.547C64.79 127.323 65.6833 126.391 66.8135 125.75C67.9437 125.104 69.2197 124.781 70.6416 124.781C72.0531 124.781 73.3239 125.104 74.4541 125.75C75.5895 126.391 76.4854 127.323 77.1416 128.547C77.8031 129.771 78.1338 131.255 78.1338 133ZM74.7041 133C74.7041 131.87 74.5348 130.917 74.1963 130.141C73.863 129.365 73.3916 128.776 72.7822 128.375C72.1729 127.974 71.4593 127.773 70.6416 127.773C69.8239 127.773 69.1104 127.974 68.501 128.375C67.8916 128.776 67.4176 129.365 67.0791 130.141C66.7458 130.917 66.5791 131.87 66.5791 133C66.5791 134.13 66.7458 135.083 67.0791 135.859C67.4176 136.635 67.8916 137.224 68.501 137.625C69.1104 138.026 69.8239 138.227 70.6416 138.227C71.4593 138.227 72.1729 138.026 72.7822 137.625C73.3916 137.224 73.863 136.635 74.1963 135.859C74.5348 135.083 74.7041 134.13 74.7041 133Z" fill="white"/>
</svg>
