<svg width="95" height="71" viewBox="0 0 95 71" fill="none" xmlns="http://www.w3.org/2000/svg">
<g clip-path="url(#clip0_1825_596)">
<path d="M17.6412 48.8937C23.1238 48.8937 27.5501 44.4556 27.5501 38.9818C27.5501 33.5081 23.1133 29.0699 17.6412 29.0699C12.1692 29.0699 7.73242 33.5187 7.73242 38.9818C7.73242 44.445 12.1692 48.8937 17.6412 48.8937Z" fill="#585858"/>
<path d="M23.9586 63.7087C24.1171 58.5626 25.3953 54.8747 27.3074 52.1695C26.082 51.8208 24.6875 51.5778 23.0607 51.4932L17.6098 57.4636L12.1589 51.4932C1.84866 51.9793 0.158457 58.6154 0 64.1103V70.9894H23.9798V63.6876H23.9692L23.9586 63.7087Z" fill="#585858"/>
<path d="M77.401 48.8937C82.8836 48.8937 87.3098 44.4556 87.3098 38.9818C87.3098 33.5081 82.873 29.0699 77.401 29.0699C71.929 29.0699 67.4922 33.5187 67.4922 38.9818C67.4922 44.445 71.929 48.8937 77.401 48.8937Z" fill="#585858"/>
<path d="M77.3691 57.4636L71.9182 51.4932C70.6823 51.5461 69.5731 51.7151 68.5801 51.9265C70.6823 54.8535 71.8654 58.9219 72.0767 63.7721V71H95.0001V64.1208C94.7571 58.4146 92.993 51.9687 82.8306 51.4932L77.3797 57.4636H77.3691Z" fill="#585858"/>
<path d="M67.8196 63.7616C67.5344 57.3474 65.5695 50.0984 54.1501 49.57L48.0231 56.2801L41.8961 49.57C30.2971 50.1406 28.4167 57.5904 28.2266 63.7616V70.9894H67.8407V63.7616H67.8301H67.8196Z" fill="#585858"/>
<path d="M48.0442 46.6535C54.2029 46.6535 59.1784 41.6659 59.1784 35.5159C59.1784 29.3658 54.1923 24.3676 48.0442 24.3676C41.8961 24.3676 36.8994 29.3553 36.8994 35.5159C36.8994 41.6764 41.8855 46.6535 48.0442 46.6535Z" fill="#585858"/>
<path d="M58.5441 13.7583L56.4313 12.0464C56.5792 11.3384 56.6215 10.6093 56.5792 9.86962L58.9032 8.45363C58.8082 7.97811 58.6919 7.5026 58.5335 7.02708C58.375 6.55156 58.1849 6.09718 57.963 5.66393L55.2587 5.94924C54.8467 5.33635 54.3714 4.78686 53.8221 4.31135L54.4664 1.66959C53.653 1.1201 52.7657 0.676283 51.8255 0.369839L50.1142 2.48325C49.4064 2.33531 48.6775 2.29304 47.938 2.33531L46.5225 0.0105591C46.0471 0.105663 45.5717 0.2219 45.0964 0.380406C44.621 0.538912 44.1668 0.729118 43.7337 0.951026L44.0189 3.65619C43.4062 4.05774 42.8569 4.54382 42.3815 5.09331L39.7405 4.44872C39.1912 5.26238 38.7475 6.15001 38.4412 7.09048L40.554 8.80234C40.4061 9.51034 40.3638 10.2395 40.4061 10.9792L38.082 12.3951C38.1771 12.8707 38.2933 13.3462 38.4518 13.8217C38.6102 14.2972 38.8004 14.7516 39.0222 15.1848L41.7265 14.8995C42.1385 15.5124 42.6139 16.0619 43.1632 16.5374L42.5188 19.1792C43.3322 19.7287 44.2196 20.1725 45.1492 20.4789L46.8605 18.3655C47.5683 18.5135 48.2972 18.5557 49.0367 18.5135L50.4522 20.8382C50.9276 20.7431 51.4029 20.6269 51.8783 20.4684C52.3537 20.3099 52.8079 20.1197 53.241 19.8977L52.9558 17.1926C53.5685 16.7805 54.1178 16.3049 54.5932 15.7555L57.2341 16.4001C57.7835 15.5864 58.2271 14.6988 58.5335 13.7689L58.5441 13.7583ZM49.6811 13.9379C47.7373 14.5931 45.6351 13.5575 44.9802 11.6132C44.3252 9.66884 45.3605 7.566 47.3042 6.91084C49.2479 6.25568 51.3501 7.30182 52.0051 9.23559C52.66 11.1799 51.6142 13.2828 49.6811 13.9379Z" fill="#585858"/>
</g>
<defs>
<clipPath id="clip0_1825_596">
<rect width="95" height="71" fill="white"/>
</clipPath>
</defs>
</svg>
