<svg width="67" height="40" viewBox="0 0 67 40" fill="none" xmlns="http://www.w3.org/2000/svg">
<path d="M33.7857 4.09171L32.7812 12.5886L35.9062 11.1878L36.6223 5.18837L63.2122 6.33112L59.3246 39.1573H62.2821L66.2627 5.54778C66.4301 4.11014 65.314 3.46504 64.3654 3.45583L35.8783 2.23936C34.8459 2.19328 33.9438 3.04112 33.795 4.08249L33.7857 4.09171Z" fill="#1AA2FF"/>
<path d="M33.8981 26.8508C32.8629 27.3376 31.7895 27.8146 30.6872 28.282L29.4316 39.1573H32.4795L33.8981 26.8508Z" fill="#1AA2FF"/>
<path d="M0.398438 30.0257V39.1573H24.3463V27.8209C32.1344 25.2186 39.228 21.6606 43.3767 18.5C45.0344 17.2415 45.7196 15.1502 44.275 12.898C43.3026 11.3935 41.2838 10.7405 39.5891 11.5165C32.6715 14.6581 28.5043 17.1847 19.6234 18.2351L14.2059 23.7708L9.54788 19.011C4.25083 19.9762 0.407698 23.2409 0.407698 30.0257H0.398438Z" fill="#1AA2FF"/>
<path d="M42.3089 30.2071L42.8297 24.7488L38.8841 24.6132L38.3633 30.0714L42.3089 30.2071Z" fill="#1AA2FF"/>
<path d="M49.5309 22.5348L45.7496 22.3756L45.0645 31.1667L48.8457 31.3259L49.5309 22.5348Z" fill="#1AA2FF"/>
<path d="M57.3467 19.167L52.8982 19.0193L51.7637 31.1689L56.2122 31.3259L57.3467 19.167Z" fill="#1AA2FF"/>
<path d="M22.7315 8.39086C22.7315 3.75984 18.9882 0 14.357 0C9.7258 0 5.98242 3.75984 5.98242 8.39086C5.98242 13.0219 9.73496 16.7817 14.357 16.7817C18.979 16.7817 22.7315 13.0219 22.7315 8.39086Z" fill="#1AA2FF"/>
</svg>
