<svg width="77" height="78" viewBox="0 0 77 78" fill="none" xmlns="http://www.w3.org/2000/svg">
<g clip-path="url(#clip0_1649_320)">
<path d="M47.0417 37.7561C49.0316 38.6291 51.2397 39.1297 53.5634 39.1297C62.5242 39.1297 69.7776 31.8635 69.7776 22.9155C69.7776 15.1101 64.2573 8.60136 56.914 7.04798C58.8012 10.2574 59.9053 13.9804 59.9053 17.973C59.9053 26.7797 54.6161 34.3669 47.0417 37.7561Z" fill="#7AB245"/>
<path d="M26.9892 36.498L29.4412 33.6352C32.0344 35.0987 35.0257 35.9331 38.2223 35.9331C48.1331 35.9331 56.1953 27.871 56.1953 17.973C56.1953 8.07502 48.1203 1.52588e-05 38.2223 1.52588e-05C28.3243 1.52588e-05 20.2493 8.06218 20.2493 17.973C20.2493 21.1696 21.0966 24.1737 22.573 26.7797L21.7128 27.5243C24.229 32.0047 23.3047 38.3851 19.3763 42.2879C17.502 44.1493 15.1912 45.2791 12.6365 45.6129C14.0358 47.0379 15.525 48.3345 17.0784 49.5027C21.7385 52.9818 26.9635 55.3953 32.0986 57.077L32.1628 77.2068H58.4932L59.2378 66.1149H61.9338L62.9223 77.2068H76.9926L76.8385 64.0095C76.5432 51.1845 69.8419 44.3804 59.5459 43.8926C47.9149 43.3534 33.8959 43.5331 27.002 36.4851L26.9892 36.498ZM38.2223 4.09529C45.8736 4.09529 52.0871 10.3216 52.0871 17.9601C52.0871 25.5987 45.8736 31.825 38.2223 31.825C30.5709 31.825 24.3574 25.6115 24.3574 17.9601C24.3574 10.3088 30.5709 4.09529 38.2223 4.09529Z" fill="#7AB245"/>
<path d="M17.181 40.0926C20.5445 36.7419 20.827 31.427 18.5804 28.3588C17.5918 26.998 16.8986 26.6128 15.5891 25.6885C14.2797 24.7642 13.15 24.3662 12.1101 24.3662C9.82495 24.3662 7.9763 26.2919 5.52428 28.7183C3.21347 31.0162 1.06955 33.2243 0.864141 35.4068C0.787114 36.2669 1.03103 37.1014 1.63441 37.9872C2.26347 38.8987 4.04792 40.1311 4.42022 40.4007C6.43576 41.8257 8.75941 42.6345 11.0189 42.6345C13.2783 42.6345 15.4222 41.8514 17.181 40.1054V40.0926Z" fill="#7AB245"/>
<path d="M38.0811 17.0615C40.7386 17.0615 42.8825 14.9176 42.8825 12.2601C42.8825 9.60271 40.7257 7.45879 38.0811 7.45879C35.4365 7.45879 33.2798 9.61555 33.2798 12.2601C33.2798 14.9047 35.4237 17.0615 38.0811 17.0615Z" fill="#7AB245"/>
<path d="M46.3486 24.4946C46.3486 20.6304 42.6513 18.4095 38.081 18.4095C33.5108 18.4095 29.8135 20.6176 29.8135 24.4946V25.5216H46.3358V24.4946H46.3486Z" fill="#7AB245"/>
</g>
<defs>
<clipPath id="clip0_1649_320">
<rect width="76.1284" height="77.2068" fill="white" transform="translate(0.851318)"/>
</clipPath>
</defs>
</svg>
