<svg width="52" height="51" viewBox="0 0 52 51" fill="none" xmlns="http://www.w3.org/2000/svg">
<g clip-path="url(#clip0_1825_479)">
<path d="M0.223633 50.1091H12.4476V28.087H0.223633V50.1091ZM4.34097 33.5899H8.1383V37.3645H4.34097V33.5899ZM4.34097 41.2451H8.1383V45.0197H4.34097V41.2451Z" fill="#7AB245"/>
<path d="M39.9893 28.087V50.1091H51.8293V28.087H39.9893ZM47.7119 45.0197H43.9146V41.2451H47.7119V45.0197ZM47.7119 37.3645H43.9146V33.5899H47.7119V37.3645Z" fill="#7AB245"/>
<path d="M27.3381 12.8401C26.6768 12.1933 25.6208 12.1933 24.9594 12.8401L14.9541 22.6583V50.1091H22.3141V41.0649H29.7488V50.1091H37.3434V22.6583L27.3381 12.8401ZM24.2981 37.3645H20.5008V33.5899H24.2981V37.3645ZM22.5168 24.3866C22.5168 22.4887 24.0634 20.9407 25.9834 20.9407C27.9034 20.9407 29.4501 22.4781 29.4501 24.3866C29.4501 26.2951 27.9034 27.8325 25.9834 27.8325C24.0634 27.8325 22.5168 26.2951 22.5168 24.3866ZM31.2421 37.3645H27.4448V33.5899H31.2421V37.3645Z" fill="#7AB245"/>
<path d="M12.544 20.7604L16.2133 17.1448H3.94667L0 25.6801H12.4693L12.544 20.7604Z" fill="#7AB245"/>
<path d="M39.8291 25.6801H51.9998L47.7865 17.1448H36.2451L39.8291 20.7604V25.6801Z" fill="#7AB245"/>
<path d="M34.7732 1.73887H27.2959V1.30415C27.2959 0.583157 26.7092 0 25.9839 0C25.2585 0 24.6719 0.583157 24.6719 1.30415V10.0409C24.6719 10.0409 25.2585 9.56378 25.9839 9.56378C26.7092 9.56378 27.2959 10.0409 27.2959 10.0409V7.24175H34.7732C35.0505 7.24175 35.2745 7.01909 35.2745 6.74342V2.2372C35.2745 1.96153 35.0505 1.73887 34.7732 1.73887Z" fill="#7AB245"/>
</g>
<defs>
<clipPath id="clip0_1825_479">
<rect width="52" height="50.1091" fill="white"/>
</clipPath>
</defs>
</svg>
