<svg width="72" height="72" viewBox="0 0 72 72" fill="none" xmlns="http://www.w3.org/2000/svg">
<g clip-path="url(#clip0_1825_462)">
<path d="M52.6301 45.9842C52.7983 45.6954 52.9666 45.4158 53.1162 45.127L53.2283 44.9126C54.8923 41.8098 55.7056 38.7162 55.7056 35.4456C55.7056 24.6274 46.8809 15.8312 36.0276 15.8312C25.1743 15.8312 16.3496 24.6274 16.3496 35.4456C16.3496 38.6882 17.1442 41.7538 18.7988 44.8754C18.7988 44.8754 18.8456 44.9779 18.9484 45.1549C19.098 45.4345 19.2569 45.7047 19.4252 45.9842H19.4345C19.7898 46.5526 20.3039 47.3167 20.977 48.1646C21.3322 48.6119 21.7155 49.0871 22.1081 49.581C23.4262 51.2023 25.0622 53.2243 25.5015 54.3704C26.4457 56.8397 26.6794 58.7219 26.7168 59.048V59.7469C26.7261 66.8099 27.3805 67.5833 27.8573 68.1517C28.7921 69.2605 30.3159 69.6146 31.3815 69.7264C31.4189 70.1271 31.5498 70.7421 31.9331 71.1987C32.5501 71.9255 33.6625 72.0093 34.1112 72.0093H37.9066C38.3553 72.0093 39.4771 71.9348 40.0847 71.1987C40.468 70.7421 40.5989 70.1271 40.6363 69.7264C41.7113 69.6239 43.2257 69.2698 44.1606 68.1517C44.6373 67.5833 45.2917 66.8099 45.3011 59.7469V59.0667C45.3384 58.7312 45.5721 56.849 46.5163 54.3797C46.9557 53.2429 48.5916 51.2209 49.9097 49.5903C50.3117 49.0964 50.695 48.6212 51.0409 48.1739C51.6952 47.3353 52.2094 46.5806 52.5833 45.9842H52.5927H52.6301ZM49.031 42.6391L48.7318 43.1609C48.4514 43.6268 47.9746 44.3722 47.3016 45.2201C46.965 45.6488 46.5911 46.1053 46.2172 46.5806C44.5251 48.6678 42.7864 50.8202 42.0759 52.6652C41.5057 54.1654 41.1411 55.5072 40.9167 56.5415H31.1572C30.9328 55.5072 30.5683 54.1654 29.998 52.6652C29.2875 50.8202 27.5488 48.6678 25.8568 46.5806C25.4735 46.1053 25.0995 45.6488 24.763 45.2201C24.0899 44.3629 23.6132 43.6268 23.3608 43.2075L23.0523 42.667C21.7529 40.2443 21.1452 37.9521 21.1452 35.4549C21.1452 27.2737 27.8199 20.6114 36.037 20.6114C44.254 20.6114 50.9287 27.2644 50.9287 35.4549C50.9287 37.9428 50.3304 40.2257 49.0403 42.6391H49.031Z" fill="#585858"/>
<path d="M35.9996 11.7872C37.3177 11.7872 38.3927 10.7157 38.3927 9.40184V2.3854C38.3927 1.07157 37.3177 0 35.9996 0C34.6815 0 33.6064 1.07157 33.6064 2.3854V9.40184C33.6064 10.7157 34.6815 11.7872 35.9996 11.7872Z" fill="#585858"/>
<path d="M15.5269 18.8409C15.9943 19.3068 16.602 19.5398 17.2189 19.5398C17.8359 19.5398 18.4436 19.3068 18.911 18.8409C19.8458 17.9092 19.8458 16.3996 18.911 15.4678L13.9377 10.5107C13.0029 9.57888 11.4885 9.57888 10.5537 10.5107C9.61883 11.4425 9.61883 12.952 10.5537 13.8838L15.5269 18.8409Z" fill="#585858"/>
<path d="M11.8255 35.8742C11.8255 34.5604 10.7505 33.4888 9.43236 33.4888H2.39314C1.07505 33.4888 0 34.5604 0 35.8742C0 37.1881 1.07505 38.2596 2.39314 38.2596H9.43236C10.7505 38.2596 11.8255 37.1881 11.8255 35.8742Z" fill="#585858"/>
<path d="M15.5181 52.9168L10.5449 57.874C9.61004 58.8058 9.61004 60.3153 10.5449 61.2471C11.0123 61.713 11.6199 61.9459 12.2369 61.9459C12.8539 61.9459 13.4615 61.713 13.9289 61.2471L18.9022 56.2899C19.837 55.3581 19.837 53.8486 18.9022 52.9168C17.9674 51.985 16.4529 51.985 15.5181 52.9168Z" fill="#585858"/>
<path d="M56.4729 52.9261C55.538 51.9943 54.0236 51.9943 53.0888 52.9261C52.154 53.8579 52.154 55.3674 53.0888 56.2992L58.0621 61.2564C58.5295 61.7223 59.1465 61.9552 59.7541 61.9552C60.3617 61.9552 60.9787 61.7223 61.4461 61.2564C62.3809 60.3246 62.3809 58.815 61.4461 57.8832L56.4729 52.9261Z" fill="#585858"/>
<path d="M69.6072 33.4981H62.5679C61.2498 33.4981 60.1748 34.5697 60.1748 35.8835C60.1748 37.1973 61.2498 38.2689 62.5679 38.2689H69.6072C70.9253 38.2689 72.0003 37.1973 72.0003 35.8835C72.0003 34.5697 70.9253 33.4981 69.6072 33.4981Z" fill="#585858"/>
<path d="M54.7896 19.5491C55.4066 19.5491 56.0142 19.3162 56.4817 18.8503L61.4549 13.8931C62.3897 12.9613 62.3897 11.4518 61.4549 10.52C60.5201 9.58822 59.0057 9.58822 58.0709 10.52L53.0976 15.4772C52.1628 16.409 52.1628 17.9185 53.0976 18.8503C53.565 19.3162 54.182 19.5491 54.7896 19.5491Z" fill="#585858"/>
</g>
<defs>
<clipPath id="clip0_1825_462">
<rect width="72" height="72" fill="white"/>
</clipPath>
</defs>
</svg>
