<svg width="272" height="40" viewBox="0 0 272 40" fill="none" xmlns="http://www.w3.org/2000/svg">
<path d="M20.6999 0L25.5719 14.9943H41.3379L28.5829 24.2613L33.4549 39.2557L20.6999 29.9887L7.945 39.2557L12.817 24.2613L0.0620117 14.9943H15.828L20.6999 0Z" fill="#585858"/>
<path d="M64.1 0L68.9719 14.9943H84.7379L71.983 24.2613L76.8549 39.2557L64.1 29.9887L51.345 39.2557L56.217 24.2613L43.462 14.9943H59.228L64.1 0Z" fill="#585858"/>
<path d="M107.5 0L112.372 14.9943H128.138L115.383 24.2613L120.255 39.2557L107.5 29.9887L94.745 39.2557L99.617 24.2613L86.8621 14.9943H102.628L107.5 0Z" fill="#585858"/>
<path d="M150.9 0L155.772 14.9943H171.538L158.783 24.2613L163.655 39.2557L150.9 29.9887L138.145 39.2557L143.017 24.2613L130.262 14.9943H146.028L150.9 0Z" fill="#585858"/>
<path d="M194.3 0L199.172 14.9943H214.938L202.183 24.2613L207.055 39.2557L194.3 29.9887L181.545 39.2557L186.417 24.2613L173.662 14.9943H189.428L194.3 0Z" fill="#D9D9D9"/>
<path d="M193.986 0L198.858 14.9943L201.869 24.2613L206.741 39.2557L193.986 29.9887L181.231 39.2557L186.103 24.2613L173.348 14.9943L189.114 14.9943L193.986 0Z" fill="#585858"/>
<path d="M264.183 33.2976C262.723 33.2976 261.434 33.0389 260.314 32.5217C259.202 31.9973 258.334 31.2781 257.71 30.364C257.086 29.4428 256.778 28.3941 256.785 27.2178C256.778 26.2967 256.959 25.4463 257.327 24.6669C257.696 23.8803 258.199 23.2249 258.837 22.7005C259.481 22.1691 260.201 21.8325 260.994 21.6908V21.5632C259.953 21.294 259.124 20.7094 258.507 19.8095C257.891 18.9025 257.586 17.8715 257.593 16.7165C257.586 15.6111 257.866 14.6226 258.433 13.751C259 12.8794 259.779 12.1921 260.771 11.689C261.77 11.1859 262.907 10.9343 264.183 10.9343C265.444 10.9343 266.571 11.1859 267.563 11.689C268.555 12.1921 269.334 12.8794 269.901 13.751C270.475 14.6226 270.766 15.6111 270.773 16.7165C270.766 17.8715 270.45 18.9025 269.827 19.8095C269.21 20.7094 268.392 21.294 267.372 21.5632V21.6908C268.158 21.8325 268.867 22.1691 269.497 22.7005C270.128 23.2249 270.631 23.8803 271.007 24.6669C271.382 25.4463 271.574 26.2967 271.581 27.2178C271.574 28.3941 271.255 29.4428 270.624 30.364C270.001 31.2781 269.132 31.9973 268.02 32.5217C266.915 33.0389 265.636 33.2976 264.183 33.2976ZM264.183 30.9592C265.168 30.9592 266.018 30.7998 266.734 30.4809C267.45 30.162 268.002 29.7121 268.392 29.131C268.782 28.55 268.98 27.8697 268.987 27.0903C268.98 26.2683 268.768 25.542 268.35 24.9114C267.931 24.2807 267.361 23.7847 266.638 23.4233C265.923 23.0619 265.104 22.8812 264.183 22.8812C263.255 22.8812 262.426 23.0619 261.696 23.4233C260.973 23.7847 260.403 24.2807 259.985 24.9114C259.574 25.542 259.372 26.2683 259.379 27.0903C259.372 27.8697 259.559 28.55 259.942 29.131C260.332 29.7121 260.888 30.162 261.611 30.4809C262.334 30.7998 263.191 30.9592 264.183 30.9592ZM264.183 20.6279C264.962 20.6279 265.653 20.472 266.256 20.1602C266.865 19.8484 267.343 19.4127 267.691 18.8529C268.038 18.2931 268.215 17.6376 268.222 16.8865C268.215 16.1496 268.041 15.5083 267.701 14.9627C267.361 14.41 266.89 13.9848 266.287 13.6872C265.685 13.3825 264.984 13.2302 264.183 13.2302C263.368 13.2302 262.656 13.3825 262.047 13.6872C261.437 13.9848 260.966 14.41 260.633 14.9627C260.3 15.5083 260.137 16.1496 260.144 16.8865C260.137 17.6376 260.303 18.2931 260.644 18.8529C260.991 19.4127 261.469 19.8484 262.078 20.1602C262.688 20.472 263.389 20.6279 264.183 20.6279Z" fill="#585858"/>
<path d="M251.511 33.17C250.986 33.17 250.536 32.9823 250.161 32.6067C249.785 32.2311 249.597 31.7812 249.597 31.2568C249.597 30.7325 249.785 30.2825 250.161 29.907C250.536 29.5314 250.986 29.3436 251.511 29.3436C252.035 29.3436 252.485 29.5314 252.86 29.907C253.236 30.2825 253.424 30.7325 253.424 31.2568C253.424 31.604 253.335 31.9229 253.158 32.2134C252.988 32.504 252.758 32.7378 252.467 32.9149C252.184 33.085 251.865 33.17 251.511 33.17Z" fill="#585858"/>
<path d="M230.949 28.5358V26.3675L240.515 11.2319H242.088V14.5907H241.025L233.798 26.0274V26.1975H246.68V28.5358H230.949ZM241.195 33V27.8768V26.8671V11.2319H243.704V33H241.195Z" fill="#585858"/>
</svg>
