<svg width="74" height="74" viewBox="0 0 74 74" fill="none" xmlns="http://www.w3.org/2000/svg">
<g clip-path="url(#clip0_1725_6176)">
<path d="M61.68 27.9299C62.81 30.9699 63.44 34.2499 63.44 37.6699C63.44 53.0799 50.9 65.6199 35.49 65.6199C20.08 65.6199 7.53 53.0899 7.53 37.6699C7.53 22.2499 20.07 9.71994 35.48 9.71994C38.84 9.71994 42.06 10.3199 45.04 11.4099L50.78 5.66994C46.14 3.43994 40.95 2.18994 35.47 2.18994C15.92 2.18994 0 18.1099 0 37.6699C0 57.2299 15.92 73.1499 35.48 73.1499C55.04 73.1499 70.96 57.2299 70.96 37.6699C70.96 32.1299 69.68 26.8799 67.4 22.1999L61.67 27.9299H61.68Z" fill="white"/>
<path d="M35.48 25.6099C36.11 25.6099 36.72 25.6699 37.32 25.7599L42.69 20.3899C40.47 19.4599 38.04 18.9399 35.49 18.9399C25.17 18.9399 16.77 27.3399 16.77 37.6599C16.77 47.9799 25.17 56.3799 35.49 56.3799C45.81 56.3799 54.21 47.9799 54.21 37.6599C54.21 35.0799 53.69 32.6299 52.74 30.3899L47.39 35.7399C47.49 36.3599 47.56 36.9999 47.56 37.6499C47.56 44.2999 42.15 49.7199 35.49 49.7199C28.83 49.7199 23.42 44.3099 23.42 37.6499C23.42 30.9899 28.83 25.5799 35.49 25.5799L35.48 25.6099Z" fill="white"/>
<path d="M33.7501 35.94C32.8001 36.89 32.8001 38.45 33.7501 39.4C34.2101 39.86 34.8301 40.12 35.4801 40.12C36.1301 40.12 36.7501 39.86 37.2101 39.4L49.1301 27.48L59.6701 22.18L73.1601 8.74L66.2001 6.96L64.4201 0L51.0901 13.33L45.8801 23.82L33.7601 35.94H33.7501Z" fill="white"/>
</g>
<defs>
<clipPath id="clip0_1725_6176">
<rect width="73.16" height="73.16" fill="white"/>
</clipPath>
</defs>
</svg>
