<svg width="94" height="47" viewBox="0 0 94 47" fill="none" xmlns="http://www.w3.org/2000/svg">
<path d="M17.4591 24.2626C22.8806 24.2626 27.2688 19.8744 27.2688 14.4529C27.2688 9.03139 22.8806 4.64319 17.4591 4.64319C12.0376 4.64319 7.64941 9.04481 7.64941 14.4529C7.64941 19.861 12.0376 24.2626 17.4591 24.2626Z" fill="#585858"/>
<path d="M23.7124 38.9168C23.8734 33.8308 25.1349 30.1806 27.027 27.4967C25.8193 27.1478 24.437 26.9063 22.8267 26.8257L17.432 32.7304L12.0374 26.8257C1.82506 27.3223 0.161035 33.8844 0 39.3194V46.1231H23.7258V38.9034L23.7124 38.9168Z" fill="#585858"/>
<path d="M76.5851 24.2626C82.0066 24.2626 86.3948 19.8744 86.3948 14.4529C86.3948 9.03139 82.0066 4.64319 76.5851 4.64319C71.1636 4.64319 66.7754 9.04481 66.7754 14.4529C66.7754 19.861 71.1636 24.2626 76.5851 24.2626Z" fill="#585858"/>
<path d="M76.5592 32.7437L71.1645 26.8391C69.9433 26.8928 68.8429 27.0538 67.8633 27.2685C69.9433 30.1672 71.1108 34.193 71.3255 38.9838V46.1365H94.0046V39.3327C93.763 33.6831 92.0185 27.3088 81.9672 26.8391L76.5726 32.7437H76.5592Z" fill="#585858"/>
<path d="M67.1109 38.9705C66.8291 32.623 64.8833 25.457 53.584 24.9336L47.5184 31.5763L41.4527 24.9336C29.979 25.4972 28.1137 32.8646 27.9258 38.9705V46.1231H67.1244V38.9705H67.1109Z" fill="#585858"/>
<path d="M47.5455 22.0484C53.638 22.0484 58.563 17.11 58.563 11.0309C58.563 4.95182 53.6246 0 47.5455 0C41.4665 0 36.5146 4.9384 36.5146 11.0309C36.5146 17.1234 41.453 22.0484 47.5455 22.0484Z" fill="#585858"/>
</svg>
