<svg width="46" height="54" viewBox="0 0 46 54" fill="none" xmlns="http://www.w3.org/2000/svg">
<g clip-path="url(#clip0_1814_213)">
<path d="M26.2428 7.722V5.58H27.0956C28.6236 5.58 28.9257 3.402 28.9257 1.854C28.9257 0.306 28.6059 0 27.0956 0H19.0292C17.5012 0 17.1991 0.324 17.1991 1.854C17.1991 3.384 17.519 5.58 19.0292 5.58H19.6333V7.758C8.56414 9.432 0.0712891 19.062 0.0712891 30.726C0.0712891 43.578 10.3587 54 23.0446 54C35.7306 54 46.018 43.578 46.018 30.726C46.018 18.972 37.4185 9.288 26.2428 7.704V7.722ZM23.0446 49.356C12.8994 49.356 4.6553 41.004 4.6553 30.726C4.6553 20.448 12.8994 12.114 23.0446 12.114C33.1899 12.114 41.434 20.466 41.434 30.744C41.434 41.022 33.1899 49.374 23.0446 49.374V49.356Z" fill="#FF7E36"/>
<path d="M34.4156 19.224L23.0444 30.744V14.454C14.1607 14.454 6.96484 21.744 6.96484 30.744C6.96484 39.744 14.1607 47.034 23.0444 47.034C31.9282 47.034 39.124 39.744 39.124 30.744C39.124 26.244 37.3295 22.176 34.4156 19.224Z" fill="#FF7E36"/>
<path d="M2.84261 16.164C4.13963 14.346 5.66764 12.708 7.39108 11.286L5.27675 9.14399C4.49498 8.35199 3.21572 8.35199 2.43396 9.14399L0.603905 10.998C-0.177864 11.79 -0.177864 13.086 0.603905 13.878L2.86037 16.164H2.84261Z" fill="#FF7E36"/>
<path d="M43.0866 16.182L45.343 13.896C46.1248 13.104 46.1248 11.808 45.343 11.016L43.513 9.16199C42.7312 8.36999 41.452 8.36999 40.6702 9.16199L38.5381 11.322C40.2615 12.726 41.7895 14.364 43.0866 16.2V16.182Z" fill="#FF7E36"/>
</g>
<defs>
<clipPath id="clip0_1814_213">
<rect width="46" height="54" fill="white"/>
</clipPath>
</defs>
</svg>
