<svg width="56" height="56" viewBox="0 0 56 56" fill="none" xmlns="http://www.w3.org/2000/svg">
<g clip-path="url(#clip0_1818_242)">
<path d="M26.4079 44.8543C25.5347 43.6609 24.4237 42.713 23.1785 42.1618C23.4243 42.0219 23.6539 41.8594 23.8674 41.6756C24.7762 40.8903 25.3535 39.7278 25.3535 38.4287C25.3535 36.0613 23.4453 34.1427 21.0908 34.1427C18.7362 34.1427 16.828 36.0613 16.828 38.4287C16.828 39.7993 17.47 41.0171 18.4678 41.8024C18.6893 41.9764 18.927 42.1293 19.1809 42.2561C16.3752 43.617 14.2761 46.9956 14.2276 50.5808C14.2244 50.8377 14.3311 51.0881 14.5187 51.2621C17.3762 53.9172 21.4045 54.5838 24.849 53.2619C24.4884 52.8733 24.2798 52.3644 24.2862 51.8311C24.3218 49.3045 25.1174 46.8704 26.4079 44.8576V44.8543Z" fill="#1AA2FF"/>
<path d="M48.6099 42.1618C48.8557 42.0219 49.0853 41.8594 49.2988 41.6756C50.2076 40.8903 50.7849 39.7278 50.7849 38.4287C50.7849 36.0613 48.8767 34.1427 46.5222 34.1427C44.1676 34.1427 42.2594 36.0613 42.2594 38.4287C42.2594 39.7993 42.9014 41.0171 43.8992 41.8024C44.1207 41.9764 44.3584 42.1293 44.6123 42.2561C43.4528 42.8187 42.4179 43.7308 41.5947 44.8559C42.8852 46.8688 43.6808 49.3028 43.7164 51.8295C43.7229 52.3644 43.5143 52.8733 43.1537 53.2619C46.5982 54.5838 50.6265 53.9188 53.484 51.2621C53.6715 51.0881 53.7799 50.8377 53.775 50.5808C53.7249 46.9078 51.5191 43.4544 48.6099 42.1634V42.1618Z" fill="#1AA2FF"/>
<path d="M36.5314 41.4301C36.8467 41.2659 37.1443 41.0724 37.4192 40.8513C38.6321 39.8725 39.4099 38.3734 39.4099 36.6889C39.4099 33.7411 37.0343 31.3526 34.1024 31.3526C31.1706 31.3526 28.795 33.7411 28.795 36.6889C28.795 38.3344 29.5373 39.8058 30.7032 40.7846C30.9733 41.0122 31.266 41.2122 31.5765 41.383C27.9864 43.0138 25.2761 47.2948 25.213 51.8409C25.2082 52.1612 25.3424 52.4717 25.5769 52.6896C30.3297 57.104 37.6763 57.104 42.4275 52.6896C42.6604 52.4717 42.7946 52.1612 42.7913 51.8409C42.7299 47.3387 40.0713 43.0951 36.533 41.4301H36.5314Z" fill="#1AA2FF"/>
<path d="M55.4358 0H7.08001C6.7679 0 6.51562 0.253644 6.51562 0.567447V4.22577C6.51562 4.53957 6.7679 4.79322 7.08001 4.79322H8.53867C8.85078 4.79322 9.10305 4.53957 9.10305 4.22577V3.16892C9.10305 2.85512 9.35533 2.60148 9.66743 2.60148H52.8484C53.1605 2.60148 53.4127 2.85512 53.4127 3.16892V27.0732C53.4127 27.387 53.1605 27.6407 52.8484 27.6407H14.7905C14.4784 27.6407 14.2262 27.8943 14.2262 28.2081V29.6747C14.2262 29.9885 14.4784 30.2421 14.7905 30.2421H55.4358C55.7479 30.2421 56.0002 29.9885 56.0002 29.6747V0.567447C56.0002 0.253644 55.7479 0 55.4358 0Z" fill="#1AA2FF"/>
<path d="M9.26334 17.4735C12.0188 16.8196 13.7254 14.0436 13.075 11.2732C12.4247 8.50272 9.66369 6.78691 6.9082 7.44079C4.15271 8.09468 2.44616 10.8706 3.09652 13.6411C3.74687 16.4116 6.50785 18.1274 9.26334 17.4735Z" fill="#1AA2FF"/>
<path d="M23.1639 18.8119H2.40146C1.0754 18.8119 0 19.8932 0 21.2264V34.3378C0 35.9215 1.27592 37.2043 2.85102 37.2043H4.44552V39.9473V48.9142C4.44552 50.2475 5.52092 51.3287 6.84698 51.3287H9.32121C10.6473 51.3287 11.7227 50.2475 11.7227 48.9142V23.2702H23.1623C24.3865 23.2702 25.3794 22.2719 25.3794 21.0411C25.3794 19.8102 24.3865 18.8119 23.1623 18.8119H23.1639Z" fill="#1AA2FF"/>
</g>
<defs>
<clipPath id="clip0_1818_242">
<rect width="56" height="56" fill="white"/>
</clipPath>
</defs>
</svg>
