<svg width="55" height="67" viewBox="0 0 55 67" fill="none" xmlns="http://www.w3.org/2000/svg">
<g clip-path="url(#clip0_1827_812)">
<path d="M27.5 0C27.5 0 18.8158 10.1957 0 11.6522V34.4656C0 40.1193 1.59271 45.6735 4.70033 50.3841C8.7409 56.5088 15.8143 63.8642 27.5 67.0006C39.1863 63.8648 46.2591 56.5088 50.2997 50.3841C53.4073 45.6735 55 40.1199 55 34.4656V11.6522C36.1842 10.1957 27.5 0 27.5 0ZM50.6579 34.465C50.6579 39.3546 49.2829 44.024 46.6819 47.9669C43.3813 52.9707 37.4042 59.457 27.5 62.4581C17.5952 59.4552 11.6194 52.9707 8.31815 47.9669C5.7165 44.024 4.34211 39.3546 4.34211 34.465V15.5605C15.9144 13.8606 23.5264 9.10812 27.5 5.9153C31.4748 9.10812 39.0862 13.8606 50.6579 15.5605V34.465Z" fill="#585858"/>
<path d="M27.5004 11.3669C23.3096 14.2381 17.0926 17.4595 8.68457 19.2273V34.4656C8.68457 38.4928 9.80869 42.3265 11.9363 45.5509C15.8641 51.5063 21.0927 55.6416 27.5004 57.8688C33.9074 55.6416 39.136 51.5063 43.065 45.5521C45.192 42.3259 46.3162 38.4928 46.3162 34.4656V19.2273C37.9087 17.4601 31.6911 14.2381 27.5004 11.3669ZM40.8463 27.4876L26.3726 47.8789C25.9698 48.4451 25.3233 48.785 24.631 48.7935H24.6056C23.9229 48.7935 23.2789 48.4706 22.8688 47.9202L14.1846 36.268C13.4651 35.3024 13.6599 33.9327 14.6194 33.2087C15.5783 32.4877 16.9394 32.6819 17.6589 33.6463L24.5634 42.911L37.3129 24.9478C38.0113 23.9665 39.3652 23.7395 40.3421 24.4398C41.3173 25.1408 41.5435 26.5057 40.8469 27.4882L40.8463 27.4876Z" fill="#585858"/>
</g>
<defs>
<clipPath id="clip0_1827_812">
<rect width="55" height="67" fill="white"/>
</clipPath>
</defs>
</svg>
