<?xml version="1.0" encoding="UTF-8"?><svg id="Layer_1" xmlns="http://www.w3.org/2000/svg" viewBox="0 0 317.37 121.6"><defs><style>.cls-1{fill:#1176bc;}.cls-1,.cls-2,.cls-3,.cls-4,.cls-5,.cls-6,.cls-7,.cls-8{stroke-width:0px;}.cls-2{fill:#58585a;}.cls-3{fill:#f69321;}.cls-4{fill:#000;}.cls-5{fill:#653090;}.cls-6{fill:#ea088c;}.cls-7{fill:#d6df27;}.cls-8{fill:#da1e5e;}</style></defs><path class="cls-2" d="M12.58,81.8c-.07-.25.07-.44.33-.44h.76c.15,0,.29.13.33.25l2.53,9.43h.07l3.04-9.66c.04-.11.15-.2.31-.2h.33c.15,0,.27.09.31.2l3.09,9.66h.07l2.47-9.43c.04-.13.18-.25.33-.25h.76c.25,0,.4.18.33.44l-3.44,12.23c-.04.15-.18.25-.33.25h-.29c-.13,0-.25-.09-.31-.2l-3.15-9.84h-.09l-3.09,9.84c-.05.11-.18.2-.31.2h-.29c-.15,0-.29-.11-.33-.25l-3.44-12.23Z"/><path class="cls-2" d="M36.33,81.18c3.64,0,6.55,2.93,6.55,6.57s-2.91,6.53-6.55,6.53-6.53-2.89-6.53-6.53,2.89-6.57,6.53-6.57ZM36.33,93.01c2.89,0,5.28-2.37,5.28-5.26s-2.38-5.3-5.28-5.3-5.26,2.4-5.26,5.3,2.37,5.26,5.26,5.26Z"/><path class="cls-2" d="M47.72,81.44c.04-.15.18-.25.33-.25h.29c.13,0,.27.09.31.2l3.6,10.03h.09l3.55-10.03c.04-.11.18-.2.31-.2h.29c.15,0,.29.11.33.25l2.35,12.23c.05.25-.05.44-.33.44h-.73c-.15,0-.29-.13-.33-.25l-1.62-9.37h-.07l-3.35,9.61c-.04.11-.2.2-.31.2h-.33c-.11,0-.27-.09-.31-.2l-3.38-9.61h-.07l-1.58,9.37c-.02.13-.18.25-.33.25h-.73c-.27,0-.38-.18-.33-.44l2.35-12.23Z"/><path class="cls-2" d="M62.59,81.71c0-.18.15-.35.35-.35h7.17c.2,0,.35.16.35.35v.53c0,.18-.15.35-.35.35h-6.11v4.44h5.22c.18,0,.35.16.35.35v.53c0,.2-.16.35-.35.35h-5.22v4.64h6.11c.2,0,.35.16.35.35v.53c0,.18-.15.35-.35.35h-7.17c-.2,0-.35-.16-.35-.35v-12.05Z"/><path class="cls-2" d="M73.98,81.51c0-.18.16-.33.35-.33h.45l8.21,10.23h.04v-9.7c0-.18.15-.35.35-.35h.64c.18,0,.35.16.35.35v12.25c0,.18-.16.33-.35.33h-.33l-8.35-10.43h-.02v9.9c0,.18-.15.35-.35.35h-.64c-.18,0-.35-.16-.35-.35v-12.25Z"/><path class="cls-2" d="M87.55,85.95c-.09-.09-.07-.27.11-.44s1.13-.96,1.13-2.29c-.07.02-.15.02-.22.02-.56,0-1.04-.47-1.04-1.04s.47-1.04,1.04-1.04,1.2.33,1.2,1.64c0,1.51-.95,2.82-1.53,3.37-.18.16-.33.15-.44.04l-.25-.25Z"/><path class="cls-2" d="M92.04,92.19c.09-.11.18-.24.27-.35.18-.24.38-.38.64-.16.13.11,1.46,1.38,3.08,1.38,1.47,0,2.44-.93,2.44-2,0-1.26-1.09-2-3.18-2.88-2-.87-3.2-1.69-3.2-3.77,0-1.24.98-3.24,3.88-3.24,1.78,0,3.11.93,3.11.93.11.05.33.27.11.62-.07.11-.15.24-.22.35-.16.25-.35.33-.64.16-.13-.07-1.27-.84-2.38-.84-1.93,0-2.51,1.24-2.51,2,0,1.22.93,1.93,2.46,2.57,2.46,1,4.04,1.93,4.04,4.04,0,1.89-1.8,3.28-3.93,3.28s-3.6-1.26-3.84-1.47c-.15-.13-.33-.27-.11-.62Z"/><path class="cls-2" d="M107.84,81.71c0-.18.15-.35.35-.35h3.99c2.22,0,3.73,1.44,3.73,3.35,0,1.4-.93,2.42-1.78,2.91.96.4,2.18,1.29,2.18,2.97,0,2.04-1.62,3.51-3.97,3.51h-4.15c-.2,0-.35-.16-.35-.35v-12.05ZM112.48,92.88c1.33,0,2.29-1,2.29-2.31s-1.18-2.24-2.6-2.24h-3v4.55h3.31ZM112.17,87.08c1.4,0,2.18-1,2.18-2.27s-.78-2.18-2.18-2.18h-2.97v4.46h2.97Z"/><path class="cls-2" d="M119.67,81.71c0-.18.16-.35.35-.35h.69c.2,0,.35.16.35.35v7.59c0,2.07,1.29,3.69,3.42,3.69s3.46-1.58,3.46-3.66v-7.62c0-.18.15-.35.35-.35h.69c.18,0,.35.16.35.35v7.7c0,2.77-1.97,4.88-4.84,4.88s-4.8-2.11-4.8-4.88v-7.7Z"/><path class="cls-2" d="M132.66,92.19c.09-.11.18-.24.27-.35.18-.24.38-.38.64-.16.13.11,1.46,1.38,3.08,1.38,1.47,0,2.44-.93,2.44-2,0-1.26-1.09-2-3.18-2.88-2-.87-3.2-1.69-3.2-3.77,0-1.24.98-3.24,3.88-3.24,1.78,0,3.11.93,3.11.93.11.05.33.27.11.62-.07.11-.15.24-.22.35-.16.25-.35.33-.64.16-.13-.07-1.27-.84-2.38-.84-1.93,0-2.51,1.24-2.51,2,0,1.22.93,1.93,2.46,2.57,2.46,1,4.04,1.93,4.04,4.04,0,1.89-1.8,3.28-3.93,3.28s-3.6-1.26-3.84-1.47c-.15-.13-.33-.27-.11-.62Z"/><path class="cls-2" d="M143.79,81.71c0-.18.16-.35.35-.35h.73c.18,0,.35.16.35.35v12.05c0,.18-.16.35-.35.35h-.73c-.18,0-.35-.16-.35-.35v-12.05Z"/><path class="cls-2" d="M149.54,81.51c0-.18.16-.33.35-.33h.45l8.21,10.23h.04v-9.7c0-.18.15-.35.35-.35h.64c.18,0,.35.16.35.35v12.25c0,.18-.16.33-.35.33h-.33l-8.35-10.43h-.02v9.9c0,.18-.15.35-.35.35h-.64c-.18,0-.35-.16-.35-.35v-12.25Z"/><path class="cls-2" d="M164.24,81.71c0-.18.15-.35.35-.35h7.17c.2,0,.35.16.35.35v.53c0,.18-.15.35-.35.35h-6.11v4.44h5.22c.18,0,.35.16.35.35v.53c0,.2-.16.35-.35.35h-5.22v4.64h6.11c.2,0,.35.16.35.35v.53c0,.18-.15.35-.35.35h-7.17c-.2,0-.35-.16-.35-.35v-12.05Z"/><path class="cls-2" d="M174.82,92.19c.09-.11.18-.24.27-.35.18-.24.38-.38.64-.16.13.11,1.46,1.38,3.08,1.38,1.47,0,2.44-.93,2.44-2,0-1.26-1.09-2-3.18-2.88-2-.87-3.2-1.69-3.2-3.77,0-1.24.98-3.24,3.88-3.24,1.78,0,3.11.93,3.11.93.11.05.33.27.11.62-.07.11-.15.24-.22.35-.16.25-.35.33-.64.16-.13-.07-1.27-.84-2.38-.84-1.93,0-2.51,1.24-2.51,2,0,1.22.93,1.93,2.46,2.57,2.46,1,4.04,1.93,4.04,4.04,0,1.89-1.8,3.28-3.93,3.28s-3.6-1.26-3.84-1.47c-.15-.13-.33-.27-.11-.62Z"/><path class="cls-2" d="M185.13,92.19c.09-.11.18-.24.27-.35.18-.24.38-.38.64-.16.13.11,1.46,1.38,3.08,1.38,1.47,0,2.44-.93,2.44-2,0-1.26-1.09-2-3.18-2.88-2-.87-3.2-1.69-3.2-3.77,0-1.24.98-3.24,3.88-3.24,1.78,0,3.11.93,3.11.93.11.05.33.27.11.62-.07.11-.15.24-.22.35-.16.25-.35.33-.64.16-.13-.07-1.27-.84-2.38-.84-1.93,0-2.51,1.24-2.51,2,0,1.22.93,1.93,2.46,2.57,2.46,1,4.04,1.93,4.04,4.04,0,1.89-1.8,3.28-3.93,3.28s-3.6-1.26-3.84-1.47c-.15-.13-.33-.27-.11-.62Z"/><path class="cls-2" d="M200.93,81.71c0-.18.15-.35.35-.35h7.17c.2,0,.35.16.35.35v.53c0,.18-.15.35-.35.35h-6.11v4.44h5.22c.18,0,.35.16.35.35v.53c0,.2-.16.35-.35.35h-5.22v4.64h6.11c.2,0,.35.16.35.35v.53c0,.18-.15.35-.35.35h-7.17c-.2,0-.35-.16-.35-.35v-12.05Z"/><path class="cls-2" d="M212.32,81.51c0-.18.16-.33.35-.33h.45l8.21,10.23h.04v-9.7c0-.18.15-.35.35-.35h.64c.18,0,.35.16.35.35v12.25c0,.18-.16.33-.35.33h-.33l-8.35-10.43h-.02v9.9c0,.18-.15.35-.35.35h-.64c-.18,0-.35-.16-.35-.35v-12.25Z"/><path class="cls-2" d="M228.82,82.58h-3.17c-.2,0-.35-.16-.35-.35v-.53c0-.18.15-.35.35-.35h7.72c.2,0,.35.16.35.35v.53c0,.18-.15.35-.35.35h-3.17v11.17c0,.18-.16.35-.35.35h-.69c-.18,0-.35-.16-.35-.35v-11.17Z"/><path class="cls-2" d="M236.34,81.71c0-.18.15-.35.35-.35h7.17c.2,0,.35.16.35.35v.53c0,.18-.15.35-.35.35h-6.11v4.44h5.22c.18,0,.35.16.35.35v.53c0,.2-.16.35-.35.35h-5.22v4.64h6.11c.2,0,.35.16.35.35v.53c0,.18-.15.35-.35.35h-7.17c-.2,0-.35-.16-.35-.35v-12.05Z"/><path class="cls-2" d="M247.73,81.71c0-.18.15-.35.35-.35h4.71c2.18,0,3.97,1.71,3.97,3.88,0,1.67-1.11,3.08-2.69,3.71l2.49,4.62c.13.24,0,.53-.31.53h-.93c-.16,0-.25-.09-.29-.16l-2.42-4.82h-3.48v4.64c0,.18-.16.35-.35.35h-.71c-.2,0-.35-.16-.35-.35v-12.05ZM252.69,87.91c1.4,0,2.62-1.16,2.62-2.66,0-1.38-1.22-2.57-2.62-2.57h-3.53v5.22h3.53Z"/><path class="cls-2" d="M260.37,81.71c0-.18.15-.35.35-.35h4.02c2.24,0,4.08,1.82,4.08,4.02s-1.84,4.09-4.06,4.09h-3v4.28c0,.18-.16.35-.35.35h-.69c-.2,0-.35-.16-.35-.35v-12.05ZM264.65,88.13c1.49,0,2.77-1.22,2.77-2.78,0-1.47-1.27-2.6-2.77-2.6h-2.89v5.39h2.89Z"/><path class="cls-2" d="M271.84,81.71c0-.18.15-.35.35-.35h4.71c2.18,0,3.97,1.71,3.97,3.88,0,1.67-1.11,3.08-2.69,3.71l2.49,4.62c.13.24,0,.53-.31.53h-.93c-.16,0-.25-.09-.29-.16l-2.42-4.82h-3.48v4.64c0,.18-.16.35-.35.35h-.71c-.2,0-.35-.16-.35-.35v-12.05ZM276.8,87.91c1.4,0,2.62-1.16,2.62-2.66,0-1.38-1.22-2.57-2.62-2.57h-3.53v5.22h3.53Z"/><path class="cls-2" d="M284.48,81.71c0-.18.16-.35.35-.35h.73c.18,0,.35.16.35.35v12.05c0,.18-.16.35-.35.35h-.73c-.18,0-.35-.16-.35-.35v-12.05Z"/><path class="cls-2" d="M289.41,92.19c.09-.11.18-.24.27-.35.18-.24.38-.38.64-.16.13.11,1.46,1.38,3.08,1.38,1.47,0,2.44-.93,2.44-2,0-1.26-1.09-2-3.18-2.88-2-.87-3.2-1.69-3.2-3.77,0-1.24.98-3.24,3.88-3.24,1.78,0,3.11.93,3.11.93.11.05.33.27.11.62-.07.11-.15.24-.22.35-.16.25-.35.33-.64.16-.13-.07-1.27-.84-2.38-.84-1.93,0-2.51,1.24-2.51,2,0,1.22.93,1.93,2.46,2.57,2.46,1,4.04,1.93,4.04,4.04,0,1.89-1.8,3.28-3.93,3.28s-3.6-1.26-3.84-1.47c-.15-.13-.33-.27-.11-.62Z"/><path class="cls-2" d="M300.55,81.71c0-.18.15-.35.35-.35h7.17c.2,0,.35.16.35.35v.53c0,.18-.15.35-.35.35h-6.11v4.44h5.22c.18,0,.35.16.35.35v.53c0,.2-.16.35-.35.35h-5.22v4.64h6.11c.2,0,.35.16.35.35v.53c0,.18-.15.35-.35.35h-7.17c-.2,0-.35-.16-.35-.35v-12.05Z"/><path class="cls-4" d="M5.66,7.65c-.34-1.19.34-2.05,1.53-2.05h5.71c.68,0,1.36.6,1.53,1.19l10.31,39.14h.34L38.98,5.69c.17-.51.77-.94,1.45-.94h1.53c.68,0,1.28.43,1.45.94l14.06,40.25h.34l10.14-39.14c.17-.6.85-1.19,1.53-1.19h5.71c1.19,0,1.87.85,1.53,2.05l-16.11,57.31c-.17.68-.85,1.19-1.53,1.19h-1.36c-.6,0-1.28-.43-1.45-.94l-15-42.39h-.43l-14.74,42.39c-.17.51-.85.94-1.45.94h-1.36c-.68,0-1.36-.51-1.53-1.19L5.66,7.65Z"/><path class="cls-4" d="M88.58,7.22c0-.85.68-1.62,1.62-1.62h19.09c10.31,0,17.73,6.82,17.73,15.78,0,6.57-4.86,11.26-8.86,13.56,4.52,1.88,10.65,6.05,10.65,13.9,0,9.55-7.84,16.46-18.58,16.46h-20.03c-.94,0-1.62-.77-1.62-1.62V7.22ZM110.15,57.45c5.2,0,9.2-4.01,9.2-9.3s-4.94-8.95-10.48-8.95h-11.68v18.25h12.95ZM108.78,31.53c5.45,0,8.78-4.01,8.78-9.13s-3.32-8.78-8.78-8.78h-11.51v17.91h11.51Z"/><path class="cls-4" d="M142.62,7.22c0-.85.68-1.62,1.62-1.62h34.09c.94,0,1.62.77,1.62,1.62v4.78c0,.85-.68,1.62-1.62,1.62h-26.93v17.4h22.75c.85,0,1.62.77,1.62,1.62v4.78c0,.94-.77,1.62-1.62,1.62h-22.75v18.34h26.93c.94,0,1.62.77,1.62,1.62v4.69c0,.85-.68,1.62-1.62,1.62h-34.09c-.94,0-1.62-.77-1.62-1.62V7.22Z"/><path class="cls-4" d="M193.84,6.29c0-.85.77-1.54,1.62-1.54h2.13l36.99,42.81h.09V7.22c0-.85.68-1.62,1.62-1.62h5.45c.85,0,1.62.77,1.62,1.62v57.39c0,.85-.77,1.54-1.62,1.54h-2.22l-36.99-44.01h-.09v41.53c0,.85-.68,1.62-1.62,1.62h-5.37c-.85,0-1.62-.77-1.62-1.62V6.29Z"/><path class="cls-4" d="M287.33,4.75c8.61,0,14.83,2.9,20.62,7.93.77.68.77,1.71.09,2.39l-3.75,3.84c-.6.77-1.36.77-2.13,0-4.01-3.5-9.46-5.71-14.74-5.71-12.19,0-21.39,10.23-21.39,22.17s9.29,22.09,21.48,22.09c6.22,0,10.57-2.47,14.66-5.63.77-.6,1.53-.51,2.05-.09l3.92,3.84c.68.6.51,1.71-.09,2.3-5.79,5.63-13.12,8.27-20.71,8.27-17.04,0-30.77-13.56-30.77-30.62s13.72-30.79,30.77-30.79Z"/><path class="cls-2" d="M13.55,103.73c0-.18.16-.33.35-.33h.45l8.21,10.23h.04v-9.7c0-.18.15-.35.35-.35h.64c.18,0,.35.16.35.35v12.25c0,.18-.16.33-.35.33h-.33l-8.35-10.43h-.02v9.9c0,.18-.15.35-.35.35h-.64c-.18,0-.35-.16-.35-.35v-12.25Z"/><path class="cls-2" d="M26.51,115.85l5.53-12.25c.05-.11.15-.2.31-.2h.18c.16,0,.25.09.31.2l5.5,12.25c.11.24-.04.47-.31.47h-.73c-.16,0-.27-.11-.31-.2l-1.35-3h-6.46l-1.33,3c-.04.09-.15.2-.31.2h-.73c-.27,0-.42-.24-.31-.47ZM35.15,111.99c-.89-1.98-1.77-3.99-2.66-5.97h-.15l-2.66,5.97h5.46Z"/><path class="cls-2" d="M42.03,104.8h-3.17c-.2,0-.35-.16-.35-.35v-.53c0-.18.15-.35.35-.35h7.72c.2,0,.35.16.35.35v.53c0,.18-.15.35-.35.35h-3.17v11.17c0,.18-.16.35-.35.35h-.69c-.18,0-.35-.16-.35-.35v-11.17Z"/><path class="cls-2" d="M49.54,103.93c0-.18.16-.35.35-.35h.73c.18,0,.35.16.35.35v12.05c0,.18-.16.35-.35.35h-.73c-.18,0-.35-.16-.35-.35v-12.05Z"/><path class="cls-2" d="M60.9,103.4c3.64,0,6.55,2.93,6.55,6.57s-2.91,6.53-6.55,6.53-6.53-2.89-6.53-6.53,2.89-6.57,6.53-6.57ZM60.9,115.23c2.89,0,5.28-2.37,5.28-5.26s-2.38-5.3-5.28-5.3-5.26,2.4-5.26,5.3,2.37,5.26,5.26,5.26Z"/><path class="cls-2" d="M70.85,103.73c0-.18.16-.33.35-.33h.45l8.21,10.23h.04v-9.7c0-.18.15-.35.35-.35h.64c.18,0,.35.16.35.35v12.25c0,.18-.16.33-.35.33h-.33l-8.35-10.43h-.02v9.9c0,.18-.15.35-.35.35h-.64c-.18,0-.35-.16-.35-.35v-12.25Z"/><path class="cls-2" d="M83.81,115.85l5.53-12.25c.05-.11.15-.2.31-.2h.18c.16,0,.25.09.31.2l5.5,12.25c.11.24-.04.47-.31.47h-.73c-.16,0-.27-.11-.31-.2l-1.35-3h-6.46l-1.33,3c-.04.09-.15.2-.31.2h-.73c-.27,0-.42-.24-.31-.47ZM92.45,111.99c-.89-1.98-1.77-3.99-2.66-5.97h-.15l-2.66,5.97h5.46Z"/><path class="cls-2" d="M98.24,103.93c0-.18.15-.35.35-.35h.71c.18,0,.35.16.35.35v11.17h5.24c.2,0,.35.16.35.35v.53c0,.18-.15.35-.35.35h-6.3c-.2,0-.35-.16-.35-.35v-12.05Z"/><path class="cls-2" d="M118.09,103.4c1.84,0,3.17.64,4.4,1.69.15.15.16.36.02.51l-.49.49c-.15.18-.29.16-.47-.02-.95-.82-2.24-1.36-3.48-1.36-2.88,0-5.08,2.42-5.08,5.24s2.2,5.22,5.08,5.22c1.58,0,2.51-.64,3.48-1.36.18-.15.33-.13.44-.05l.55.49c.15.11.11.36-.02.49-1.24,1.2-2.8,1.77-4.42,1.77-3.64,0-6.57-2.89-6.57-6.53s2.93-6.57,6.57-6.57Z"/><path class="cls-2" d="M131.48,103.4c3.64,0,6.55,2.93,6.55,6.57s-2.91,6.53-6.55,6.53-6.53-2.89-6.53-6.53,2.89-6.57,6.53-6.57ZM131.48,115.23c2.89,0,5.28-2.37,5.28-5.26s-2.38-5.3-5.28-5.3-5.26,2.4-5.26,5.3,2.37,5.26,5.26,5.26Z"/><path class="cls-2" d="M141.27,103.93c0-.18.16-.35.35-.35h.69c.2,0,.35.16.35.35v7.59c0,2.07,1.29,3.69,3.42,3.69s3.46-1.58,3.46-3.66v-7.62c0-.18.15-.35.35-.35h.69c.18,0,.35.16.35.35v7.7c0,2.77-1.97,4.88-4.84,4.88s-4.8-2.11-4.8-4.88v-7.7Z"/><path class="cls-2" d="M155.08,103.73c0-.18.16-.33.35-.33h.45l8.21,10.23h.04v-9.7c0-.18.15-.35.35-.35h.64c.18,0,.35.16.35.35v12.25c0,.18-.16.33-.35.33h-.33l-8.35-10.43h-.02v9.9c0,.18-.15.35-.35.35h-.64c-.18,0-.35-.16-.35-.35v-12.25Z"/><path class="cls-2" d="M175.42,103.4c1.84,0,3.17.64,4.4,1.69.15.15.16.36.02.51l-.49.49c-.15.18-.29.16-.47-.02-.95-.82-2.24-1.36-3.48-1.36-2.88,0-5.08,2.42-5.08,5.24s2.2,5.22,5.08,5.22c1.58,0,2.51-.64,3.48-1.36.18-.15.33-.13.44-.05l.55.49c.15.11.11.36-.02.49-1.24,1.2-2.8,1.77-4.42,1.77-3.64,0-6.57-2.89-6.57-6.53s2.93-6.57,6.57-6.57Z"/><path class="cls-2" d="M183.26,103.93c0-.18.16-.35.35-.35h.73c.18,0,.35.16.35.35v12.05c0,.18-.16.35-.35.35h-.73c-.18,0-.35-.16-.35-.35v-12.05Z"/><path class="cls-2" d="M189.01,103.93c0-.18.15-.35.35-.35h.71c.18,0,.35.16.35.35v11.17h5.24c.2,0,.35.16.35.35v.53c0,.18-.15.35-.35.35h-6.3c-.2,0-.35-.16-.35-.35v-12.05Z"/><circle class="cls-7" cx="287.74" cy="21.28" r="2.42"/><path class="cls-7" d="M285.97,30.56l-.07-3.69s.37,0,.9-.02c3.14-.03,5.2-2.41,5.22-2.43.69-.81,1.91-.91,2.72-.21.81.69.91,1.91.22,2.72-.13.15-2.95,3.55-7.88,3.6,0,0-1.1.04-1.1.04Z"/><circle class="cls-3" cx="274.96" cy="28.81" r="2.42"/><path class="cls-3" d="M282.51,34.47l-3.35-1.56s.15-.33.38-.81c1.35-2.83.12-5.73.11-5.76-.42-.98.02-2.11,1-2.54.98-.42,2.11.02,2.54,1,.08.18,1.89,4.21-.22,8.66,0,0-.45,1.01-.45,1.01Z"/><circle class="cls-8" cx="274.63" cy="43.27" r="2.42"/><path class="cls-8" d="M283.45,39.92l-3.11,1.99s-.2-.31-.48-.76c-1.67-2.66-4.78-3.17-4.81-3.17-1.05-.16-1.77-1.15-1.61-2.2.16-1.05,1.15-1.77,2.2-1.61.19.03,4.57.66,7.19,4.82,0,0,.61.92.61.92Z"/><circle class="cls-5" cx="287.14" cy="50.71" r="2.42"/><path class="cls-5" d="M289.31,41.52l-.09,3.69s-.37,0-.9-.02c-3.14-.1-5.3,2.18-5.32,2.2-.73.78-1.95.82-2.72.1-.78-.73-.82-1.95-.1-2.72.13-.14,3.11-3.42,8.03-3.26,0,0,1.11.01,1.11.01Z"/><circle class="cls-6" cx="300.22" cy="43.3" r="2.42"/><path class="cls-6" d="M292.98,37.25l3.26,1.74s-.17.33-.42.79c-1.5,2.76-.42,5.71-.41,5.74.37,1-.14,2.11-1.13,2.48-1,.37-2.11-.14-2.48-1.13-.07-.18-1.67-4.31.68-8.63,0,0,.5-.98.5-.98Z"/><circle class="cls-1" cx="300.32" cy="28.74" r="2.42"/><path class="cls-1" d="M291.42,31.88l3.16-1.92s.19.31.47.77c1.61,2.7,4.7,3.28,4.73,3.29,1.05.19,1.74,1.19,1.55,2.24-.19,1.05-1.19,1.74-2.24,1.55-.19-.04-4.56-.77-7.08-4.99,0,0-.59-.94-.59-.94Z"/></svg>