<svg width="72" height="50" viewBox="0 0 72 50" fill="none" xmlns="http://www.w3.org/2000/svg">
<g clip-path="url(#clip0_1592_118)">
<path d="M39.07 21.71C37.46 21.5 34.2 21.53 32.58 21.71C28.71 22.14 26.05 24.94 26.05 28.55H45.59C45.59 24.94 42.92 22.21 39.06 21.71H39.07Z" fill="#585858"/>
<path d="M35.83 20.03C39.1051 20.03 41.76 17.3751 41.76 14.1C41.76 10.825 39.1051 8.17001 35.83 8.17001C32.555 8.17001 29.9 10.825 29.9 14.1C29.9 17.3751 32.555 20.03 35.83 20.03Z" fill="#585858"/>
<path d="M18.7 33.77L18.13 36.71H53.53L52.95 33.77H18.7Z" fill="#585858"/>
<path d="M15.01 2.94H56.65V20.28C57.73 20.33 58.75 20.69 59.59 21.29V2.79C59.59 1.25 58.34 0 56.8 0H14.86C13.32 0 12.07 1.25 12.07 2.79V21.29C12.92 20.69 13.94 20.33 15.01 20.28V2.94Z" fill="#585858"/>
<path d="M16.37 23.42C15.18 22.94 13.5 23.28 12.91 24.75L9.4 33.9L8.55 29.18L9.95 26.55V17.91L1.27 26.26C0 27.4 0.08 29.1 0.07 30.1L0 46.98L9.08 49.71L11.15 44.27C11.68 44.12 12.22 43.81 12.7 43.38C13.5 42.69 14.15 41.7 14.35 40.66L15.86 32.97L18.09 26.88C18.54 25.72 17.88 24.06 16.36 23.44L16.37 23.42Z" fill="#585858"/>
<path d="M55.29 23.42C56.48 22.94 58.16 23.28 58.75 24.75L62.2599 33.9L63.1199 29.18L61.72 26.55V17.91L70.4 26.25C71.67 27.39 71.5899 29.09 71.5999 30.09L71.6699 46.97L62.59 49.7L60.52 44.26C59.99 44.11 59.45 43.8 58.97 43.37C58.18 42.68 57.52 41.69 57.32 40.65L55.8 32.96L53.58 26.87C53.13 25.71 53.78 24.05 55.31 23.43L55.29 23.42Z" fill="#585858"/>
</g>
<defs>
<clipPath id="clip0_1592_118">
<rect width="71.65" height="49.7" fill="white"/>
</clipPath>
</defs>
</svg>
